<svg width="35" height="39" viewBox="0 0 35 39" fill="none" xmlns="http://www.w3.org/2000/svg">
<g id="Group 23">
<path id="Vector" fill-rule="evenodd" clip-rule="evenodd" d="M27.3111 28.7416L25.217 30.7491L27.5422 33.1899L28.5388 34.2298C29.622 35.3708 30.8351 36.6273 31.9183 37.7393C32.0194 37.8549 32.626 37.7394 33.3626 37.1328C33.641 36.8508 33.8618 36.5172 34.0125 36.1507C34.0539 36.0142 34.0539 35.8684 34.0125 35.7318L28.5388 29.9981L27.5422 28.9583L27.3111 28.6983V28.7416ZM15.6704 10.0674C15.5216 10.052 15.3716 10.052 15.2227 10.0674C13.7868 10.1325 12.3907 10.5597 11.1643 11.3094C9.99813 12.0448 9.01119 13.0317 8.27582 14.1979C8.27582 14.299 8.1603 14.4146 8.11698 14.5012C7.93521 14.807 7.7759 15.1256 7.64035 15.4544C7.48541 15.7981 7.36448 16.156 7.27928 16.5232C7.16851 16.882 7.08643 17.249 7.03378 17.6208C7.03378 17.8952 7.03376 18.1408 6.96154 18.4007C6.88933 18.6607 6.96154 18.7185 6.96154 18.8773C6.94724 19.1178 6.94724 19.359 6.96154 19.5995C6.98403 19.9834 7.03718 20.3649 7.12043 20.7404C7.1273 20.8173 7.1273 20.8946 7.12043 20.9715C7.25279 21.5107 7.43158 22.0374 7.6548 22.5458C7.85986 22.9812 8.09637 23.4012 8.36248 23.8023C9.16625 25.0079 10.2519 25.9994 11.5254 26.6908C12.7918 27.3759 14.2089 27.7347 15.6488 27.7347C17.0886 27.7347 18.5058 27.3759 19.7722 26.6908C21.0518 25.9971 22.1464 25.0065 22.964 23.8023C23.1084 23.5856 23.2095 23.3834 23.3539 23.1524C24.4364 21.1538 24.7087 18.8154 24.1145 16.6216C23.5204 14.4277 22.1052 12.5464 20.1621 11.3672L19.6421 11.0495L19.0067 10.7751C18.9322 10.7396 18.855 10.7106 18.7756 10.6884C17.93 10.3617 17.0379 10.1716 16.1326 10.1251C15.9741 10.1108 15.8146 10.1108 15.656 10.1251L15.6704 10.0674ZM15.6704 9.09971C17.1744 9.10323 18.6572 9.45415 20.0032 10.1251C20.69 10.4603 21.3308 10.8826 21.9096 11.3816C23.0219 12.2969 23.9166 13.4483 24.5286 14.7523C25.1406 16.0563 25.4547 17.4802 25.4481 18.9207C25.4628 20.9584 24.8251 22.9474 23.6283 24.5966L25.8958 26.9652C25.9216 26.9907 25.942 27.0211 25.956 27.0545C25.9699 27.088 25.9771 27.1239 25.9771 27.1602C25.9771 27.1964 25.9699 27.2323 25.956 27.2658C25.942 27.2992 25.9216 27.3296 25.8958 27.3552L23.7872 29.3627C23.7394 29.371 23.6905 29.371 23.6428 29.3627C23.5695 29.3499 23.5003 29.3203 23.4405 29.276L22.1119 27.9039L21.202 26.9941C20.6725 27.3479 20.1117 27.6524 19.5266 27.9039C18.3111 28.4281 17.0014 28.6985 15.6777 28.6985C14.3539 28.6985 13.0442 28.4281 11.8287 27.9039C11.0727 27.5816 10.3634 27.159 9.72008 26.6474C8.69231 25.8681 7.83675 24.8847 7.20709 23.7589C6.97601 23.3401 6.77382 22.9357 6.58607 22.5024C6.22008 21.5794 6.00077 20.6048 5.93613 19.6139C5.92176 19.3734 5.92176 19.1323 5.93613 18.8918C5.93613 18.7185 5.93613 18.5596 5.93613 18.4007C5.98412 17.4132 6.18384 16.439 6.52828 15.5122C6.69249 15.0879 6.88052 14.6732 7.09152 14.2701C7.69969 13.1719 8.50226 12.1931 9.46013 11.3816C10.0419 10.8795 10.6878 10.4569 11.381 10.1251C12.7259 9.45117 14.2094 9.10008 15.7137 9.09971H15.6704ZM0.982333 1.01185V37.0028H27.5134V34.6053C26.1846 33.1611 24.8559 31.789 24.1483 31.0525C24.1011 31.0079 24.0634 30.9542 24.0377 30.8946C24.012 30.835 23.9988 30.7707 23.9988 30.7058C23.9988 30.6409 24.012 30.5767 24.0377 30.5171C24.0634 30.4575 24.1011 30.4038 24.1483 30.3592L24.5093 30.0126C24.8271 29.6949 25.4625 29.0738 26.719 27.8895C26.7935 27.8006 26.8756 27.7184 26.9645 27.644C27.0666 27.5608 27.194 27.5149 27.3256 27.514C27.3873 27.4987 27.4517 27.4987 27.5134 27.514V1.01185H0.982333ZM0.476833 0.000892629H28.0189C28.0839 -0.00110966 28.1486 0.0102007 28.2091 0.0341695C28.2696 0.0581383 28.3245 0.0942554 28.3705 0.140259C28.4165 0.186262 28.4526 0.24118 28.4766 0.301662C28.5006 0.362145 28.5119 0.426908 28.5099 0.491935V28.5539L34.6913 35.0675C34.8559 35.2662 34.9597 35.508 34.9904 35.7641C35.0212 36.0202 34.9775 36.2798 34.8646 36.5118C34.6796 37.0583 34.3678 37.5532 33.9548 37.956C33.4384 38.4926 32.7464 38.8258 32.005 38.8948C31.8447 38.8979 31.6854 38.8688 31.5366 38.8093C31.3878 38.7497 31.2524 38.661 31.1385 38.5482C31.1385 38.5482 29.9686 37.2916 28.5099 35.7752V37.595C28.5119 37.66 28.5006 37.7247 28.4766 37.7852C28.4526 37.8457 28.4165 37.9006 28.3705 37.9466C28.3245 37.9926 28.2696 38.0287 28.2091 38.0527C28.1486 38.0766 28.0839 38.088 28.0189 38.086H0.505702C0.439492 38.0901 0.373179 38.0802 0.310978 38.0572C0.248777 38.0341 0.192086 37.9984 0.144505 37.9521C0.0969253 37.9059 0.0595118 37.8503 0.0346698 37.7888C0.00982778 37.7272 -0.00188717 37.6613 0.000246987 37.595V0.491935C-0.00188717 0.425636 0.00982778 0.359599 0.0346698 0.298092C0.0595118 0.236586 0.0969253 0.18097 0.144505 0.134749C0.192086 0.0885286 0.248777 0.0527229 0.310978 0.0296738C0.373179 0.00662465 0.439492 -0.00316196 0.505702 0.000892629H0.476833Z" fill="black"/>
<path id="Vector_2" fill-rule="evenodd" clip-rule="evenodd" d="M5.83504 30.6191H22.8917C22.975 30.6151 23.0583 30.6283 23.1362 30.6579C23.2142 30.6875 23.2852 30.7329 23.3448 30.7912C23.4044 30.8494 23.4514 30.9194 23.4828 30.9966C23.5142 31.0739 23.5293 31.1568 23.5272 31.2401C23.5291 31.3248 23.5141 31.409 23.483 31.4878C23.452 31.5666 23.4055 31.6383 23.3463 31.6989C23.2871 31.7594 23.2164 31.8075 23.1383 31.8403C23.0603 31.8732 22.9764 31.8901 22.8917 31.8901H5.83504C5.66636 31.8827 5.50681 31.8115 5.38877 31.6908C5.27074 31.5701 5.20307 31.4089 5.19956 31.2401C5.20333 31.0741 5.27194 30.9162 5.39071 30.8001C5.50948 30.684 5.66897 30.6191 5.83504 30.6191ZM5.83504 26.4885H8.37695C8.85994 26.9673 9.39251 27.3934 9.96564 27.7595H5.83504C5.66897 27.7595 5.50948 27.6945 5.39071 27.5785C5.27194 27.4624 5.20333 27.3044 5.19956 27.1384C5.20307 26.9696 5.27074 26.8085 5.38877 26.6878C5.50681 26.5671 5.66636 26.4958 5.83504 26.4885ZM9.24351 22.9645H22.3574C22.1985 23.1956 22.0396 23.4267 21.8808 23.6289C21.6072 23.9737 21.3026 24.2928 20.9709 24.5821H10.6155C10.2891 24.2963 9.99379 23.9768 9.73455 23.6289C9.55008 23.4236 9.38566 23.2011 9.24351 22.9645ZM5.69065 22.4157C5.83317 22.8326 6.00696 23.2382 6.21056 23.6289H5.84949C5.68069 23.6254 5.51958 23.5578 5.39887 23.4397C5.27815 23.3217 5.20686 23.1621 5.19956 22.9934C5.20612 22.8564 5.25789 22.7254 5.34673 22.6209C5.43556 22.5164 5.55649 22.4443 5.69065 22.4157ZM7.98701 19.2961H23.5417C23.5172 19.8398 23.425 20.3784 23.2673 20.8993H8.24697C8.22483 20.7916 8.19589 20.6855 8.16032 20.5815C8.0881 20.2782 8.03033 19.946 7.97256 19.5994V19.4983C7.97256 19.4261 7.97256 19.3539 7.97256 19.2961H7.98701ZM8.6369 15.6566H22.9495C23.181 16.1753 23.3554 16.7177 23.4695 17.2742H8.1314C8.24064 16.7182 8.41015 16.1758 8.6369 15.6566ZM5.82062 14.1112H6.06612L5.97947 14.2845C5.84949 14.6312 5.71949 14.9489 5.60395 15.2955C5.49358 15.248 5.39936 15.1695 5.33271 15.0696C5.26606 14.9696 5.22986 14.8524 5.22847 14.7322C5.22831 14.5648 5.29277 14.4037 5.40848 14.2826C5.52418 14.1615 5.68218 14.0898 5.84949 14.0824L5.82062 14.1112ZM11.8143 12.1037H19.7722C20.3494 12.4291 20.8792 12.8325 21.3464 13.3024C21.3464 13.3024 21.3464 13.3747 21.4475 13.4036C21.5412 13.5117 21.6426 13.6131 21.7508 13.7068H9.86453C9.95119 13.6202 10.0379 13.5047 10.1534 13.4036C10.3548 13.1952 10.5669 12.9976 10.7889 12.8114C11.1133 12.5512 11.4559 12.3147 11.8143 12.1037ZM22.0108 10.0384H22.8917C22.9731 10.0324 23.0548 10.0433 23.1317 10.0704C23.2086 10.0975 23.2791 10.1402 23.3387 10.1958C23.3984 10.2513 23.4459 10.3187 23.4784 10.3935C23.5108 10.4683 23.5274 10.549 23.5272 10.6306C23.5151 10.8033 23.4437 10.9666 23.325 11.0927C23.0221 10.7948 22.6935 10.5241 22.343 10.2839C22.2403 10.1917 22.1291 10.1095 22.0108 10.0384ZM5.83504 10.0384H9.60458C9.4805 10.1018 9.36416 10.1793 9.25792 10.2695C8.93291 10.4923 8.62845 10.7436 8.34808 11.0205L8.11699 11.2372H5.83504C5.67138 11.2373 5.51398 11.1743 5.39561 11.0613C5.27723 10.9484 5.207 10.794 5.19956 10.6306C5.20706 10.4684 5.2778 10.3156 5.39657 10.2049C5.51535 10.0942 5.67273 10.0345 5.83504 10.0384ZM5.83504 5.90784H22.8917C22.9768 5.90135 23.0624 5.91333 23.1424 5.94297C23.2225 5.97261 23.2951 6.01921 23.3555 6.07956C23.4158 6.13992 23.4624 6.21262 23.4921 6.29267C23.5217 6.37271 23.5337 6.45821 23.5272 6.54332C23.5293 6.62668 23.5142 6.70955 23.4828 6.78679C23.4514 6.86404 23.4044 6.93399 23.3448 6.99227C23.2852 7.05055 23.2142 7.09591 23.1362 7.12551C23.0583 7.15512 22.975 7.16834 22.8917 7.16434H5.83504C5.66897 7.16439 5.50948 7.09944 5.39071 6.98337C5.27194 6.8673 5.20333 6.70934 5.19956 6.54332C5.19758 6.45933 5.21271 6.37582 5.24394 6.29782C5.27518 6.21983 5.32187 6.14897 5.38128 6.08957C5.44069 6.03016 5.51154 5.98342 5.58954 5.95218C5.66753 5.92095 5.75104 5.90587 5.83504 5.90784Z" fill="black"/>
</g>
</svg>
