<svg width="34" height="50" viewBox="0 0 34 50" fill="none" xmlns="http://www.w3.org/2000/svg">
<g id="Group 21">
<path id="Vector" fill-rule="evenodd" clip-rule="evenodd" d="M16.8185 39.5638H27.6806C27.8391 39.5638 27.991 39.6272 28.1031 39.7399C28.2151 39.8527 28.278 40.0057 28.278 40.1652C28.278 40.3247 28.2151 40.4776 28.1031 40.5904C27.991 40.7032 27.8391 40.7666 27.6806 40.7666H16.8185C16.6601 40.7666 16.5081 40.7032 16.3961 40.5904C16.284 40.4776 16.2211 40.3247 16.2211 40.1652C16.2211 40.0057 16.284 39.8527 16.3961 39.7399C16.5081 39.6272 16.6601 39.5638 16.8185 39.5638ZM16.8185 36.3018H27.6806C27.8391 36.3018 27.991 36.3651 28.1031 36.4779C28.2151 36.5907 28.278 36.7436 28.278 36.9031C28.278 37.0626 28.2151 37.2156 28.1031 37.3284C27.991 37.4412 27.8391 37.5045 27.6806 37.5045H16.8185C16.6601 37.5045 16.5081 37.4412 16.3961 37.3284C16.284 37.2156 16.2211 37.0626 16.2211 36.9031C16.2211 36.7436 16.284 36.5907 16.3961 36.4779C16.5081 36.3651 16.6601 36.3018 16.8185 36.3018ZM6.22792 35.6457H9.6857L8.50898 36.8303H6.80724V40.2381H10.1926V40.0923L11.3874 38.9077V40.8213C11.3874 40.9807 11.3245 41.1337 11.2125 41.2465C11.1004 41.3593 10.9485 41.4226 10.79 41.4226H6.22792C6.06947 41.4226 5.91753 41.3593 5.80549 41.2465C5.69346 41.1337 5.63052 40.9807 5.63052 40.8213V36.2471C5.63052 36.0876 5.69346 35.9346 5.80549 35.8219C5.91753 35.7091 6.06947 35.6457 6.22792 35.6457ZM11.7495 35.2266C11.7998 35.1551 11.8649 35.0955 11.9404 35.052C12.0159 35.0085 12.0999 34.9822 12.1866 34.9747C12.2733 34.9673 12.3605 34.9791 12.4422 35.0091C12.5239 35.0392 12.5981 35.0868 12.6596 35.1487C12.7211 35.2106 12.7684 35.2853 12.7983 35.3675C12.8282 35.4498 12.8398 35.5376 12.8324 35.6249C12.8251 35.7121 12.7989 35.7967 12.7556 35.8727C12.7124 35.9487 12.6533 36.0143 12.5823 36.0648L11.4236 37.2312L10.2288 38.4157L9.32366 39.3269C9.27126 39.3793 9.20908 39.4207 9.14074 39.4489C9.07239 39.477 8.99922 39.4913 8.92538 39.4909C8.76547 39.4917 8.61079 39.4334 8.49086 39.3269L7.45894 38.2881C7.37751 38.1723 7.33944 38.0312 7.35138 37.8898C7.36331 37.7484 7.42451 37.6158 7.52419 37.5155C7.62387 37.4151 7.7556 37.3535 7.89606 37.3415C8.03653 37.3295 8.17668 37.3679 8.29175 37.4499L8.92538 38.0695L10.1745 36.7938L11.2245 35.7368L11.7495 35.2266ZM16.8185 29.0305H27.6806C27.8391 29.0305 27.991 29.0939 28.1031 29.2066C28.2151 29.3194 28.278 29.4724 28.278 29.6319C28.278 29.7914 28.2151 29.9443 28.1031 30.0571C27.991 30.1699 27.8391 30.2333 27.6806 30.2333H16.8185C16.6601 30.2333 16.5081 30.1699 16.3961 30.0571C16.284 29.9443 16.2211 29.7914 16.2211 29.6319C16.2211 29.4724 16.284 29.3194 16.3961 29.2066C16.5081 29.0939 16.6601 29.0305 16.8185 29.0305ZM16.8185 25.7867H27.6806C27.8391 25.7867 27.991 25.85 28.1031 25.9628C28.2151 26.0756 28.278 26.2286 28.278 26.3881C28.278 26.5475 28.2151 26.7005 28.1031 26.8133C27.991 26.9261 27.8391 26.9895 27.6806 26.9895H16.8185C16.6601 26.9895 16.5081 26.9261 16.3961 26.8133C16.284 26.7005 16.2211 26.5475 16.2211 26.3881C16.2211 26.2286 16.284 26.0756 16.3961 25.9628C16.5081 25.85 16.6601 25.7867 16.8185 25.7867ZM6.22792 25.1306H9.6857L8.50898 26.3151H6.80724V29.7048H10.1926V29.5772L11.3874 28.3927V30.3061C11.3875 30.3843 11.3719 30.4616 11.3417 30.5336C11.3115 30.6056 11.2671 30.6707 11.2114 30.7251C11.1557 30.7795 11.0897 30.8221 11.0173 30.8503C10.9449 30.8785 10.8676 30.8918 10.79 30.8893H6.22792C6.15033 30.8918 6.07307 30.8785 6.00068 30.8503C5.92829 30.8221 5.86227 30.7795 5.80654 30.7251C5.75082 30.6707 5.70651 30.6056 5.67627 30.5336C5.64603 30.4616 5.63049 30.3843 5.63052 30.3061V25.7138C5.63523 25.5575 5.70026 25.4092 5.81179 25.3003C5.92332 25.1914 6.07256 25.1305 6.22792 25.1306ZM11.7495 24.7479C11.8631 24.6429 12.0117 24.5846 12.1659 24.5846C12.3201 24.5846 12.4687 24.6429 12.5823 24.7479C12.6387 24.8039 12.6834 24.8706 12.714 24.9441C12.7445 25.0176 12.7603 25.0965 12.7603 25.1762C12.7603 25.2559 12.7445 25.3348 12.714 25.4083C12.6834 25.4818 12.6387 25.5485 12.5823 25.6044L11.4236 26.7707L10.2288 27.9553L9.32366 28.8483C9.27501 28.9066 9.21397 28.9533 9.14505 28.9849C9.07613 29.0164 9.00108 29.032 8.92538 29.0305C8.84448 29.0313 8.76422 29.0156 8.68953 28.9842C8.61484 28.9529 8.54725 28.9067 8.49086 28.8483L7.45894 27.8277C7.37751 27.7119 7.33944 27.5708 7.35138 27.4294C7.36331 27.288 7.42451 27.1554 7.52419 27.0551C7.62387 26.9547 7.7556 26.8931 7.89606 26.8811C8.03653 26.8691 8.17668 26.9075 8.29175 26.9895L8.92538 27.6091L10.1745 26.3334L11.2245 25.2764L11.7495 24.7479ZM16.8185 18.3879H27.6806C27.8391 18.3879 27.991 18.4512 28.1031 18.564C28.2151 18.6768 28.278 18.8297 28.278 18.9892C28.2805 19.0689 28.2668 19.1482 28.2377 19.2223C28.2086 19.2964 28.1647 19.3638 28.1087 19.4201C28.0527 19.4765 27.9858 19.5207 27.9122 19.55C27.8386 19.5793 27.7598 19.5931 27.6806 19.5906H16.8185C16.7394 19.5931 16.6606 19.5793 16.587 19.55C16.5133 19.5207 16.4465 19.4765 16.3905 19.4201C16.3345 19.3638 16.2906 19.2964 16.2614 19.2223C16.2323 19.1482 16.2186 19.0689 16.2211 18.9892C16.2211 18.8297 16.284 18.6768 16.3961 18.564C16.5081 18.4512 16.6601 18.3879 16.8185 18.3879ZM16.8185 15.1441H27.6806C27.8391 15.1441 27.991 15.2074 28.1031 15.3202C28.2151 15.433 28.278 15.5859 28.278 15.7454C28.278 15.9049 28.2151 16.0579 28.1031 16.1706C27.991 16.2834 27.8391 16.3468 27.6806 16.3468H16.8185C16.6601 16.3468 16.5081 16.2834 16.3961 16.1706C16.284 16.0579 16.2211 15.9049 16.2211 15.7454C16.2211 15.5859 16.284 15.433 16.3961 15.3202C16.5081 15.2074 16.6601 15.1441 16.8185 15.1441ZM6.22792 14.488H9.6857L8.50898 15.6725H6.80724V19.0803H10.1926V18.9163L11.3874 17.7318V19.6635C11.3874 19.823 11.3245 19.9759 11.2125 20.0887C11.1004 20.2015 10.9485 20.2649 10.79 20.2649H6.22792C6.06947 20.2649 5.91753 20.2015 5.80549 20.0887C5.69346 19.9759 5.63052 19.823 5.63052 19.6635V15.0711C5.63523 14.9148 5.70026 14.7665 5.81179 14.6577C5.92332 14.5488 6.07256 14.4879 6.22792 14.488ZM11.7495 14.0688C11.8005 14.0075 11.8642 13.9583 11.9361 13.9245C12.008 13.8907 12.0865 13.8732 12.1659 13.8732C12.2453 13.8732 12.3237 13.8907 12.3957 13.9245C12.4676 13.9583 12.5313 14.0075 12.5823 14.0688C12.6381 14.1232 12.6825 14.1883 12.7128 14.2603C12.7432 14.3324 12.7588 14.4098 12.7588 14.488C12.7588 14.5662 12.7432 14.6436 12.7128 14.7156C12.6825 14.7876 12.6381 14.8528 12.5823 14.9071L11.4236 16.0552L10.2288 17.258L9.32366 18.1691C9.27126 18.2215 9.20908 18.263 9.14074 18.2911C9.07239 18.3193 8.99922 18.3336 8.92538 18.3332C8.76547 18.334 8.61079 18.2756 8.49086 18.1691L7.45894 17.1486C7.35462 17.0343 7.29674 16.8847 7.29674 16.7295C7.29674 16.5743 7.35462 16.4247 7.45894 16.3103C7.50992 16.2491 7.57363 16.1998 7.64557 16.166C7.71751 16.1322 7.79595 16.1146 7.87535 16.1146C7.95474 16.1146 8.03318 16.1322 8.10512 16.166C8.17706 16.1998 8.24077 16.2491 8.29175 16.3103L8.92538 16.8935L10.1745 15.6361L11.2245 14.5973L11.7495 14.0688ZM0.59774 4.31917H10.3012V5.5037H1.24944V48.2201H32.7677V5.5037H23.716V4.31917H33.4014C33.4805 4.31664 33.5593 4.33045 33.6329 4.35977C33.7065 4.3891 33.7734 4.43333 33.8294 4.48969C33.8853 4.54604 33.9293 4.61334 33.9584 4.68745C33.9876 4.76156 34.0013 4.84087 33.9988 4.92053V48.8214C34.0041 48.9018 33.9923 48.9824 33.9642 49.0578C33.936 49.1332 33.8922 49.2017 33.8357 49.2586C33.7791 49.3156 33.7111 49.3597 33.6362 49.388C33.5613 49.4163 33.4812 49.4282 33.4014 49.4228H0.59774C0.518606 49.4254 0.439761 49.4115 0.366141 49.3822C0.292522 49.3529 0.225665 49.3087 0.169681 49.2523C0.113696 49.196 0.0698109 49.1287 0.0406776 49.0546C0.0115444 48.9805 -0.00222252 48.9011 0.000291594 48.8214V4.92053C0.000291594 4.76104 0.0632787 4.60809 0.175316 4.49531C0.287354 4.38252 0.439295 4.31917 0.59774 4.31917ZM16.9995 1.20288C16.7197 1.20089 16.4424 1.2567 16.1849 1.36689C15.9067 1.46042 15.6506 1.61066 15.4326 1.80819C15.2145 2.00571 15.0393 2.2463 14.9177 2.51499H19.0271C18.7665 1.98295 18.3128 1.57196 17.7599 1.36689C17.4954 1.25855 17.2126 1.20286 16.9271 1.20288H16.9995ZM16.9995 0.000110222C17.5305 -0.00415476 18.0552 0.115408 18.5326 0.349368C19.01 0.583329 19.4271 0.925373 19.7513 1.3487C20.0328 1.68461 20.2424 2.0755 20.3668 2.4968H22.1771C22.2113 2.49639 22.2452 2.50349 22.2764 2.5176C22.3076 2.53172 22.3354 2.55248 22.3578 2.5785C22.3802 2.60452 22.3967 2.63517 22.4061 2.66826C22.4156 2.70136 22.4178 2.73613 22.4125 2.77015V6.7429C22.4149 6.81861 22.4022 6.89403 22.3751 6.96469C22.348 7.03535 22.307 7.09982 22.2547 7.15423C22.2023 7.20863 22.1396 7.25184 22.0703 7.28136C22.001 7.31088 21.9265 7.32611 21.8513 7.32607H12.0573C11.9019 7.32615 11.7527 7.26526 11.6411 7.1564C11.5296 7.04753 11.4646 6.89922 11.4599 6.7429V2.77015C11.4599 2.69765 11.4884 2.6281 11.5394 2.57683C11.5903 2.52557 11.6594 2.4968 11.7314 2.4968H13.5418C13.6598 2.07659 13.8632 1.68562 14.1392 1.3487C14.4652 0.927444 14.8827 0.5869 15.3597 0.35315C15.8367 0.1194 16.3604 -0.00139125 16.8909 0.000110222H16.9995Z" fill="black"/>
</g>
</svg>
