<svg width="2" height="2" viewBox="0 0 2 2" fill="none" xmlns="http://www.w3.org/2000/svg">
<path id="Vector" d="M2.00002 0.994702C2.00002 0.797969 1.94137 0.605652 1.83149 0.442074C1.72161 0.278496 1.56542 0.151005 1.38269 0.0757189C1.19996 0.000432264 0.998893 -0.0192679 0.804911 0.0191129C0.610929 0.0574937 0.432739 0.152242 0.292886 0.291353C0.153033 0.430465 0.057796 0.607694 0.0192107 0.800647C-0.0193747 0.993601 0.000446435 1.19361 0.0761343 1.37536C0.151822 1.55712 0.279977 1.71247 0.444426 1.82177C0.608876 1.93107 0.802218 1.9894 1 1.9894C1.26522 1.9894 1.51958 1.88461 1.70711 1.69807C1.89465 1.51152 2.00002 1.25851 2.00002 0.994702Z" fill="#6C7AFF"/>
</svg>
