<svg width="3" height="3" viewBox="0 0 3 3" fill="none" xmlns="http://www.w3.org/2000/svg">
<path id="Vector" d="M3 1.49205C3 1.19695 2.91204 0.908475 2.74722 0.663107C2.5824 0.41774 2.34811 0.226507 2.07402 0.113577C1.79993 0.000646553 1.49833 -0.0289012 1.20736 0.0286701C0.916385 0.0862415 0.649108 0.228348 0.439328 0.437016C0.229548 0.645684 0.0867011 0.911543 0.0288229 1.20097C-0.0290553 1.4904 0.000649999 1.7904 0.114182 2.06304C0.227714 2.33568 0.419949 2.5687 0.666625 2.73265C0.9133 2.8966 1.20332 2.98412 1.49999 2.98412C1.89782 2.98412 2.27934 2.82692 2.56065 2.54711C2.84196 2.26729 3 1.88777 3 1.49205Z" fill="#DDE7FE"/>
</svg>
