<svg width="3" height="3" viewBox="0 0 3 3" fill="none" xmlns="http://www.w3.org/2000/svg">
<path id="Vector" d="M3.00002 1.49343C3.0003 1.19827 2.91253 0.909669 2.74788 0.664121C2.58322 0.418573 2.34906 0.227113 2.075 0.113971C1.80093 0.00082941 1.49929 -0.0289125 1.20822 0.0285025C0.917161 0.0859176 0.649742 0.227907 0.439823 0.436519C0.229905 0.645132 0.0869101 0.910991 0.0289194 1.20046C-0.0290713 1.48993 0.000572811 1.79 0.114064 2.06272C0.227555 2.33544 0.419797 2.56854 0.666502 2.73255C0.913207 2.89656 1.20328 2.9841 1.50001 2.9841C1.89759 2.9841 2.27893 2.8271 2.56019 2.54759C2.84146 2.26807 2.99965 1.8889 3.00002 1.49343Z" fill="#DDE7FE"/>
</svg>
