<svg width="2" height="2" viewBox="0 0 2 2" fill="none" xmlns="http://www.w3.org/2000/svg">
<path id="Vector" d="M1.99998 0.995997C2.00024 0.799209 1.94181 0.606778 1.83209 0.44303C1.72236 0.279281 1.56629 0.151577 1.38359 0.0760907C1.20089 0.000604689 0.999771 -0.0192784 0.805704 0.0189551C0.611637 0.0571885 0.433344 0.151826 0.293361 0.290885C0.153377 0.429944 0.0580013 0.607175 0.0193099 0.800163C-0.0193815 0.993151 0.000350068 1.19321 0.075999 1.37505C0.151648 1.55688 0.27981 1.71232 0.444287 1.82167C0.608764 1.93103 0.802157 1.98939 0.999994 1.98939C1.13125 1.98956 1.26125 1.964 1.38257 1.91416C1.50388 1.86431 1.61414 1.79116 1.70701 1.6989C1.79989 1.60664 1.87359 1.49707 1.92386 1.37646C1.97413 1.25585 1.99998 1.12656 1.99998 0.995997Z" fill="#6C7AFF"/>
</svg>
