<svg width="3" height="3" viewBox="0 0 3 3" fill="none" xmlns="http://www.w3.org/2000/svg">
<path id="Vector" d="M3.00004 1.49205C3.00004 1.19695 2.91204 0.908475 2.74722 0.663107C2.5824 0.41774 2.34814 0.226507 2.07405 0.113577C1.79996 0.000646553 1.49837 -0.0289012 1.20739 0.0286701C0.916419 0.0862415 0.649142 0.228348 0.439362 0.437016C0.229582 0.645684 0.0867011 0.911543 0.0288229 1.20097C-0.0290553 1.4904 0.000649999 1.7904 0.114182 2.06304C0.227714 2.33568 0.419983 2.5687 0.666659 2.73265C0.913334 2.8966 1.20335 2.98412 1.50002 2.98412C1.89785 2.98412 2.27938 2.82692 2.56068 2.54711C2.84199 2.26729 3.00004 1.88777 3.00004 1.49205Z" fill="#DDE7FE"/>
</svg>
