<svg width="2" height="2" viewBox="0 0 2 2" fill="none" xmlns="http://www.w3.org/2000/svg">
<path id="Vector" d="M2 0.994702C2 0.797969 1.94135 0.605652 1.83147 0.442074C1.72158 0.278496 1.56543 0.151005 1.3827 0.0757189C1.19997 0.000432264 0.998901 -0.0192679 0.804919 0.0191129C0.610938 0.0574937 0.432747 0.152242 0.292894 0.291353C0.153041 0.430465 0.0578043 0.607694 0.0192189 0.800647C-0.0193664 0.993601 0.00042271 1.19361 0.0761106 1.37536C0.151799 1.55712 0.279985 1.71247 0.444435 1.82177C0.608884 1.93107 0.802227 1.9894 1.00001 1.9894C1.13138 1.98958 1.26149 1.96396 1.38289 1.91404C1.5043 1.86411 1.61461 1.79085 1.70751 1.69845C1.8004 1.60605 1.87403 1.49633 1.92423 1.37557C1.97442 1.25481 2.00017 1.12538 2 0.994702Z" fill="#6C7AFF"/>
</svg>
