<svg width="27" height="63" viewBox="0 0 27 63" fill="none" xmlns="http://www.w3.org/2000/svg">
<path id="Vector" d="M24.2229 62.9911C23.361 62.9911 6.4751 63.0221 2.20404 62.968C0.343384 62.945 0.0171636 61.3216 0.00105399 60.271C-0.00484443 59.9782 0.0140224 59.6854 0.0574435 59.3957L0.187331 57.8664L0.516561 53.9685L0.80855 50.5253L1.1821 46.0996L1.49723 42.365L5.03229 0.555838L26.5849 0C26.5849 0 24.1554 24.518 22.4377 42.3639C22.2454 44.3519 22.0632 46.2588 21.895 48.0385C21.8393 48.6067 21.7863 49.1615 21.7359 49.703C21.5768 51.3916 21.4339 52.9429 21.304 54.31C21.2375 55.0311 21.1761 55.7021 21.1197 56.313C20.9013 58.7166 20.7724 60.257 20.7704 60.5494C20.7694 60.7089 20.7836 60.8682 20.8127 61.0251C21.162 62.907 23.8997 62.9911 24.2229 62.9911Z" fill="#AEC3FF"/>
</svg>
