<svg width="18" height="39" viewBox="0 0 18 39" fill="none" xmlns="http://www.w3.org/2000/svg">
<path id="Vector" d="M1.45617 9.08175C1.47662 9.11837 1.4981 9.15702 1.52059 9.19465C2.03186 10.0775 3.20265 12.246 4.4941 14.6107C5.10762 15.7296 5.74363 16.9033 6.34999 18.0048C7.39502 19.9038 8.34597 21.5952 8.90018 22.4892C9.46461 23.3985 9.87976 24.0373 10.0475 24.2926C10.0947 24.3719 10.1141 24.4645 10.1027 24.556C10.0453 25.3496 10.0576 26.1466 10.1395 26.9381C10.9176 34.6427 16.1417 38.7721 16.1417 38.7721L17.6939 38.9999C17.6939 38.9999 15.4965 30.9007 14.8492 26.3227C14.7398 25.5467 14.6918 24.9171 14.7306 24.5072C14.8452 23.3141 14.6284 21.5627 14.2286 19.5518C13.5128 15.9787 12.1968 11.593 11.0536 8.08193C10.981 7.85816 8.7969 0 8.7969 0C6.96351 1.59279 0.277194 2.25086 0.277194 2.25086C0.277194 2.25086 -0.854742 4.994 1.45617 9.08175Z" fill="#473ACC"/>
</svg>
