<svg width="10" height="21" viewBox="0 0 10 21" fill="none" xmlns="http://www.w3.org/2000/svg">
<path id="Vector" d="M9.99489 2.77604C9.99489 2.77604 10.251 0 7.13773 0C7.13773 0 8.08263 0.254763 8.56631 0.764295C8.56631 0.764295 6.57752 -0.396868 4.41322 1.38853C2.24892 3.17392 3.59689 7.64907 2.93464 8.49356C2.27239 9.33804 -0.286813 9.50856 0.0264545 12.2613C0.339722 15.0139 8.1612 18.4528 7.65916 20.7244C7.65916 20.7244 10.7204 16.2421 8.53263 14.1969C8.53263 14.1969 9.60101 15.1977 9.7102 16.3883C9.7102 16.3883 9.99999 14.0649 8.51427 13.3219C7.19895 12.6642 6.1214 10.2597 6.23568 9.82931C6.34997 9.39895 9.99489 2.77604 9.99489 2.77604Z" fill="#2C3A64"/>
</svg>
