<svg width="16" height="42" viewBox="0 0 16 42" fill="none" xmlns="http://www.w3.org/2000/svg">
<path id="Vector" d="M15.9779 4.00362L16 2.81892C13.628 3.11859 7.82054 0 7.82054 0C7.82054 0 5.33908 1.64121 4.99965 6.33009C4.83395 8.61859 3.78453 18.297 3.66904 21.1879C3.62586 22.2347 3.6118 22.9859 3.60778 23.2856C3.60206 23.3756 3.56677 23.4612 3.50736 23.5293C3.02248 24.1442 2.59238 24.8 2.22194 25.4892C-1.39832 32.1878 0.494657 41.2899 0.494657 41.2899L1.3352 41.0771C1.3352 41.0771 4.39611 31.6414 6.39654 27.5599C6.73597 26.8676 7.04427 26.3292 7.30035 26.0176C8.05252 25.1086 8.84486 23.5653 9.62716 21.7083C11.1064 18.1961 15.9779 4.00362 15.9779 4.00362Z" fill="#473ACC"/>
</svg>
