<svg width="5" height="6" viewBox="0 0 5 6" fill="none" xmlns="http://www.w3.org/2000/svg">
<path id="Vector" d="M0.154993 0.467071C0.0785153 0.54967 0.0276421 0.652478 0.00849327 0.763143C-0.0106556 0.873808 0.00273464 0.987621 0.0470485 1.0909C0.232712 1.50643 0.719532 1.96813 1.27976 2.4309C1.35316 2.49103 1.41794 2.54686 1.47515 2.5984L1.52047 2.63812L1.55394 2.66927C2.09366 3.16532 1.89181 3.27914 2.86331 4.28629C3.97189 5.43409 4.73505 5.45449 4.95202 5.35034C5.13553 5.26122 4.76204 4.65242 4.3497 3.96846C3.57388 3.66714 2.892 3.16706 2.37324 2.51894C1.72557 1.70292 1.2938 0.662486 0.856629 0.0225504L0.732491 0C0.519997 0.129495 0.325792 0.286569 0.154993 0.467071Z" fill="#233862"/>
</svg>
