<svg width="49" height="33" viewBox="0 0 49 33" fill="none" xmlns="http://www.w3.org/2000/svg">
<path id="Vector" d="M14.877 3.65156L13.9802 2.33559C13.0198 0.924192 11.3888 0 9.85774 0H0L1.71079 6.22222L8.4984 30.9122C8.64617 31.4507 8.96783 31.9259 9.41385 32.2646C9.85986 32.6034 10.4055 32.7868 10.9666 32.7867H46.4418C46.8351 32.7866 47.2232 32.6962 47.5757 32.5227C47.9283 32.3492 48.2359 32.0972 48.4747 31.7862C48.7134 31.4753 48.8769 31.1138 48.9524 30.7298C49.0279 30.3458 49.0134 29.9496 48.91 29.5721L42.491 6.22423H19.4135C17.73 6.22222 15.9344 5.20561 14.877 3.65156Z" fill="#1D2238"/>
</svg>
