<svg width="8" height="6" viewBox="0 0 8 6" fill="none" xmlns="http://www.w3.org/2000/svg">
<path id="Vector" d="M7.97414 2.7183C7.79537 1.65349 7.2514 1.55264 6.87313 1.62312C5.43092 -0.747221 3.07629 0.177716 3.07629 0.177716C2.29612 1.12663 1.20865 1.77635 0 2.01566C0 2.01566 0.453488 2.85384 2.31975 3.37323C2.88988 3.53154 3.53631 3.43504 4.15986 3.22685C3.32682 3.67608 2.43594 4.00989 1.51198 4.21901C3.97126 4.44347 6.30846 2.2065 6.55373 1.96794C6.66274 2.31384 6.8655 3.04035 6.74668 3.57058C6.58426 4.29058 5.94109 5.59719 6.33462 5.76526C6.33462 5.76526 8.24231 4.31335 7.97414 2.7183Z" fill="#2C3A64"/>
</svg>
