<svg width="15" height="2" viewBox="0 0 15 2" fill="none" xmlns="http://www.w3.org/2000/svg">
<path id="Vector" d="M14.9888 0.42556L0.0376424 1.3615C0.0345771 1.36151 0.0316163 1.36037 0.0293567 1.35831C0.027097 1.35625 0.0257049 1.35342 0.0254495 1.35038L4.65183e-05 0.946088C-9.26156e-05 0.944495 8.01625e-05 0.942888 0.000567477 0.941363C0.00105479 0.939838 0.00184806 0.938426 0.00288699 0.937205C0.00392591 0.935984 0.00518954 0.934974 0.00662053 0.934244C0.00805151 0.933514 0.00961904 0.933076 0.0112223 0.932949L14.9624 4.61546e-05C14.9639 -9.46895e-05 14.9655 8.75413e-05 14.967 0.000582858C14.9685 0.00107818 14.9698 0.00187412 14.9709 0.00292091C14.9721 0.0039677 14.973 0.00524004 14.9736 0.00665933C14.9743 0.00807862 14.9746 0.00961358 14.9746 0.0111627L15 0.415455C14.9995 0.418144 14.9982 0.420605 14.9962 0.422438C14.9941 0.424272 14.9915 0.42537 14.9888 0.42556Z" fill="#BDD1F9"/>
</svg>
