<svg width="22" height="2" viewBox="0 0 22 2" fill="none" xmlns="http://www.w3.org/2000/svg">
<path id="Vector" d="M21.9858 0.423996L0.0407544 1.7939C0.0367774 1.79393 0.032932 1.79251 0.0299389 1.7899C0.0269458 1.7873 0.0250097 1.78369 0.0245126 1.77977L0.000156217 1.38505C-0.000138932 1.38317 -1.4036e-05 1.38124 0.000515493 1.37941C0.00104502 1.37757 0.00197276 1.37588 0.00322864 1.37444C0.00448453 1.37299 0.00603868 1.37184 0.00778773 1.37106C0.00953678 1.37028 0.0114329 1.36988 0.0133503 1.36991L21.9594 3.75048e-08C21.9632 -8.52061e-06 21.967 0.00144785 21.9698 0.00407283C21.9726 0.00669782 21.9743 0.0102961 21.9746 0.0141347L22 0.408851C22 0.412698 21.9985 0.416408 21.9959 0.419221C21.9932 0.422033 21.9896 0.423739 21.9858 0.423996Z" fill="#BDD1F9"/>
</svg>
