<svg width="32" height="41" viewBox="0 0 32 41" fill="none" xmlns="http://www.w3.org/2000/svg">
<path id="Vector" d="M29.7633 8.13405e-05L0.101203 1.64398C0.0726123 1.64604 0.0459954 1.65922 0.0270918 1.68066C0.00818828 1.70209 -0.00148294 1.73007 0.000184818 1.75853L2.16502 40.3942C2.16684 40.4226 2.17987 40.449 2.20126 40.4679C2.22265 40.4867 2.25065 40.4963 2.27917 40.4947L31.8988 38.8528C31.9273 38.851 31.9539 38.838 31.9729 38.8167C31.9918 38.7955 32.0015 38.7676 31.9998 38.7393L29.833 0.0603686C29.8314 0.0433114 29.8233 0.0275103 29.8103 0.0162724C29.7973 0.00503458 29.7805 -0.000766137 29.7633 8.13405e-05Z" fill="#233862"/>
</svg>
