<svg width="18" height="2" viewBox="0 0 18 2" fill="none" xmlns="http://www.w3.org/2000/svg">
<path id="Vector" d="M17.9886 0.43099L0.0402314 1.55041C0.0384694 1.55055 0.0366994 1.55034 0.0350184 1.5498C0.0333374 1.54925 0.0317771 1.54839 0.030435 1.54724C0.0290929 1.5461 0.0279963 1.54469 0.027199 1.54312C0.0264016 1.54155 0.025919 1.53985 0.0257887 1.5381L7.52143e-07 1.13383C-3.51016e-05 1.13035 0.00121205 1.12698 0.00348867 1.12434C0.00576529 1.12169 0.00892867 1.11996 0.012391 1.11946L17.9608 4.27539e-05C17.9625 -9.95067e-05 17.9642 0.00011426 17.9658 0.000669004C17.9675 0.00122375 17.9689 0.00211638 17.9702 0.0032742C17.9715 0.00443203 17.9725 0.00583005 17.9732 0.00739493C17.9738 0.00895981 17.9742 0.0106604 17.9742 0.0123674L18 0.416624C18.0003 0.420005 17.9993 0.423374 17.9972 0.426043C17.9951 0.428712 17.992 0.430481 17.9886 0.43099Z" fill="#BDD1F9"/>
</svg>
