<svg width="16" height="2" viewBox="0 0 16 2" fill="none" xmlns="http://www.w3.org/2000/svg">
<path id="Vector" d="M15.9867 0.425817L0.040917 1.42133C0.0369233 1.42137 0.0330618 1.41994 0.0300561 1.41733C0.0270504 1.41471 0.0251185 1.41108 0.0246194 1.40714L0.0001605 1.01076C-0.000135891 1.00886 -2.29103e-05 1.00693 0.000508847 1.00509C0.0010406 1.00325 0.00197225 1.00155 0.00323341 1.0001C0.00449458 0.998655 0.00605528 0.997497 0.00781168 0.996712C0.00956809 0.995927 0.0114846 0.995538 0.0134101 0.995561L15.9592 4.29827e-05C15.9631 -0.000249371 15.967 0.000958031 15.97 0.00340898C15.973 0.00585993 15.975 0.00936884 15.9755 0.0132223L16 0.41062C16.0001 0.412485 15.9999 0.414352 15.9993 0.416127C15.9987 0.417902 15.9978 0.41954 15.9965 0.420953C15.9953 0.422366 15.9938 0.423534 15.9921 0.424369C15.9904 0.425204 15.9886 0.425688 15.9867 0.425817Z" fill="#BDD1F9"/>
</svg>
