<svg width="11" height="2" viewBox="0 0 11 2" fill="none" xmlns="http://www.w3.org/2000/svg">
<path id="Vector" d="M10.9887 0.433865L0.0390878 1.11734C0.0357126 1.11735 0.0324647 1.11608 0.0299845 1.11381C0.0275044 1.11153 0.025975 1.10841 0.0257154 1.10506L0 0.6958C0 0.692544 0.00130139 0.689422 0.00361622 0.68712C0.00593105 0.684817 0.0090692 0.683523 0.0123429 0.683523L10.9619 4.59671e-05C10.9635 -9.66091e-05 10.9651 9.41076e-05 10.9666 0.000595516C10.9681 0.00109692 10.9695 0.00189641 10.9706 0.00295608C10.9718 0.00401574 10.9727 0.00530373 10.9733 0.00674047C10.974 0.00817722 10.9743 0.00973106 10.9743 0.0112992L11 0.420563C11 0.423764 10.9989 0.426876 10.9968 0.429319C10.9948 0.431762 10.9919 0.433373 10.9887 0.433865Z" fill="#BDD1F9"/>
</svg>
