<svg width="16" height="2" viewBox="0 0 16 2" fill="none" xmlns="http://www.w3.org/2000/svg">
<path id="Vector" d="M15.9857 0.425795L0.0407668 1.42024C0.0388642 1.42053 0.0369198 1.42041 0.0350692 1.41989C0.0332185 1.41936 0.0314984 1.41843 0.0300433 1.41718C0.0285882 1.41592 0.0274365 1.41437 0.0266471 1.41262C0.0258577 1.41087 0.0254548 1.40897 0.0254777 1.40706L3.8021e-08 1.0107C-8.60145e-06 1.00684 0.00145539 1.00312 0.00410533 1.0003C0.00675527 0.997473 0.0103939 0.995754 0.014269 0.995496L15.9592 3.82817e-05C15.9611 -9.96929e-05 15.963 0.000136676 15.9648 0.000725056C15.9665 0.00131344 15.9682 0.00224757 15.9696 0.00347215C15.971 0.00469674 15.9722 0.00618569 15.973 0.00785885C15.9739 0.00953201 15.9744 0.0113515 15.9745 0.0132169L16 0.409579C16 0.413551 15.9986 0.417398 15.996 0.420388C15.9933 0.423377 15.9897 0.425299 15.9857 0.425795Z" fill="#BDD1F9"/>
</svg>
