<svg width="12" height="2" viewBox="0 0 12 2" fill="none" xmlns="http://www.w3.org/2000/svg">
<path id="Vector" d="M11.9882 0.4457L0.0405844 1.18847C0.0388158 1.18861 0.037041 1.18839 0.0353626 1.18782C0.0336842 1.18725 0.032135 1.18634 0.030831 1.18514C0.0295269 1.18394 0.0284928 1.18248 0.0277839 1.18086C0.0270749 1.17925 0.0267099 1.1775 0.0267161 1.17573L4.72304e-05 0.756607C-9.88368e-05 0.754934 9.5573e-05 0.753247 0.000607172 0.751646C0.00111877 0.750045 0.00193855 0.748563 0.00302924 0.747281C0.00411994 0.745999 0.00545956 0.744939 0.00696185 0.744172C0.00846415 0.743405 0.0100968 0.742946 0.01178 0.742812L11.9594 4.42144e-05C11.9612 -0.000102906 11.963 0.000118163 11.9646 0.000691857C11.9663 0.00126555 11.9679 0.00217572 11.9692 0.0033731C11.9705 0.00457047 11.9715 0.0060292 11.9722 0.00764753C11.9729 0.00926587 11.9733 0.0110116 11.9733 0.0127769L12 0.431905C12.0001 0.433578 11.9999 0.435265 11.9994 0.436866C11.9989 0.438467 11.9981 0.439949 11.997 0.441231C11.9959 0.442513 11.9946 0.443573 11.993 0.44434C11.9915 0.445107 11.9899 0.445566 11.9882 0.4457Z" fill="#BDD1F9"/>
</svg>
