<svg width="30" height="39" viewBox="0 0 30 39" fill="none" xmlns="http://www.w3.org/2000/svg">
<path id="Vector" d="M28.7187 36.6703L3.5945 38.2387C3.41535 38.2499 3.23575 38.2259 3.06594 38.168C2.89613 38.1101 2.73945 38.0195 2.60484 37.9014C2.47023 37.7832 2.36034 37.6399 2.28143 37.4795C2.20252 37.3191 2.15614 37.1449 2.14495 36.9667L0.00244776 3.00496C-0.0191461 2.64639 0.102805 2.29389 0.341669 2.02448C0.580532 1.75506 0.916889 1.59063 1.27724 1.56712L26.4045 0.00266633C26.7664 -0.0198959 27.1225 0.101433 27.3945 0.339972C27.6665 0.578511 27.8322 0.914731 27.855 1.27472L29.9976 35.2314C30.0191 35.5907 29.8967 35.9439 29.657 36.2136C29.4173 36.4833 29.0799 36.6475 28.7187 36.6703Z" fill="#EBF3FA"/>
</svg>
