<svg width="16" height="2" viewBox="0 0 16 2" fill="none" xmlns="http://www.w3.org/2000/svg">
<path id="Vector" d="M15.9898 0.425915L0.0407673 1.42036C0.0388647 1.42065 0.0369203 1.42053 0.0350696 1.42C0.033219 1.41947 0.0315113 1.41855 0.0300562 1.4173C0.0286011 1.41604 0.0274369 1.41448 0.0266476 1.41274C0.0258582 1.41099 0.0254552 1.40909 0.0254782 1.40718L5.02663e-07 1.01082C-3.08051e-05 1.00685 0.00140131 1.003 0.00403115 1.00001C0.00666099 0.997025 0.0103072 0.995097 0.0142695 0.994601L15.9592 0.000157823C15.9611 -0.000136981 15.9631 -1.84183e-05 15.9649 0.00051049C15.9668 0.0010394 15.9685 0.00196605 15.9699 0.00322047C15.9714 0.00447488 15.9726 0.00602721 15.9733 0.00777421C15.9741 0.00952121 15.9745 0.0114213 15.9745 0.0133365L16 0.409692C16.0002 0.413121 15.9994 0.41654 15.9975 0.419455C15.9957 0.42237 15.993 0.424634 15.9898 0.425915Z" fill="#BDD1F9"/>
</svg>
