<svg width="12" height="2" viewBox="0 0 12 2" fill="none" xmlns="http://www.w3.org/2000/svg">
<path id="Vector" d="M11.9872 0.451006L0.0396656 1.19377C0.0362338 1.19356 0.0329857 1.19217 0.0304592 1.18985C0.0279327 1.18753 0.0262821 1.18442 0.0257974 1.18103L0.000196663 0.756599C-0.000119642 0.754899 -5.43012e-05 0.753141 0.000391989 0.751469C0.000838279 0.749798 0.0016521 0.748256 0.00277497 0.746936C0.00389784 0.745616 0.0053068 0.744555 0.00688984 0.74384C0.00847288 0.743126 0.0101912 0.742775 0.0119293 0.742804L11.9594 4.42139e-05C11.9612 -0.000102905 11.963 0.000118162 11.9647 0.000691849C11.9663 0.00126554 11.9679 0.00217569 11.9692 0.00337306C11.9705 0.00457042 11.9715 0.00602913 11.9722 0.00764745C11.9729 0.00926577 11.9733 0.0110114 11.9733 0.0127767L12 0.437211C12.0001 0.43897 11.9999 0.440736 11.9993 0.442405C11.9987 0.444074 11.9978 0.445602 11.9966 0.4469C11.9954 0.448197 11.994 0.449238 11.9923 0.449943C11.9907 0.450649 11.9889 0.451012 11.9872 0.451006Z" fill="#BDD1F9"/>
</svg>
