<svg width="15" height="43" viewBox="0 0 15 43" fill="none" xmlns="http://www.w3.org/2000/svg">
<path id="Vector" d="M14.3451 42.5725C14.3451 42.5725 13.0598 43 12.0563 43C11.3339 42.9901 10.6158 42.8877 9.91965 42.6953C9.91965 42.6953 9.67772 40.3669 8.3455 35.2379C7.64723 32.549 6.64986 29.0924 5.23189 24.7971C1.30976 12.9266 0.116373 5.98198 0.00816236 5.32398C0.00203723 5.28945 0 5.27219 0 5.27219L0.0122498 5.26609L12.0706 0C12.0706 0 10.5802 16.3608 12.4789 22.6444C12.7676 23.6331 12.9981 24.6377 13.169 25.6531C14.3726 32.4729 14.3451 42.5725 14.3451 42.5725Z" fill="#221D75"/>
</svg>
