<svg width="18" height="5" viewBox="0 0 18 5" fill="none" xmlns="http://www.w3.org/2000/svg">
<path id="Vector" d="M16.047 0.00298629L1.63414 0.801841C0.686825 0.854191 -0.0499753 1.60907 0.00265327 2.48645L0.123702 4.65267C0.128449 4.70289 0.143113 4.75169 0.166861 4.79626C0.190609 4.84082 0.222967 4.88029 0.262083 4.91239C0.301199 4.94449 0.346309 4.96859 0.394811 4.98331C0.443313 4.99804 0.494261 5.00309 0.544731 4.99818L17.6027 4.05589C17.7046 4.05369 17.8015 4.01151 17.8723 3.93856C17.9431 3.86561 17.982 3.76778 17.9806 3.66641L17.8585 1.50018C17.808 0.618616 16.9975 -0.0504103 16.047 0.00298629Z" fill="#1D2238"/>
</svg>
