<svg width="16" height="2" viewBox="0 0 16 2" fill="none" xmlns="http://www.w3.org/2000/svg">
<path id="Vector" d="M15.9877 0.434628L0.0391607 1.42998C0.0375356 1.43012 0.0358972 1.42993 0.0343427 1.42944C0.0327881 1.42895 0.0313485 1.42816 0.0301033 1.42711C0.028858 1.42606 0.0278414 1.42478 0.0270967 1.42333C0.026352 1.42189 0.0258931 1.42032 0.0257633 1.4187L0 1.00868C0.000204088 1.00538 0.00154611 1.00224 0.00379908 0.999816C0.00605205 0.997388 0.00907745 0.995815 0.0123659 0.995349L15.9609 5.82185e-08C15.9642 -9.90695e-06 15.9675 0.00125977 15.97 0.00354125C15.9725 0.00582272 15.974 0.00894671 15.9743 0.0123004L16 0.422327C16 0.42559 15.9987 0.42873 15.9964 0.431036C15.9941 0.433343 15.9909 0.434628 15.9877 0.434628Z" fill="#BDD1F9"/>
</svg>
