<svg width="30" height="30" viewBox="0 0 30 30" fill="none" xmlns="http://www.w3.org/2000/svg">
<g id="Group" opacity="0.5">
<path id="Vector" d="M4.09842 25.1219C6.12951 27.2693 8.75514 28.7693 11.6433 29.4323C14.5315 30.0954 17.5524 29.8916 20.3241 28.8468C23.0959 27.802 25.4939 25.9631 27.2149 23.5627C28.936 21.1622 29.9028 18.308 29.993 15.361C30.0833 12.414 29.293 9.5066 27.722 7.00639C26.1511 4.50618 23.8701 2.52549 21.1674 1.3148C18.4648 0.104104 15.4619 -0.282214 12.5385 0.204696C9.61513 0.691606 6.90255 2.02988 4.74381 4.05027C3.3029 5.38715 2.14245 6.99466 1.32943 8.78002C0.516409 10.5654 0.0669245 12.4932 0.0069207 14.4523C-0.0530831 16.4114 0.277586 18.3629 0.979832 20.1942C1.68208 22.0254 2.742 23.7002 4.09842 25.1219Z" fill="#B3CFF9"/>
</g>
</svg>
