<svg width="33" height="33" viewBox="0 0 33 33" fill="none" xmlns="http://www.w3.org/2000/svg">
<path id="Vector" d="M28.515 5.16519C27.0305 3.59561 25.2497 2.33227 23.2743 1.44732C21.2989 0.562371 19.1676 0.0731513 17.0021 0.00759455C14.8366 -0.0579622 12.6794 0.301428 10.6535 1.06524C8.62767 1.82906 6.77293 2.98234 5.19521 4.45922C5.10714 4.54072 5.02008 4.62324 4.9361 4.70677C2.61902 6.97126 1.02546 9.86568 0.35514 13.0272C-0.315175 16.1888 -0.032416 19.4768 1.16798 22.4792C2.36838 25.4816 4.433 28.0648 7.10307 29.9049C9.77314 31.7451 12.9299 32.7603 16.1776 32.8235C19.4253 32.8866 22.6195 31.9948 25.3598 30.2599C28.1001 28.5249 30.2646 26.024 31.582 23.0705C32.8995 20.1171 33.3112 16.8426 32.7656 13.6574C32.22 10.4722 30.7413 7.51802 28.515 5.16519ZM26.9122 27.42C24.7231 29.4689 21.9724 30.8261 19.0079 31.3199C16.0434 31.8137 12.9983 31.422 10.2576 30.1943C7.51687 28.9666 5.20372 26.958 3.61065 24.4226C2.01758 21.8873 1.21613 18.9389 1.30766 15.9504C1.39919 12.962 2.37958 10.0676 4.12486 7.63341C5.87014 5.19919 8.30191 3.33443 11.1126 2.27496C13.9234 1.21549 16.9869 1.00889 19.9157 1.68129C22.8444 2.35368 25.507 3.87488 27.5666 6.0525C28.9363 7.49736 30.0059 9.19675 30.7144 11.0534C31.4229 12.91 31.7563 14.8874 31.6955 16.8723C31.6347 18.8573 31.181 20.8108 30.3602 22.6211C29.5394 24.4313 28.3677 26.0628 26.9122 27.4221V27.42Z" fill="#1F4D84"/>
</svg>
