<svg width="151" height="147" viewBox="0 0 151 147" fill="none" xmlns="http://www.w3.org/2000/svg">
<g id="Group 29">
<path id="Vector" d="M40.4559 0.555568C38.7043 0.711455 37.0736 1.52545 35.8846 2.83747C34.6956 4.14949 34.0342 5.86459 34.0306 7.64549C33.9675 30.2168 33.8635 108.071 35.3162 135.627C35.3897 137.033 35.9893 138.358 36.993 139.332C37.9968 140.306 39.3293 140.857 40.7194 140.871C54.9949 141.027 96.0594 141.312 119.372 139.803C121.71 139.653 123.905 138.607 125.508 136.876C127.111 135.145 128.002 132.86 128 130.487C127.972 106.798 127.598 40.1755 124.394 9.72294C124.208 7.95499 123.417 6.30863 122.158 5.06957C120.899 3.83051 119.252 3.07694 117.502 2.93965C101.933 1.71259 60.586 -1.21746 40.4559 0.555568Z" fill="#221D75"/>
<path id="Vector_2" d="M39.4869 12.7999C39.2039 32.1138 38.3985 96.364 39.8044 120.077C40.0099 123.544 42.6908 126.28 46.0014 126.396C59.6326 126.872 94.5864 127.796 114.504 125.595C118.09 125.199 120.831 122.077 120.927 118.297C121.425 98.5872 122.771 38.7466 121.405 15.3006C121.185 11.5598 118.341 8.57522 114.773 8.33359C100.014 7.33507 62.1147 5.03185 45.1779 6.44854C41.997 6.70948 39.5347 9.45624 39.4869 12.7999Z" fill="#91B3FA"/>
<path id="Vector_3" d="M72.0062 3.31917C72.0115 3.62523 72.1189 3.91729 72.3063 4.13516C72.4936 4.35302 72.7467 4.48008 73.0133 4.49013C75.7534 4.58563 83.4705 4.85697 86.9204 4.99923C87.0791 5.00578 87.237 4.97063 87.382 4.89647C87.5271 4.8223 87.6554 4.71108 87.7573 4.5713C87.8591 4.43152 87.9318 4.26687 87.9698 4.08992C88.0077 3.91298 88.01 3.72842 87.9763 3.55033C87.9648 3.52662 87.8764 2.5473 87.0053 2.47815C84.6721 2.29177 77.6322 1.78993 72.98 2.09749C72.0268 2.16005 71.9752 3.40742 72.0062 3.31917Z" fill="white"/>
<path id="Vector_4" d="M55.4525 71.7628C55.4525 71.7628 74.1413 67.0804 93.8847 69.9071C99.44 70.7018 104.361 73.9295 107.359 78.6681C112.76 87.2059 120.397 102.42 118.78 118.288L110.306 120.379C110.306 120.379 104.447 101.55 97.8514 93.8847C97.8514 93.8847 90.0415 111.666 90.4366 121.43C90.4475 121.706 90.4657 121.975 90.4912 122.238C91.3874 131.789 53 124.02 53 124.02L55.4525 71.7628Z" fill="#2EE8AE"/>
<path id="Vector_5" d="M76.1838 55.114L72.1442 68.3456C71.768 69.5763 72.1442 70.8948 73.0809 71.6382C75.2449 73.3499 79.5175 76.0765 84.739 75.9984C85.695 75.9841 86.4979 75.1425 86.5645 74.1156L88 52L76.1838 55.114Z" fill="url(#paint0_linear_1_206)"/>
<path id="Vector_6" d="M91.1335 41.2065C91.1335 41.2065 92.6316 51.3618 91.6881 56.2148C90.7446 61.0678 90.9496 64.444 85.4368 63.9525C79.924 63.461 76.1775 59.4832 74.9653 54.0552C74.9653 54.0552 73.0354 45.6747 74.6332 42.9013C76.231 40.1278 91.1335 41.2065 91.1335 41.2065Z" fill="url(#paint1_linear_1_206)"/>
<path id="Vector_7" d="M77.5323 51.5459L78.2269 51.7288C78.2269 51.7288 76.9078 45.0848 79.6918 44.7129C82.4758 44.341 92.9664 44.9285 96.0431 41.9488C99.0087 39.0765 98.3174 34.173 95.8774 32.2086C95.8009 32.1502 95.7053 32.1229 95.6096 32.1322C95.5139 32.1414 95.4252 32.1866 95.3611 32.2585L95.0188 32.6332C94.9666 32.6897 94.8989 32.7293 94.8242 32.747C94.7495 32.7647 94.6712 32.7597 94.5994 32.7326C94.5275 32.7055 94.4654 32.6575 94.4208 32.5948C94.3762 32.5321 94.3512 32.4575 94.349 32.3805C94.3407 32.0507 93.9465 31.875 93.7074 32.1033C92.772 32.9902 90.5402 34.245 85.5354 33.8703C78.4301 33.3388 73.2298 34.9101 71.8892 39.5793C71.8703 39.6458 71.834 39.706 71.7842 39.7537C71.7343 39.8014 71.6727 39.8348 71.6056 39.8506C71.5386 39.8664 71.4685 39.8639 71.4028 39.8434C71.337 39.8228 71.2779 39.7851 71.2315 39.7339C70.8113 39.296 70.0483 38.9413 68.7418 39.5621C66.4702 40.6418 66.1649 44.9163 69.3669 49.3438C69.4034 49.3918 69.4281 49.4479 69.4391 49.5073C69.45 49.5668 69.4468 49.628 69.4297 49.686C69.4127 49.7439 69.3823 49.7971 69.3409 49.841C69.2996 49.885 69.2485 49.9186 69.1919 49.939C68.3261 50.2273 66.923 51.0864 69.3779 53.3722C71.8897 55.7106 73.6633 55.9955 74.3601 55.9999C74.4508 56.0017 74.5393 55.9713 74.61 55.9141C74.6806 55.857 74.729 55.7767 74.7466 55.6873L75.5804 51.4538C75.5907 51.402 75.6115 51.3529 75.6414 51.3094C75.6713 51.266 75.7098 51.2291 75.7544 51.2011C75.799 51.1731 75.8488 51.1545 75.9009 51.1465C75.9529 51.1385 76.006 51.1412 76.0569 51.1545L77.5323 51.5459Z" fill="url(#paint2_linear_1_206)"/>
<path id="Vector_8" d="M77 51.8537C77 51.8537 77.0147 46.2333 74.2469 47.0886C71.4792 47.9439 73.9198 53.305 75.7784 54L77 51.8537Z" fill="url(#paint3_linear_1_206)"/>
<path id="Vector_9" d="M56.7668 112.225C55.9349 106.221 61.3501 95.312 63.8661 91.9635C64.5882 91.0067 64.9858 89.8356 64.9989 88.6274C65.0724 80.1263 61.5796 74.6661 55.9832 71C55.9832 71 35.6716 95.1863 40.843 113.786C41.3569 115.669 42.2115 117.438 43.3628 119C44.1777 111.991 52.7716 112.548 56.7668 112.225Z" fill="#2EE8AE"/>
<path id="Vector_10" d="M55.8227 108L55 107.911C55.7002 102.059 61.0681 94.8344 63.3436 92L64 92.4825C61.7665 95.2645 56.4966 102.345 55.8227 108Z" fill="url(#paint4_linear_1_206)"/>
<path id="Vector_11" d="M56.7446 112C54.4631 112.004 43.9689 112.362 43 118.609C52.0511 130.552 77 126.243 77 126.243V121.596C77 121.596 61.3609 118.762 57.3851 112.356C57.3177 112.247 57.2235 112.157 57.1114 112.095C56.9993 112.032 56.873 112 56.7446 112Z" fill="url(#paint5_linear_1_206)"/>
<path id="Vector_12" d="M75 125C75 125 78.646 116.683 85.0707 119.633C91.4954 122.583 90.9907 124.512 90.9907 124.512L75 125Z" fill="url(#paint6_linear_1_206)"/>
<path id="Vector_13" d="M74.0039 126.928C74.0286 127.227 74.1744 127.505 74.4109 127.705C74.6473 127.904 74.9561 128.01 75.2728 127.999L108.839 126.892C109.094 126.883 109.339 126.8 109.542 126.654C109.744 126.508 109.894 126.306 109.969 126.076L110.944 123.125C111 122.956 111.014 122.777 110.986 122.602C110.957 122.427 110.887 122.26 110.78 122.114C110.673 121.969 110.532 121.848 110.369 121.762C110.205 121.676 110.023 121.626 109.835 121.617L97.5948 121.001C97.4847 120.996 97.3743 121.005 97.2665 121.027L74.9664 125.699C74.6761 125.76 74.4187 125.917 74.2418 126.143C74.0648 126.369 73.9803 126.648 74.0039 126.928Z" fill="#473ACC"/>
<path id="Vector_14" d="M96 126L96.9581 121L110 121.697L109.142 125.846L96 126Z" fill="#473ACC"/>
<path id="Vector_15" d="M89.854 78.7883C89.1411 84.6434 85.9325 108.433 85.014 115.23C84.9838 115.455 85.0026 115.683 85.0692 115.9C85.1357 116.116 85.2484 116.315 85.3994 116.484C85.5503 116.652 85.736 116.786 85.9434 116.875C86.1508 116.964 86.375 117.006 86.6005 116.999L141.023 115.434C141.369 115.424 141.702 115.299 141.969 115.077C142.236 114.856 142.422 114.551 142.497 114.211L150.963 75.9015C151.015 75.6655 151.012 75.4206 150.954 75.186C150.896 74.9514 150.785 74.7335 150.629 74.5494C150.473 74.3654 150.276 74.2202 150.055 74.1254C149.834 74.0305 149.594 73.9885 149.353 74.0027L91.3067 77.419C90.9432 77.44 90.5986 77.5886 90.3331 77.8388C90.0676 78.0891 89.898 78.4252 89.854 78.7883Z" fill="#221D75"/>
<path id="Vector_16" d="M111.938 102.776L104 125.604L122.459 126L123.996 102.915C124.013 102.66 123.976 102.404 123.887 102.164C123.799 101.925 123.66 101.707 123.482 101.526C123.304 101.345 123.089 101.205 122.853 101.115C122.616 101.025 122.364 100.987 122.112 101.004L113.491 101.584C113.146 101.607 112.815 101.732 112.539 101.944C112.263 102.156 112.054 102.445 111.938 102.776Z" fill="#473ACC"/>
<path id="Vector_17" d="M96.0482 126.406C96.0006 126.589 95.988 126.783 96.0115 126.973C96.035 127.162 96.0938 127.342 96.1832 127.498C96.2726 127.653 96.39 127.78 96.5258 127.867C96.6616 127.955 96.8118 128 96.9643 128H126.036C126.163 128 126.288 127.969 126.405 127.907C126.522 127.846 126.628 127.757 126.718 127.644C126.807 127.531 126.878 127.397 126.927 127.25C126.975 127.102 127 126.944 127 126.785V125.215C127 125.051 126.974 124.889 126.923 124.738C126.871 124.587 126.797 124.451 126.703 124.338C126.609 124.224 126.498 124.136 126.376 124.078C126.254 124.02 126.125 123.994 125.995 124.001L96.9229 125.572C96.727 125.582 96.5383 125.668 96.382 125.817C96.2257 125.966 96.1093 126.172 96.0482 126.406Z" fill="#473ACC"/>
<path id="Vector_18" d="M89.381 103L89 102.95L91.6539 81.5112C91.7341 80.8662 92.0315 80.2701 92.4948 79.8258C92.9581 79.3814 93.5583 79.1166 94.1918 79.077L143.977 76L144 76.3947L94.2136 79.4745C93.6701 79.5089 93.1554 79.7364 92.758 80.1177C92.3607 80.499 92.1055 81.0103 92.0365 81.5636L89.381 103Z" fill="#91B3FA"/>
<path id="Vector_19" d="M87.8679 109.215L87.2926 113.813L87.679 113.862L88.2543 109.264L87.8679 109.215Z" fill="#91B3FA"/>
<path id="Vector_20" d="M86 58.9726C79.6993 59.4966 76.0366 52.3283 76 52.256L76.422 52C76.4568 52.0692 79.9743 58.9418 85.964 58.4442L86 58.9726Z" fill="url(#paint7_linear_1_206)"/>
<path id="Vector_21" d="M87.9984 58.4998C87.9984 58.5655 87.9819 58.6306 87.9496 58.6913C87.9173 58.752 87.8699 58.8072 87.8102 58.8536C87.7505 58.9001 87.6795 58.9369 87.6015 58.962C87.5234 58.9872 87.4398 59.0001 87.3553 59H85.643C85.4725 59 85.3089 58.9473 85.1883 58.8535C85.0677 58.7597 85 58.6325 85 58.4998C85.0001 58.3672 85.068 58.2401 85.1885 58.1464C85.3091 58.0526 85.4726 58 85.643 58H87.357C87.4414 57.9999 87.525 58.0128 87.603 58.0379C87.681 58.063 87.7519 58.0998 87.8116 58.1462C87.8713 58.1927 87.9187 58.2478 87.951 58.3084C87.9834 58.3691 88 58.4341 88 58.4998H87.9984Z" fill="url(#paint8_linear_1_206)"/>
<path id="Vector_22" d="M76.5763 45.5708C76.5763 45.5708 78.7107 34.4324 85 33.3833C85 33.3833 83.2191 32.4714 81.3621 33.4607C79.5051 34.45 74.8121 39.8696 75.0058 45.8453C76.28 46.3131 76.5763 45.5708 76.5763 45.5708Z" fill="url(#paint9_linear_1_206)"/>
<path id="Vector_23" d="M75.9065 45.0529C72.6369 45.7515 73.0385 50.107 73.0385 50.107C72.8032 53.2675 73.6791 54.8342 74.8012 55.5811C75.1785 55.8315 75.6109 55.9748 76.0563 55.997C76.5018 56.0192 76.9451 55.9195 77.3432 55.7078C77.7412 55.496 78.0805 55.1794 78.3279 54.7886C78.5753 54.3979 78.7225 53.9463 78.7551 53.4779C78.8156 52.6178 78.8847 51.7998 78.9457 51.5093C79.0925 50.8079 79.1767 44.3537 75.9065 45.0529Z" fill="url(#paint10_linear_1_206)"/>
<path id="Vector_24" d="M76.0446 46.0234C75.7595 45.9624 75.4661 46.0215 75.2116 46.191C74.9572 46.3605 74.7564 46.6306 74.6417 46.9578C72.9484 51.7904 75.0275 54.9343 76.0479 54.9994C77.1234 55.0686 77.1019 48.6926 76.8732 47.0581C76.776 46.3759 76.4224 46.1046 76.0446 46.0234Z" fill="url(#paint11_linear_1_206)"/>
<path id="Vector_25" d="M123.5 66C134.822 66 144 56.8218 144 45.5C144 34.1782 134.822 25 123.5 25C112.178 25 103 34.1782 103 45.5C103 56.8218 112.178 66 123.5 66Z" fill="white"/>
<path id="Vector_26" d="M123.231 57.994C122.259 58.0582 121.354 57.6065 120.851 56.7955L112.398 43.204C111.606 41.9309 112.033 40.1861 113.351 39.3076C114.669 38.4291 116.377 38.7507 117.168 40.0239L123.028 49.4587L130.764 33.6823C131.458 32.2669 133.125 31.6176 134.488 32.2315C135.85 32.8453 136.392 34.4894 135.698 35.9043L125.705 56.3078C125.247 57.2417 124.337 57.8844 123.328 57.9862C123.295 57.9895 123.264 57.9923 123.231 57.994Z" fill="#2EE8AE"/>
<path id="Vector_27" d="M57 141.483V116.928C57.001 115.378 56.3941 113.89 55.3114 112.788C54.2286 111.685 52.7575 111.058 51.2178 111.041C41.6 110.936 21.7646 110.93 5.53471 112.308C4.46423 112.399 3.46406 112.882 2.72331 113.665C1.98257 114.448 1.55258 115.478 1.51467 116.559L0.00357639 140.299C-0.022945 141.045 0.0982511 141.788 0.360098 142.486C0.621945 143.184 1.0192 143.823 1.52871 144.365C2.03821 144.906 2.64977 145.341 3.32772 145.642C4.00567 145.944 4.73645 146.106 5.47744 146.12L51.4149 146.999C52.1432 147.013 52.8669 146.88 53.5437 146.609C54.2205 146.338 54.8369 145.934 55.3569 145.421C55.8769 144.907 56.29 144.295 56.5721 143.619C56.8542 142.942 56.9997 142.217 57 141.483Z" fill="#2EE8AE"/>
<path id="Vector_28" d="M51.9862 119.812C52.0283 121.856 51.9654 125.099 51.9137 127.193C51.9074 127.451 51.8454 127.704 51.7318 127.937C51.6183 128.17 51.4555 128.378 51.254 128.547C51.0525 128.716 50.8167 128.842 50.5617 128.918C50.3067 128.994 50.038 129.017 49.773 128.987L41.6952 128.074C41.4396 128.045 41.1927 127.967 40.9691 127.844C40.7455 127.721 40.5498 127.556 40.3936 127.359C40.2375 127.161 40.1241 126.936 40.0601 126.695C39.9962 126.455 39.9831 126.204 40.0215 125.959L41.0135 119.576C41.0815 119.138 41.3104 118.738 41.6585 118.448C42.0066 118.159 42.4508 118 42.9103 118H50.0686C50.5706 117.999 51.0528 118.189 51.4114 118.527C51.7701 118.866 51.9765 119.328 51.9862 119.812Z" fill="white"/>
<path id="Vector_29" opacity="0.37" d="M30.7516 132.26L24.5488 132.991C24.3449 133.015 24.1387 132.99 23.9447 132.918C23.7507 132.845 23.5737 132.727 23.4263 132.571C23.2788 132.416 23.1646 132.227 23.0915 132.017C23.0185 131.808 22.9886 131.584 23.0039 131.36L24.3599 111.202C26.9602 111.112 29.5249 111.046 32 111V130.743C31.9999 131.12 31.8724 131.483 31.6419 131.763C31.4114 132.043 31.0943 132.22 30.7516 132.26Z" fill="white"/>
<path id="Vector_30" d="M28.1406 128.37C28.1322 128.54 28.0689 128.7 27.9634 128.817C27.8579 128.934 27.7182 129 27.573 129C27.5616 129 27.5507 129 27.5394 129C27.4643 128.996 27.3908 128.974 27.323 128.936C27.2552 128.898 27.1945 128.845 27.1444 128.779C27.0944 128.713 27.0559 128.637 27.0313 128.553C27.0067 128.47 26.9964 128.382 27.0011 128.294L27.8558 111.031C28.2394 111.02 28.6197 111.009 29 111L28.1406 128.37Z" fill="white"/>
<path id="Vector_31" d="M48.2831 126C48.3547 126 48.4237 125.978 48.4758 125.938C48.5279 125.899 48.5593 125.844 48.5634 125.787L48.9993 120.242C49.0019 120.213 48.9971 120.183 48.9852 120.154C48.9733 120.126 48.9546 120.1 48.9301 120.077C48.9055 120.055 48.8758 120.036 48.8424 120.023C48.8091 120.01 48.7728 120.003 48.7358 120.001C48.6986 119.998 48.6611 120.002 48.6257 120.011C48.5902 120.021 48.5575 120.036 48.5295 120.056C48.5015 120.076 48.4788 120.1 48.4629 120.127C48.4469 120.154 48.4379 120.184 48.4366 120.214L48.0006 125.758C47.9982 125.788 48.003 125.818 48.015 125.846C48.0269 125.875 48.0457 125.901 48.0702 125.923C48.0947 125.946 48.1244 125.964 48.1577 125.977C48.191 125.99 48.2272 125.998 48.2641 125.999L48.2831 126Z" fill="url(#paint12_linear_1_206)"/>
<path id="Vector_32" d="M47.3576 126C47.4498 126 47.5383 125.977 47.6044 125.937C47.6705 125.897 47.7089 125.842 47.7114 125.784L47.9997 120.232C48.0015 120.202 47.994 120.173 47.9776 120.145C47.9612 120.118 47.9363 120.093 47.9043 120.071C47.8723 120.05 47.8339 120.032 47.7912 120.02C47.7485 120.008 47.7025 120.002 47.6557 120.001C47.6083 119.998 47.5606 120.002 47.5156 120.011C47.4706 120.021 47.4294 120.037 47.3947 120.057C47.36 120.078 47.3327 120.102 47.3144 120.13C47.2961 120.158 47.2873 120.187 47.2886 120.217L47.0003 125.769C46.9984 125.798 47.0058 125.828 47.0221 125.855C47.0383 125.883 47.0631 125.908 47.0951 125.929C47.127 125.951 47.1654 125.968 47.208 125.98C47.2506 125.992 47.2967 125.999 47.3435 126H47.3576Z" fill="url(#paint13_linear_1_206)"/>
<path id="Vector_33" d="M46.3023 126C46.2607 125.999 46.2198 125.992 46.1821 125.979C46.1443 125.967 46.1104 125.949 46.0823 125.928C46.0543 125.906 46.0326 125.881 46.0185 125.853C46.0044 125.825 45.9983 125.796 46.0004 125.767C46.1265 123.901 46.3654 120.343 46.3693 120.222C46.3693 120.163 46.4026 120.107 46.4617 120.065C46.5208 120.023 46.601 120 46.6847 120C46.7683 120 46.8485 120.023 46.9076 120.065C46.9668 120.107 47 120.163 47 120.222C47 120.315 46.6918 124.872 46.6303 125.786C46.6268 125.843 46.5921 125.897 46.5333 125.937C46.4746 125.976 46.3963 125.998 46.3149 125.998L46.3023 126Z" fill="url(#paint14_linear_1_206)"/>
<path id="Vector_34" d="M44.4295 126C44.5402 126 44.6467 125.958 44.7262 125.882C44.8057 125.806 44.8521 125.703 44.8554 125.594C45.0364 120.527 45.0044 120.412 44.9837 120.337C44.9612 120.227 44.8956 120.132 44.8013 120.07C44.7069 120.008 44.5915 119.986 44.4806 120.008C44.3696 120.03 44.2721 120.095 44.2095 120.188C44.1469 120.28 44.1243 120.394 44.1468 120.503C44.1601 120.808 44.0648 123.756 44.0003 125.564C43.9981 125.619 44.007 125.674 44.0265 125.726C44.0461 125.778 44.0759 125.826 44.1143 125.866C44.1526 125.907 44.1988 125.939 44.2501 125.962C44.3013 125.985 44.3567 125.998 44.413 125.999L44.4295 126Z" fill="url(#paint15_linear_1_206)"/>
<path id="Vector_35" d="M43.3166 126C43.3987 126 43.4776 125.977 43.5362 125.935C43.5948 125.894 43.6284 125.837 43.6299 125.778C43.6902 123.856 43.8312 120.717 43.9573 120.339C43.9931 120.295 44.007 120.243 43.9967 120.193C43.9863 120.142 43.9523 120.095 43.9003 120.061C43.8482 120.026 43.7813 120.005 43.7103 120.001C43.6394 119.997 43.5688 120.01 43.51 120.039C43.3385 120.12 43.1748 120.197 43.0001 125.768C42.9989 125.797 43.0059 125.827 43.0207 125.855C43.0356 125.883 43.058 125.908 43.0866 125.93C43.1152 125.952 43.1495 125.969 43.1875 125.981C43.2255 125.993 43.2665 125.999 43.308 126H43.3166Z" fill="url(#paint16_linear_1_206)"/>
<path id="Vector_36" d="M49.3747 126C49.4709 126 49.5635 125.96 49.6331 125.889C49.7028 125.817 49.7442 125.719 49.7488 125.616L49.9995 120.426C50.0046 120.319 49.97 120.214 49.9033 120.134C49.8365 120.054 49.7432 120.006 49.6436 120C49.5442 119.996 49.4472 120.034 49.3734 120.106C49.2995 120.177 49.2547 120.277 49.2484 120.384L49.0005 125.574C48.9954 125.681 49.03 125.786 49.0967 125.866C49.1635 125.946 49.2568 125.994 49.3564 126H49.3747Z" fill="url(#paint17_linear_1_206)"/>
<path id="Vector_37" d="M45 108.168V91.1161C45.0006 90.04 44.575 89.007 43.8155 88.2417C43.0561 87.4765 42.0242 87.0406 40.944 87.0289C34.1949 86.9555 20.2758 86.9516 8.88636 87.906C8.13514 87.9697 7.43342 88.3055 6.91401 88.8499C6.39461 89.3943 6.09357 90.1095 6.06788 90.8601L5.00256 107.345C4.98376 107.863 5.06868 108.38 5.25236 108.864C5.43604 109.349 5.7148 109.793 6.07239 110.169C6.42997 110.546 6.85921 110.847 7.33507 111.057C7.81093 111.266 8.32388 111.379 8.84399 111.389L41.0799 111.999C41.5911 112.009 42.0992 111.917 42.5744 111.729C43.0496 111.541 43.4823 111.26 43.8473 110.903C44.2123 110.546 44.5022 110.121 44.7002 109.651C44.8981 109.181 45 108.677 45 108.168Z" fill="#2EE8AE"/>
<path id="Vector_38" d="M40.9907 93.1513C41.019 94.4525 40.9768 96.5166 40.9427 97.8502C40.9382 98.014 40.8966 98.1752 40.8208 98.3234C40.7449 98.4717 40.6363 98.6037 40.502 98.7111C40.3677 98.8186 40.2105 98.899 40.0406 98.9474C39.8706 98.9958 39.6916 99.011 39.5149 98.9921L34.1296 98.4111C33.9595 98.3925 33.7951 98.3426 33.6463 98.2644C33.4974 98.1862 33.3671 98.0813 33.2631 97.9559C33.1591 97.8305 33.0834 97.6871 33.0406 97.5343C32.9978 97.3815 32.9887 97.2223 33.0139 97.0661L33.675 93.0033C33.7208 92.7244 33.8735 92.4699 34.1055 92.2858C34.3375 92.1017 34.6334 92.0004 34.9395 92H39.7123C40.0465 91.9995 40.3677 92.1199 40.6067 92.3351C40.8457 92.5504 40.9836 92.8434 40.9907 93.1513Z" fill="white"/>
<path id="Vector_39" opacity="0.37" d="M27.0295 101.495L22.2059 101.994C22.0473 102.01 21.8869 101.993 21.736 101.944C21.585 101.894 21.4473 101.814 21.3325 101.708C21.2178 101.601 21.1287 101.472 21.0718 101.33C21.0148 101.187 20.9913 101.034 21.0029 100.882L22.0593 87.1377C24.0809 87.0763 26.0757 87.0313 28 87V100.46C27.9996 100.717 27.9004 100.964 27.7213 101.155C27.5422 101.346 27.2959 101.467 27.0295 101.495Z" fill="white"/>
<path id="Vector_40" d="M25.1418 99.5437C25.1338 99.6669 25.0703 99.7829 24.9646 99.8677C24.8588 99.9526 24.7187 99.9999 24.5731 100H24.5395C24.4645 99.9967 24.391 99.9809 24.3233 99.9535C24.2556 99.926 24.195 99.8875 24.1449 99.8401C24.0949 99.7927 24.0564 99.7373 24.0317 99.6773C24.007 99.6172 23.9965 99.5536 24.001 99.4901L24.8558 87.0222L26 87L25.1418 99.5437Z" fill="white"/>
<path id="Vector_41" d="M38.2798 97C38.3518 97.0001 38.4211 96.9854 38.4736 96.9589C38.526 96.9325 38.5577 96.8963 38.562 96.8577L38.9993 93.1616C39.0019 93.1417 38.9971 93.1217 38.9852 93.1028C38.9733 93.0839 38.9545 93.0665 38.9299 93.0515C38.9053 93.0365 38.8755 93.0243 38.842 93.0156C38.8086 93.0068 38.7723 93.0017 38.7351 93.0006C38.6979 92.9988 38.6604 93.0011 38.6248 93.0074C38.5893 93.0136 38.5565 93.0237 38.5284 93.0369C38.5004 93.0502 38.4776 93.0664 38.4615 93.0845C38.4455 93.1026 38.4364 93.1223 38.4349 93.1423L38.0006 96.8389C37.9982 96.8588 38.0031 96.8788 38.015 96.8977C38.027 96.9165 38.0458 96.9339 38.0704 96.9489C38.0949 96.9639 38.1247 96.9761 38.1581 96.9849C38.1914 96.9936 38.2277 96.9988 38.2648 97H38.2798Z" fill="url(#paint18_linear_1_206)"/>
<path id="Vector_42" d="M37.3004 97C37.259 96.9991 37.2183 96.9944 37.1808 96.9861C37.1433 96.9777 37.1096 96.966 37.0817 96.9515C37.0539 96.937 37.0323 96.9201 37.0184 96.9016C37.0044 96.8832 36.9983 96.8636 37.0004 96.8441C37.1258 95.5982 37.3642 93.2216 37.3676 93.1407C37.3724 93.1026 37.4078 93.0669 37.4665 93.0407C37.5253 93.0146 37.603 93 37.6838 93C37.7645 93 37.8422 93.0146 37.901 93.0407C37.9598 93.0669 37.9952 93.1026 38 93.1407C38 93.2025 37.6922 96.2473 37.6306 96.8573C37.6269 96.8956 37.592 96.9318 37.5332 96.9583C37.4744 96.9848 37.3962 96.9995 37.315 96.9995L37.3004 97Z" fill="url(#paint19_linear_1_206)"/>
<path id="Vector_43" d="M36.4256 97C36.5368 97 36.6436 96.9716 36.7235 96.9207C36.8035 96.8699 36.8502 96.8005 36.854 96.7273C37.0355 93.3254 37.0059 93.2493 36.9823 93.1988C36.951 93.132 36.883 93.0752 36.7917 93.0395C36.7003 93.0038 36.5921 92.9917 36.488 93.0056C36.3839 93.0195 36.2913 93.0584 36.2283 93.1147C36.1653 93.171 36.1362 93.2408 36.1468 93.3104C36.1605 93.515 36.0648 95.4936 36.0003 96.7078C35.9964 96.7826 36.0377 96.8554 36.1151 96.9102C36.1926 96.965 36.2999 96.9973 36.4134 97H36.4256Z" fill="url(#paint20_linear_1_206)"/>
<path id="Vector_44" d="M35.3151 97C35.3978 97 35.4772 96.9845 35.5363 96.9569C35.5954 96.9293 35.6295 96.8916 35.6313 96.8521C35.6918 95.5705 35.8331 93.4767 35.9597 93.2249C35.9943 93.1954 36.0071 93.1612 35.9962 93.1278C35.9854 93.0945 35.9514 93.0638 35.8998 93.0407C35.8481 93.0177 35.7818 93.0035 35.7114 93.0006C35.641 92.9976 35.5705 93.006 35.5113 93.0245C35.3387 93.0781 35.175 93.1316 35.0001 96.8452C34.9991 96.865 35.0062 96.8848 35.0211 96.9033C35.0361 96.9218 35.0585 96.9387 35.0871 96.9531C35.1158 96.9675 35.15 96.979 35.188 96.9871C35.226 96.9951 35.2669 96.9995 35.3084 97H35.3151Z" fill="url(#paint21_linear_1_206)"/>
<path id="Vector_45" d="M39.3757 98C39.4717 97.9998 39.564 97.9664 39.6336 97.9066C39.7031 97.8469 39.7446 97.7653 39.7496 97.6788L39.9999 93.3458C40.002 93.2578 39.966 93.1725 39.8996 93.108C39.8331 93.0436 39.7415 93.005 39.6441 93.0004C39.5466 92.9959 39.4511 93.0258 39.3777 93.0838C39.3043 93.1418 39.2588 93.2233 39.2508 93.3111L39.0005 97.644C38.9954 97.7337 39.03 97.8214 39.0966 97.8881C39.1632 97.9547 39.2564 97.9948 39.3558 97.9994L39.3757 98Z" fill="url(#paint22_linear_1_206)"/>
</g>
<defs>
<linearGradient id="paint0_linear_1_206" x1="72.6569" y1="87.9622" x2="82.3927" y2="62.3905" gradientUnits="userSpaceOnUse">
<stop stop-color="#FEBBBA"/>
<stop offset="1" stop-color="#FF928E"/>
</linearGradient>
<linearGradient id="paint1_linear_1_206" x1="89.9043" y1="49.4415" x2="63.5922" y2="59.9289" gradientUnits="userSpaceOnUse">
<stop stop-color="#FEBBBA"/>
<stop offset="1" stop-color="#FF928E"/>
</linearGradient>
<linearGradient id="paint2_linear_1_206" x1="88.7435" y1="21.421" x2="77.2914" y2="55.6474" gradientUnits="userSpaceOnUse">
<stop stop-color="#09005D"/>
<stop offset="1" stop-color="#1A0F91"/>
</linearGradient>
<linearGradient id="paint3_linear_1_206" x1="87.1079" y1="45.5089" x2="62.3578" y2="55.9436" gradientUnits="userSpaceOnUse">
<stop stop-color="#FEBBBA"/>
<stop offset="1" stop-color="#FF928E"/>
</linearGradient>
<linearGradient id="paint4_linear_1_206" x1="47.3245" y1="49.3408" x2="68.288" y2="145.127" gradientUnits="userSpaceOnUse">
<stop stop-color="#FF928E"/>
<stop offset="1" stop-color="#FE7062"/>
</linearGradient>
<linearGradient id="paint5_linear_1_206" x1="54.2465" y1="104.997" x2="68.0534" y2="141.416" gradientUnits="userSpaceOnUse">
<stop stop-color="#FEBBBA"/>
<stop offset="1" stop-color="#FF928E"/>
</linearGradient>
<linearGradient id="paint6_linear_1_206" x1="72.3553" y1="97.5212" x2="86.1438" y2="135.058" gradientUnits="userSpaceOnUse">
<stop stop-color="#FEBBBA"/>
<stop offset="1" stop-color="#FF928E"/>
</linearGradient>
<linearGradient id="paint7_linear_1_206" x1="75.7669" y1="61.1459" x2="84.7708" y2="53.2766" gradientUnits="userSpaceOnUse">
<stop stop-color="#4F52FF"/>
<stop offset="1" stop-color="#4042E2"/>
</linearGradient>
<linearGradient id="paint8_linear_1_206" x1="84.9984" y1="58.4998" x2="87.9984" y2="58.4998" gradientUnits="userSpaceOnUse">
<stop stop-color="#4F52FF"/>
<stop offset="1" stop-color="#4042E2"/>
</linearGradient>
<linearGradient id="paint9_linear_1_206" x1="101.963" y1="31.4818" x2="36.6733" y2="53.7337" gradientUnits="userSpaceOnUse">
<stop stop-color="#4F52FF"/>
<stop offset="1" stop-color="#4042E2"/>
</linearGradient>
<linearGradient id="paint10_linear_1_206" x1="86.0683" y1="30.1299" x2="74.6134" y2="51.3093" gradientUnits="userSpaceOnUse">
<stop stop-color="#4F52FF"/>
<stop offset="1" stop-color="#4042E2"/>
</linearGradient>
<linearGradient id="paint11_linear_1_206" x1="80.8491" y1="44.4482" x2="91.4151" y2="36.1839" gradientUnits="userSpaceOnUse">
<stop stop-color="#4F52FF"/>
<stop offset="1" stop-color="#4042E2"/>
</linearGradient>
<linearGradient id="paint12_linear_1_206" x1="45.0942" y1="119.003" x2="58.3252" y2="142.821" gradientUnits="userSpaceOnUse">
<stop stop-color="#09005D"/>
<stop offset="1" stop-color="#1A0F91"/>
</linearGradient>
<linearGradient id="paint13_linear_1_206" x1="43.6472" y1="119.482" x2="54.7983" y2="145.274" gradientUnits="userSpaceOnUse">
<stop stop-color="#09005D"/>
<stop offset="1" stop-color="#1A0F91"/>
</linearGradient>
<linearGradient id="paint14_linear_1_206" x1="43.4833" y1="119.909" x2="55.5056" y2="144.691" gradientUnits="userSpaceOnUse">
<stop stop-color="#09005D"/>
<stop offset="1" stop-color="#1A0F91"/>
</linearGradient>
<linearGradient id="paint15_linear_1_206" x1="42.9143" y1="120.747" x2="56.2978" y2="140.528" gradientUnits="userSpaceOnUse">
<stop stop-color="#09005D"/>
<stop offset="1" stop-color="#1A0F91"/>
</linearGradient>
<linearGradient id="paint16_linear_1_206" x1="41.9388" y1="121.366" x2="54.3073" y2="146.317" gradientUnits="userSpaceOnUse">
<stop stop-color="#09005D"/>
<stop offset="1" stop-color="#1A0F91"/>
</linearGradient>
<linearGradient id="paint17_linear_1_206" x1="46.8542" y1="118.857" x2="60.1421" y2="136.772" gradientUnits="userSpaceOnUse">
<stop stop-color="#09005D"/>
<stop offset="1" stop-color="#1A0F91"/>
</linearGradient>
<linearGradient id="paint18_linear_1_206" x1="35.0835" y1="92.3376" x2="41.8314" y2="110.616" gradientUnits="userSpaceOnUse">
<stop stop-color="#09005D"/>
<stop offset="1" stop-color="#1A0F91"/>
</linearGradient>
<linearGradient id="paint19_linear_1_206" x1="34.4897" y1="92.9314" x2="40.5009" y2="111.429" gradientUnits="userSpaceOnUse">
<stop stop-color="#09005D"/>
<stop offset="1" stop-color="#1A0F91"/>
</linearGradient>
<linearGradient id="paint20_linear_1_206" x1="34.908" y1="93.4745" x2="42.1862" y2="109.531" gradientUnits="userSpaceOnUse">
<stop stop-color="#09005D"/>
<stop offset="1" stop-color="#1A0F91"/>
</linearGradient>
<linearGradient id="paint21_linear_1_206" x1="33.9295" y1="93.9096" x2="40.0815" y2="112.615" gradientUnits="userSpaceOnUse">
<stop stop-color="#09005D"/>
<stop offset="1" stop-color="#1A0F91"/>
</linearGradient>
<linearGradient id="paint22_linear_1_206" x1="36.8615" y1="92.0358" x2="47.2533" y2="108.768" gradientUnits="userSpaceOnUse">
<stop stop-color="#09005D"/>
<stop offset="1" stop-color="#1A0F91"/>
</linearGradient>
</defs>
</svg>
