<svg width="5" height="4" viewBox="0 0 5 4" fill="none" xmlns="http://www.w3.org/2000/svg">
<path id="Vector" d="M3.52909 0.964607C2.66131 0.764997 2.08099 0.113292 1.96059 0C1.96059 0 1.59069 0.0248163 2.02024 0.809228C2.05712 0.875046 2.1363 1.04337 2.19705 1.16205C2.20243 1.1733 2.20493 1.1857 2.20433 1.19814C2.20373 1.21058 2.20004 1.22268 2.19359 1.23336C2.18715 1.24404 2.17815 1.25298 2.1674 1.25936C2.15665 1.26575 2.14448 1.26938 2.13197 1.26995C1.633 1.30771 1.12968 1.11134 0.166451 1.31095C0.0341151 1.33901 -0.00493813 1.65515 0.000485485 1.79002C0.00916326 2.01876 -0.007106 2.27448 0.259736 2.62515C0.414851 2.82799 0.847662 3.04702 1.81198 3.43329C2.17862 3.58111 3.22971 3.46998 4.21356 3.13334L4.99998 2.7708L4.75592 1.31743L4.55849 1.35843C4.24501 1.42533 3.85668 1.04229 3.52909 0.964607Z" fill="#FFB27D"/>
</svg>
