<svg width="23" height="25" viewBox="0 0 23 25" fill="none" xmlns="http://www.w3.org/2000/svg">
<g id="Group 16">
<path id="Vector" fill-rule="evenodd" clip-rule="evenodd" d="M17.5544 18.4738L16.2084 19.7642L17.7029 21.333L18.3435 22.0014C19.0397 22.7348 19.8195 23.5424 20.5157 24.2572C20.5807 24.3314 20.9706 24.2572 21.444 23.8673C21.623 23.686 21.7649 23.4716 21.8617 23.2361C21.8883 23.1483 21.8883 23.0546 21.8617 22.9668L18.3435 19.2815L17.7029 18.6131L17.5544 18.446V18.4738ZM10.0723 6.47086C9.97658 6.46099 9.88015 6.46099 9.78448 6.47086C8.86155 6.51271 7.96421 6.78733 7.17594 7.26919C6.42635 7.74186 5.79199 8.37622 5.31933 9.1258C5.31933 9.19079 5.24508 9.26504 5.21723 9.32074C5.1004 9.51727 4.998 9.72204 4.91087 9.93343C4.81129 10.1543 4.73356 10.3844 4.6788 10.6204C4.6076 10.851 4.55484 11.0869 4.521 11.3259C4.521 11.5023 4.52099 11.6601 4.47457 11.8272C4.42815 11.9943 4.47457 12.0314 4.47457 12.1335C4.46537 12.2881 4.46537 12.4431 4.47457 12.5977C4.48902 12.8444 4.52319 13.0897 4.5767 13.331C4.58111 13.3804 4.58111 13.4301 4.5767 13.4796C4.66177 13.8261 4.77669 14.1647 4.92017 14.4914C5.05197 14.7713 5.20399 15.0412 5.37503 15.299C5.89166 16.074 6.58948 16.7113 7.40802 17.1556C8.22199 17.596 9.13288 17.8266 10.0583 17.8266C10.9838 17.8266 11.8947 17.596 12.7087 17.1556C13.5312 16.7098 14.2347 16.0731 14.7602 15.299C14.853 15.1598 14.918 15.0298 15.0108 14.8813C15.7066 13.5967 15.8817 12.0937 15.4998 10.6836C15.1178 9.27347 14.2082 8.06424 12.9593 7.30633L12.6251 7.10211L12.2166 6.92573C12.1688 6.90296 12.1191 6.88432 12.0681 6.87003C11.5246 6.66006 10.9512 6.53784 10.3693 6.50798C10.2674 6.49875 10.1649 6.49875 10.063 6.50798L10.0723 6.47086ZM10.0723 5.84889C11.0389 5.85115 11.992 6.07671 12.8572 6.50798C13.2986 6.72344 13.7105 6.99488 14.0825 7.3156C14.7975 7.9039 15.3725 8.64398 15.7659 9.48213C16.1593 10.3203 16.3612 11.2355 16.3569 12.1614C16.3664 13.4711 15.9565 14.7495 15.1872 15.8096L16.6447 17.332C16.6612 17.3484 16.6744 17.3679 16.6833 17.3894C16.6923 17.411 16.6969 17.434 16.6969 17.4574C16.6969 17.4807 16.6923 17.5037 16.6833 17.5252C16.6744 17.5467 16.6612 17.5663 16.6447 17.5827L15.2894 18.873C15.2586 18.8784 15.2272 18.8784 15.1965 18.873C15.1494 18.8648 15.1049 18.8458 15.0665 18.8173L14.2125 17.9354L13.6277 17.3506C13.2873 17.578 12.9269 17.7738 12.5508 17.9354C11.7696 18.2723 10.9277 18.4461 10.0769 18.4461C9.22608 18.4461 8.38425 18.2723 7.60298 17.9354C7.11701 17.7283 6.66112 17.4566 6.24764 17.1278C5.58703 16.6268 5.03712 15.9948 4.63239 15.2712C4.48387 15.002 4.35391 14.7421 4.23323 14.4636C3.99799 13.8703 3.85703 13.2438 3.81548 12.607C3.80624 12.4524 3.80624 12.2974 3.81548 12.1428C3.81548 12.0314 3.81548 11.9293 3.81548 11.8272C3.84632 11.1924 3.9747 10.5662 4.19609 9.97057C4.30163 9.69784 4.42249 9.43129 4.55811 9.17221C4.94902 8.46628 5.46487 7.83721 6.08055 7.3156C6.45447 6.99283 6.86964 6.72125 7.31518 6.50798C8.17964 6.07479 9.13318 5.84913 10.1001 5.84889H10.0723ZM0.6314 0.650371V23.7838H17.6844V22.2428C16.8303 21.3145 15.9763 20.4326 15.5214 19.9591C15.4911 19.9305 15.4669 19.896 15.4504 19.8577C15.4339 19.8194 15.4253 19.7781 15.4253 19.7363C15.4253 19.6946 15.4339 19.6533 15.4504 19.615C15.4669 19.5767 15.4911 19.5422 15.5214 19.5135L15.7535 19.2908C15.9577 19.0865 16.3662 18.6874 17.1738 17.9262C17.2217 17.869 17.2744 17.8162 17.3316 17.7683C17.3972 17.7148 17.4791 17.6854 17.5637 17.6848C17.6033 17.675 17.6447 17.675 17.6844 17.6848V0.650371H0.6314ZM0.306487 0.000573742H18.0093C18.0511 -0.000713241 18.0927 0.00655653 18.1316 0.0219626C18.1704 0.0373687 18.2058 0.0605832 18.2353 0.0901521C18.2649 0.119721 18.2881 0.15502 18.3035 0.193895C18.3189 0.23277 18.3262 0.274397 18.3249 0.316194V18.3532L22.298 22.5398C22.4038 22.6675 22.4705 22.823 22.4903 22.9876C22.51 23.1522 22.482 23.319 22.4094 23.4681C22.2905 23.8194 22.0901 24.1375 21.8246 24.3964C21.4927 24.7413 21.048 24.9555 20.5714 24.9998C20.4684 25.0018 20.366 24.9831 20.2703 24.9449C20.1747 24.9066 20.0876 24.8495 20.0144 24.7771C20.0144 24.7771 19.2625 23.9694 18.3249 22.9947V24.1644C18.3262 24.2062 18.3189 24.2478 18.3035 24.2866C18.2881 24.3255 18.2649 24.3608 18.2353 24.3904C18.2058 24.42 18.1704 24.4432 18.1316 24.4586C18.0927 24.474 18.0511 24.4813 18.0093 24.48H0.325043C0.282486 24.4826 0.239863 24.4763 0.199883 24.4615C0.159903 24.4466 0.123464 24.4237 0.0928817 24.3939C0.0622993 24.3642 0.0382515 24.3285 0.0222842 24.2889C0.00631686 24.2494 -0.00121299 24.207 0.000158753 24.1644V0.316194C-0.00121299 0.27358 0.00631686 0.231134 0.0222842 0.1916C0.0382515 0.152067 0.0622993 0.116319 0.0928817 0.0866109C0.123464 0.0569023 0.159903 0.033888 0.199883 0.019073C0.239863 0.00425803 0.282486 -0.00203237 0.325043 0.000573742H0.306487Z" fill="black"/>
<path id="Vector_2" fill-rule="evenodd" clip-rule="evenodd" d="M3.75052 19.6806H14.7138C14.7673 19.678 14.8209 19.6865 14.871 19.7056C14.9211 19.7246 14.9667 19.7538 15.005 19.7912C15.0433 19.8287 15.0735 19.8736 15.0937 19.9233C15.1139 19.9729 15.1236 20.0262 15.1223 20.0798C15.1235 20.1342 15.1139 20.1883 15.0939 20.239C15.0739 20.2896 15.044 20.3357 15.006 20.3746C14.9679 20.4136 14.9225 20.4445 14.8723 20.4656C14.8221 20.4867 14.7682 20.4975 14.7138 20.4975H3.75052C3.6421 20.4928 3.53955 20.447 3.46368 20.3694C3.38782 20.2919 3.34432 20.1883 3.34207 20.0798C3.34449 19.9731 3.38859 19.8716 3.46493 19.797C3.54127 19.7224 3.64378 19.6806 3.75052 19.6806ZM3.75052 17.0257H5.38435C5.6948 17.3334 6.03711 17.6073 6.40549 17.8426H3.75052C3.64378 17.8426 3.54127 17.8008 3.46493 17.7262C3.38859 17.6516 3.34449 17.5501 3.34207 17.4434C3.34432 17.3349 3.38782 17.2313 3.46368 17.1538C3.53955 17.0762 3.6421 17.0304 3.75052 17.0257ZM5.94134 14.7606H14.3703C14.2682 14.9091 14.1661 15.0577 14.064 15.1876C13.8881 15.4092 13.6924 15.6143 13.4792 15.8003H6.82321C6.61338 15.6166 6.42358 15.4112 6.25696 15.1876C6.13839 15.0557 6.0327 14.9127 5.94134 14.7606ZM3.65771 14.4078C3.74932 14.6758 3.86103 14.9365 3.99189 15.1876H3.75981C3.65132 15.1854 3.54776 15.1419 3.47017 15.066C3.39258 14.9902 3.34676 14.8876 3.34207 14.7792C3.34628 14.6911 3.37956 14.6069 3.43666 14.5397C3.49375 14.4726 3.57148 14.4262 3.65771 14.4078ZM5.13372 12.4027H15.1316C15.1159 12.7522 15.0566 13.0983 14.9552 13.4331H5.3008C5.28657 13.364 5.26797 13.2957 5.24511 13.2289C5.19869 13.034 5.16156 12.8204 5.12442 12.5976V12.5327C5.12442 12.4863 5.12442 12.4398 5.12442 12.4027H5.13372ZM5.55144 10.0634H14.7509C14.8997 10.3968 15.0118 10.7454 15.0852 11.1031H5.22652C5.29674 10.7457 5.40569 10.3971 5.55144 10.0634ZM3.74126 9.07009H3.89905L3.84336 9.18148C3.75981 9.40427 3.67625 9.60851 3.60199 9.83131C3.53105 9.80078 3.47049 9.75032 3.42765 9.68606C3.38481 9.6218 3.36154 9.54648 3.36065 9.46925C3.36054 9.3616 3.40198 9.25809 3.47635 9.18026C3.55072 9.10243 3.65227 9.05632 3.75981 9.05153L3.74126 9.07009ZM7.59372 7.77973H12.7087C13.0797 7.98892 13.4202 8.2482 13.7205 8.55024C13.7205 8.55024 13.7205 8.59666 13.7855 8.61523C13.8458 8.68477 13.9109 8.74991 13.9805 8.81016H6.3405C6.3962 8.75446 6.45191 8.68021 6.52618 8.61523C6.65561 8.48133 6.79195 8.35429 6.93463 8.23462C7.14313 8.06738 7.36339 7.91534 7.59372 7.77973ZM14.1476 6.45226H14.7138C14.7661 6.44842 14.8186 6.45542 14.868 6.47283C14.9175 6.49023 14.9628 6.51766 15.0011 6.5534C15.0395 6.58913 15.07 6.63239 15.0909 6.68048C15.1117 6.72857 15.1224 6.78045 15.1223 6.83287C15.1145 6.94391 15.0686 7.04886 14.9923 7.12993C14.7976 6.93841 14.5864 6.76446 14.3611 6.61008C14.2951 6.5508 14.2236 6.49794 14.1476 6.45226ZM3.75052 6.45226H6.17341C6.09367 6.49301 6.01889 6.54285 5.9506 6.60079C5.7417 6.744 5.546 6.90553 5.36579 7.0835L5.21726 7.22277H3.75052C3.64533 7.22288 3.54416 7.18239 3.46808 7.10976C3.39199 7.03713 3.34685 6.93795 3.34207 6.83287C3.34689 6.72863 3.39235 6.63043 3.4687 6.55929C3.54504 6.48815 3.6462 6.44972 3.75052 6.45226ZM3.75052 3.79732H14.7138C14.7685 3.79315 14.8235 3.80085 14.8749 3.8199C14.9264 3.83895 14.9731 3.8689 15.0119 3.90769C15.0507 3.94649 15.0806 3.99322 15.0997 4.04466C15.1187 4.09611 15.1264 4.15107 15.1223 4.20578C15.1236 4.25935 15.1139 4.31262 15.0937 4.36227C15.0735 4.41192 15.0433 4.45688 15.005 4.49434C14.9667 4.5318 14.9211 4.56095 14.871 4.57998C14.8209 4.59901 14.7673 4.60751 14.7138 4.60494H3.75052C3.64378 4.60497 3.54127 4.56322 3.46493 4.48862C3.38859 4.41401 3.34449 4.31249 3.34207 4.20578C3.34079 4.15179 3.35052 4.09811 3.37059 4.04798C3.39067 3.99785 3.42068 3.95231 3.45887 3.91412C3.49705 3.87594 3.5426 3.8459 3.59273 3.82582C3.64286 3.80574 3.69654 3.79605 3.75052 3.79732Z" fill="black"/>
</g>
</svg>
