<svg width="181" height="149" viewBox="0 0 181 149" fill="none" xmlns="http://www.w3.org/2000/svg">
<g id="Group 28">
<path id="Vector" opacity="0.4" d="M102.911 46.7324L100.026 37.4473C99.984 37.3131 99.8909 37.201 99.7669 37.1358C99.6429 37.0705 99.4981 37.0574 99.3645 37.0993L92.3549 39.2976C92.2445 39.3318 92.126 39.3288 92.0175 39.2888C91.9091 39.2488 91.8167 39.1742 91.7546 39.0763C90.8272 37.6354 89.7275 36.314 88.4801 35.1419C88.3952 35.0629 88.3384 34.9581 88.3184 34.8436C88.2984 34.7291 88.3163 34.6111 88.3693 34.5078L91.7742 27.9812C91.8392 27.8566 91.8522 27.7111 91.8105 27.5768C91.7689 27.4424 91.6758 27.3302 91.5519 27.2647L82.9791 22.749C82.9176 22.7166 82.8504 22.6967 82.7812 22.6904C82.7121 22.6842 82.6425 22.6917 82.5762 22.7125C82.51 22.7333 82.4485 22.767 82.3952 22.8117C82.3419 22.8564 82.298 22.9112 82.2658 22.973L78.8603 29.5003C78.8062 29.6031 78.72 29.6851 78.6149 29.7339C78.5099 29.7826 78.3918 29.7954 78.2789 29.7702C76.6103 29.4101 74.9043 29.2563 73.1986 29.3122C73.0829 29.3168 72.9689 29.283 72.8742 29.216C72.7795 29.149 72.7094 29.0526 72.6747 28.9416L70.4866 21.9007C70.4664 21.8338 70.4331 21.7716 70.3889 21.7177C70.3447 21.6638 70.2903 21.6192 70.2288 21.5865C70.1674 21.5537 70.1001 21.5335 70.0308 21.527C69.9616 21.5204 69.8917 21.5277 69.8253 21.5484L60.5834 24.4506C60.4497 24.4927 60.3382 24.5864 60.2732 24.7111C60.2083 24.8358 60.1952 24.9813 60.237 25.1157L62.425 32.1573C62.459 32.2684 62.4558 32.3876 62.4159 32.4966C62.376 32.6057 62.3016 32.6986 62.2041 32.7611C60.7705 33.6891 59.4558 34.7903 58.2894 36.0403C58.2108 36.1256 58.1064 36.1826 57.9924 36.2026C57.8784 36.2225 57.761 36.2044 57.6582 36.1509L51.1613 32.7294C51.0373 32.6642 50.8926 32.6511 50.759 32.693C50.6254 32.7348 50.5138 32.8283 50.4488 32.9528L45.9513 41.5677C45.9189 41.6294 45.899 41.6968 45.8927 41.7662C45.8864 41.8356 45.8937 41.9056 45.9144 41.9721C45.9351 42.0386 45.9686 42.1003 46.0131 42.1538C46.0575 42.2073 46.1121 42.2514 46.1736 42.2836L52.6775 45.7135C52.7798 45.7682 52.8614 45.8551 52.9098 45.9609C52.9582 46.0666 52.9707 46.1854 52.9454 46.299C52.5877 47.9744 52.4301 49.6867 52.4763 51.3995C52.4799 51.5151 52.4458 51.6286 52.3792 51.7229C52.3126 51.8171 52.2171 51.8869 52.1074 51.9216L45.0992 54.1199C44.9655 54.1619 44.854 54.2555 44.789 54.3801C44.7241 54.5047 44.711 54.6501 44.7527 54.7844L47.64 64.0757C47.6606 64.1422 47.6941 64.204 47.7385 64.2576C47.7829 64.3111 47.8374 64.3553 47.8988 64.3877C47.9602 64.4201 48.0273 64.44 48.0964 64.4463C48.1655 64.4526 48.2351 64.4452 48.3013 64.4245L55.3095 62.2262C55.4195 62.1919 55.5376 62.1948 55.6457 62.2344C55.7539 62.274 55.8462 62.348 55.9085 62.4453C56.8412 63.8844 57.9421 65.2059 59.1878 66.3818C59.2729 66.4607 59.3297 66.5656 59.3495 66.6803C59.3693 66.7949 59.3509 66.9129 59.2972 67.016L55.8888 73.5453C55.8565 73.607 55.8366 73.6745 55.8302 73.744C55.8239 73.8134 55.8313 73.8834 55.8519 73.95C55.8726 74.0166 55.9061 74.0784 55.9506 74.1319C55.9951 74.1854 56.0496 74.2296 56.1111 74.2619L64.6875 78.7755C64.7489 78.8078 64.816 78.8277 64.8851 78.834C64.9542 78.8402 65.0238 78.8327 65.09 78.8119C65.1562 78.7911 65.2176 78.7574 65.2708 78.7127C65.324 78.668 65.3679 78.6132 65.4 78.5514L68.8049 72.027C68.8592 71.9239 68.9458 71.8417 69.0512 71.793C69.1567 71.7442 69.2751 71.7316 69.3884 71.7571C71.0565 72.1221 72.7629 72.2804 74.4694 72.2285C74.5847 72.2242 74.6983 72.258 74.7927 72.3248C74.8871 72.3917 74.9571 72.4878 74.9918 72.5984L77.1757 79.6273C77.2177 79.7616 77.3109 79.8737 77.4351 79.9389C77.5592 80.0042 77.704 80.0173 77.8378 79.9754L87.0789 77.0767C87.1455 77.0563 87.2074 77.0229 87.2611 76.9783C87.3147 76.9338 87.3591 76.8791 87.3917 76.8173C87.4243 76.7555 87.4444 76.6879 87.4509 76.6182C87.4574 76.5486 87.4501 76.4784 87.4296 76.4116L85.245 69.3834C85.2109 69.2725 85.214 69.1534 85.2537 69.0444C85.2935 68.9355 85.3678 68.8427 85.4652 68.7802C86.8988 67.8468 88.2134 66.7409 89.3799 65.487C89.4584 65.4015 89.5627 65.3443 89.6768 65.3242C89.7908 65.304 89.9083 65.3221 90.0111 65.3757L96.508 68.7971C96.6322 68.8623 96.7771 68.8754 96.9108 68.8334C97.0445 68.7914 97.1562 68.6977 97.2213 68.5731L101.715 59.9595C101.779 59.835 101.793 59.6896 101.751 59.5554C101.709 59.4212 101.616 59.309 101.492 59.2437L95.0037 55.8194C94.9017 55.765 94.8201 55.6785 94.7716 55.5731C94.7231 55.4678 94.7103 55.3494 94.7351 55.236C95.0925 53.5569 95.2451 51.8404 95.1896 50.1242C95.1854 50.0081 95.2192 49.8937 95.2858 49.7986C95.3524 49.7036 95.4482 49.6331 95.5585 49.5979L102.567 47.3996C102.634 47.3785 102.695 47.3445 102.748 47.2996C102.801 47.2546 102.845 47.1996 102.877 47.1376C102.909 47.0756 102.928 47.0079 102.934 46.9384C102.94 46.8688 102.932 46.7988 102.911 46.7324ZM82.3458 55.3367C75.0718 65.4983 61.0659 58.1044 65.2499 46.3336C65.2683 46.2834 65.2933 46.236 65.3243 46.1926C72.5772 36.0368 86.5985 43.4025 82.4201 55.1937C82.402 55.2446 82.377 55.2927 82.3458 55.3367Z" fill="#473ACC"/>
<path id="Vector_2" d="M136.006 16.9503L134.665 12.6347C134.645 12.5723 134.602 12.5203 134.544 12.49C134.487 12.4596 134.419 12.4534 134.357 12.4726L131.1 13.495C131.048 13.511 130.993 13.5096 130.942 13.491C130.891 13.4724 130.848 13.4377 130.819 13.3921C130.388 12.7211 129.877 12.1059 129.297 11.5602C129.258 11.5236 129.231 11.4749 129.222 11.4216C129.213 11.3684 129.221 11.3136 129.246 11.2657L130.829 8.23172C130.859 8.17365 130.865 8.10604 130.845 8.04363C130.826 7.98121 130.783 7.92903 130.725 7.89845L126.74 5.8002C126.682 5.77016 126.615 5.76427 126.553 5.7838C126.491 5.80334 126.439 5.84672 126.409 5.90448L124.826 8.93842C124.801 8.98627 124.761 9.02448 124.712 9.04714C124.663 9.06981 124.608 9.07568 124.556 9.06384C123.78 8.89696 122.987 8.82597 122.195 8.85246C122.141 8.85444 122.088 8.83872 122.044 8.80769C122 8.77665 121.967 8.73201 121.951 8.68054L120.934 5.40774C120.925 5.3768 120.909 5.34804 120.888 5.32313C120.868 5.29822 120.842 5.27765 120.814 5.26259C120.785 5.24753 120.754 5.23829 120.722 5.23539C120.69 5.23249 120.658 5.23599 120.627 5.24569L116.329 6.59427C116.298 6.60382 116.27 6.6194 116.245 6.6401C116.22 6.6608 116.2 6.68622 116.185 6.7149C116.17 6.74357 116.161 6.77494 116.158 6.8072C116.155 6.83946 116.158 6.87197 116.168 6.90287L117.185 10.1764C117.201 10.2281 117.2 10.2838 117.181 10.3348C117.163 10.3858 117.128 10.4292 117.082 10.4582C116.415 10.8894 115.803 11.4013 115.259 11.9822C115.223 12.022 115.174 12.0485 115.121 12.0578C115.068 12.0671 115.014 12.0586 114.966 12.0337L111.946 10.4434C111.917 10.4283 111.886 10.4191 111.854 10.4162C111.822 10.4132 111.789 10.4167 111.759 10.4264C111.728 10.4361 111.699 10.4518 111.674 10.4726C111.65 10.4934 111.629 10.5189 111.614 10.5477L109.524 14.5511C109.509 14.5799 109.5 14.6113 109.497 14.6436C109.494 14.6759 109.498 14.7085 109.507 14.7394C109.517 14.7704 109.533 14.7991 109.553 14.824C109.574 14.8489 109.6 14.8694 109.628 14.8844L112.651 16.4789C112.698 16.5041 112.736 16.5444 112.759 16.5934C112.781 16.6424 112.787 16.6974 112.776 16.7502C112.609 17.5289 112.536 18.3249 112.558 19.1211C112.559 19.1749 112.543 19.2277 112.512 19.2716C112.481 19.3154 112.437 19.3479 112.386 19.3642L109.129 20.3858C109.098 20.3954 109.069 20.4109 109.045 20.4317C109.02 20.4524 108.999 20.4778 108.984 20.5064C108.969 20.5351 108.96 20.5665 108.957 20.5987C108.954 20.631 108.958 20.6635 108.968 20.6944L110.31 25.0135C110.319 25.0444 110.335 25.0731 110.356 25.0979C110.376 25.1228 110.402 25.1433 110.43 25.1582C110.459 25.1732 110.49 25.1824 110.522 25.1853C110.554 25.1881 110.586 25.1846 110.617 25.1749L113.875 24.1532C113.926 24.1372 113.981 24.1385 114.032 24.1569C114.083 24.1754 114.126 24.2099 114.155 24.2554C114.588 24.9253 115.1 25.5404 115.679 26.0873C115.719 26.124 115.745 26.1728 115.754 26.226C115.763 26.2792 115.755 26.334 115.73 26.3818L114.145 29.4165C114.115 29.4745 114.109 29.5422 114.129 29.6047C114.148 29.6671 114.191 29.7193 114.249 29.7497L118.235 31.8473C118.264 31.8624 118.295 31.8717 118.327 31.8746C118.359 31.8776 118.392 31.8742 118.422 31.8645C118.453 31.8549 118.482 31.8393 118.506 31.8186C118.531 31.7978 118.551 31.7724 118.566 31.7437L120.149 28.7098C120.174 28.6619 120.215 28.6237 120.263 28.6011C120.312 28.5784 120.367 28.5725 120.42 28.5844C121.195 28.7542 121.989 28.8278 122.782 28.8035C122.836 28.8016 122.888 28.8174 122.932 28.8484C122.976 28.8795 123.008 28.9241 123.025 28.9754L124.044 32.2383C124.063 32.3006 124.106 32.3526 124.164 32.383C124.222 32.4133 124.289 32.4196 124.351 32.4004L128.646 31.0532C128.708 31.0335 128.76 30.9899 128.79 30.9319C128.821 30.874 128.827 30.8064 128.808 30.7439L127.792 27.4768C127.776 27.425 127.777 27.3694 127.796 27.3185C127.814 27.2675 127.849 27.2241 127.895 27.1949C128.561 26.7615 129.173 26.2478 129.715 25.6653C129.752 25.6254 129.8 25.5988 129.853 25.5895C129.906 25.5802 129.961 25.5887 130.008 25.6138L133.028 27.2034C133.057 27.2185 133.088 27.2278 133.12 27.2308C133.152 27.2337 133.185 27.2303 133.215 27.2207C133.246 27.2111 133.275 27.1954 133.3 27.1747C133.324 27.154 133.345 27.1285 133.36 27.0998L135.448 23.0964C135.478 23.0383 135.484 22.9706 135.465 22.9082C135.446 22.8457 135.402 22.7935 135.345 22.7631L132.329 21.1714C132.281 21.1464 132.243 21.1063 132.221 21.0574C132.198 21.0085 132.192 20.9535 132.204 20.9009C132.37 20.1204 132.44 19.3226 132.414 18.525C132.412 18.471 132.428 18.4178 132.459 18.3736C132.49 18.3295 132.534 18.2967 132.586 18.2805L135.843 17.2582C135.905 17.2388 135.957 17.1956 135.988 17.1379C136.018 17.0802 136.025 17.0128 136.006 16.9503ZM126.447 20.9495C123.066 25.6702 116.559 22.2361 118.501 16.765C118.509 16.7415 118.521 16.7195 118.536 16.6994C121.907 11.9787 128.424 15.403 126.481 20.8833C126.473 20.9068 126.461 20.929 126.447 20.9495Z" fill="#1C1867"/>
<path id="Vector_3" d="M122.351 38.1864L122.344 37.9046C122.806 37.894 123.272 37.863 123.732 37.8144L123.761 38.0962C123.295 38.1448 122.82 38.1751 122.351 38.1864ZM120.938 38.1617C120.47 38.135 119.997 38.0913 119.535 38.0257L119.573 37.7439C120.03 37.8073 120.496 37.8524 120.956 37.8785L120.938 38.1617ZM125.159 37.8876L125.107 37.6107C125.557 37.5255 126.013 37.4198 126.463 37.2979L126.533 37.5699C126.077 37.6939 125.616 37.801 125.159 37.8876ZM118.143 37.7784C117.688 37.6798 117.231 37.5614 116.775 37.4261L116.854 37.1556C117.302 37.2888 117.755 37.405 118.202 37.5022L118.143 37.7784ZM127.885 37.15L127.791 36.8843C128.223 36.7314 128.66 36.5595 129.088 36.3735L129.199 36.6321C128.765 36.8188 128.322 36.9928 127.885 37.15ZM115.438 36.9787C115.007 36.8167 114.568 36.6356 114.133 36.4397L114.248 36.1826C114.677 36.3756 115.11 36.5553 115.536 36.7145L115.438 36.9787ZM130.475 36.0226L130.348 35.7718C130.753 35.5604 131.164 35.3363 131.569 35.0968L131.71 35.3399C131.301 35.5851 130.886 35.8148 130.475 36.0226ZM112.864 35.8169C112.459 35.6055 112.043 35.3744 111.63 35.1306L111.77 34.8875C112.179 35.1292 112.59 35.3575 112.991 35.5668L112.864 35.8169ZM132.907 34.5874L132.751 34.3527C133.128 34.1005 133.513 33.8292 133.893 33.5474L134.06 33.7736C133.676 34.0618 133.288 34.3351 132.907 34.5902V34.5874ZM110.43 34.3866C110.05 34.1379 109.659 33.8708 109.263 33.5925L109.426 33.3628C109.815 33.6383 110.205 33.9032 110.583 34.1498L110.43 34.3866ZM135.172 32.9069L134.995 32.6885C135.346 32.3982 135.708 32.0924 136.058 31.7796L136.245 31.991C135.891 32.3066 135.53 32.6152 135.172 32.9076V32.9069ZM108.124 32.7618C107.765 32.4898 107.391 32.1981 107.012 31.8952L107.187 31.6746C107.553 31.9673 107.921 32.2545 108.293 32.5363L108.124 32.7618ZM137.277 31.0313L137.084 30.8277C137.413 30.5099 137.747 30.1767 138.075 29.8371L138.28 30.0336C137.948 30.3754 137.612 30.7115 137.279 31.0313H137.277ZM105.922 31.0024C105.562 30.7018 105.204 30.3965 104.849 30.0865L105.032 29.8751C105.386 30.1809 105.742 30.4841 106.101 30.7847L105.922 31.0024ZM103.789 29.1642C103.437 28.8537 103.086 28.5423 102.737 28.2299L102.924 28.0185C103.271 28.33 103.622 28.6411 103.976 28.9521L103.789 29.1642ZM139.238 29.0014L139.028 28.8119C139.252 28.5639 139.472 28.3142 139.689 28.0629L139.9 28.2468C139.686 28.4986 139.466 28.7501 139.24 29.0014H139.238ZM101.694 27.2928C101.343 26.9786 100.994 26.6664 100.646 26.3564L100.831 26.145C101.18 26.4551 101.531 26.7674 101.883 27.0821L101.694 27.2928ZM46.8363 26.1584L46.5972 26.0105C46.8426 25.6088 47.1028 25.2093 47.3686 24.8253L47.5987 24.9867C47.3357 25.3672 47.079 25.7617 46.8363 26.1584ZM99.5917 25.4271C99.2364 25.118 98.8813 24.8127 98.5264 24.5111L98.7074 24.2955C99.0632 24.5961 99.4192 24.9014 99.7755 25.2115L99.5917 25.4271ZM48.4283 23.8615L48.2081 23.6874C48.497 23.3175 48.8014 22.9504 49.1114 22.5975L49.3218 22.7842C49.0146 23.1329 48.7144 23.4958 48.4283 23.8615ZM97.4457 23.6219C97.0817 23.3288 96.7107 23.0385 96.3419 22.7574L96.5116 22.5326C96.8819 22.8145 97.2557 23.1076 97.621 23.4021L97.4457 23.6219ZM95.2155 21.9232C94.8382 21.6512 94.4518 21.3806 94.0675 21.1199L94.2246 20.8867C94.611 21.1488 94.9995 21.4201 95.379 21.6942L95.2155 21.9232ZM50.2742 21.7625L50.075 21.5645C50.4046 21.2306 50.7475 20.9008 51.0954 20.5859L51.2833 20.7972C50.9397 21.1044 50.6003 21.43 50.2742 21.7604V21.7625ZM92.8977 20.3491C92.5043 20.0983 92.1038 19.8503 91.7055 19.6121L91.85 19.3697C92.249 19.6093 92.6523 19.8587 93.0478 20.1117L92.8977 20.3491ZM52.3437 19.8855L52.1677 19.6657C52.5303 19.3719 52.9076 19.083 53.2898 18.8068L53.4539 19.0351C53.0759 19.3063 52.7028 19.5924 52.3437 19.8834V19.8855ZM90.495 18.9089C90.0869 18.68 89.6731 18.4559 89.2642 18.2424L89.394 17.9923C89.8049 18.2072 90.2215 18.4326 90.6318 18.663L90.495 18.9089ZM54.6055 18.2459L54.4533 18.0085C54.8453 17.7555 55.2507 17.5075 55.6581 17.2736L55.7984 17.5174C55.3937 17.7478 54.9933 17.993 54.6055 18.2438V18.2459ZM88.0145 17.6118C87.5937 17.4096 87.1729 17.2109 86.7458 17.0214L86.8594 16.7635C87.2858 16.9544 87.7157 17.1545 88.1358 17.3582L88.0145 17.6118ZM57.025 16.8502L56.898 16.5986C57.3132 16.3872 57.7396 16.1815 58.1695 15.9891L58.2838 16.2463C57.8602 16.4351 57.4359 16.6402 57.025 16.8502ZM85.4603 16.469C85.029 16.2928 84.5907 16.1216 84.1573 15.9603L84.2541 15.696C84.691 15.8581 85.1321 16.0307 85.5655 16.2083L85.4603 16.469ZM59.5707 15.7045L59.469 15.4417C59.9032 15.2712 60.3485 15.1077 60.7924 14.9569L60.8822 15.224C60.4425 15.3733 60.0013 15.5347 59.5707 15.7045ZM82.8381 15.4931C82.3949 15.3445 81.946 15.2035 81.5056 15.0704L81.5842 14.8005C82.0295 14.9323 82.4811 15.0746 82.9272 15.2233L82.8381 15.4931ZM62.214 14.8026L62.1361 14.5328C62.5843 14.4031 63.0422 14.2812 63.4981 14.1706L63.564 14.4454C63.1116 14.5553 62.6579 14.6737 62.214 14.8047V14.8026ZM80.1577 14.6998C79.7068 14.5835 79.246 14.4743 78.7986 14.3749L78.8582 14.1002C79.3126 14.1995 79.7699 14.3115 80.2271 14.4264L80.1577 14.6998ZM64.928 14.146L64.874 13.8698C65.3327 13.7803 65.7998 13.6992 66.2619 13.6295L66.3033 13.9113C65.8454 13.979 65.3825 14.0593 64.928 14.1481V14.146ZM77.4275 14.1016C76.9674 14.0184 76.5032 13.9437 76.048 13.8796L76.0873 13.5978C76.5453 13.6626 77.013 13.7387 77.4773 13.8211L77.4275 14.1016ZM67.6884 13.7288L67.6589 13.447C68.1225 13.3977 68.5952 13.3568 69.0616 13.3265L69.0798 13.6084C68.6169 13.6415 68.1492 13.6816 67.6884 13.731V13.7288ZM74.6615 13.7119C74.1959 13.6654 73.7274 13.6274 73.2687 13.5999L73.2856 13.3181C73.7477 13.3455 74.2204 13.3836 74.6882 13.4308L74.6615 13.7119ZM70.4754 13.5463L70.4684 13.2645C70.9387 13.2537 71.4086 13.2537 71.878 13.2645L71.8724 13.5463C71.4077 13.5379 70.942 13.5379 70.4754 13.5463Z" fill="#473ACC"/>
<path id="Vector_4" d="M4.72192 149L3.11452 137.272L3.25478 137.252C37.8574 132.461 68.5082 124.323 94.355 113.056C117.942 102.779 153.172 73.0838 168.507 58.8181L168.547 58.7814H168.601L180.057 58.6863V100.88L162.356 83.096C144.713 99.5628 123.412 113.298 99.0468 123.918C72.2154 135.614 40.5273 144.046 4.86078 148.981L4.72192 149ZM3.43081 137.515L4.96107 148.686C40.5442 143.754 72.1586 135.332 98.9318 123.662C123.314 113.035 144.621 99.2838 162.26 82.8L162.359 82.707L179.773 100.202V58.9696L168.655 59.0626C153.288 73.353 118.068 103.029 94.4665 113.316C68.6296 124.58 38.0012 132.721 3.43081 137.515V137.515Z" fill="#2EE8AE"/>
<path id="Vector_5" d="M176.642 49.3392H135.124L150.947 65.2354C134.301 80.7214 114.238 93.6302 91.1381 103.7C65.2787 114.973 34.6125 123.116 0 127.905L1.56953 139.353C37.2214 134.421 68.8954 125.99 95.7156 114.301C120.163 103.644 141.422 89.9219 159.085 73.4114L176.642 91.0507V49.3392Z" fill="#2EE8AE"/>
<path id="Vector_6" d="M153.597 6.0073L153.382 7.2516L153.318 7.56514C153.278 8.24225 152.616 8.67768 151.887 9.08704L150.765 6.98033L151.358 4.9462L152.438 4.63125L153.452 5.82904L153.597 6.0073Z" fill="#D28572"/>
<path id="Vector_7" d="M153.597 6.00725L153.382 7.25155C152.68 6.82879 152.283 6.2144 151.992 5.35269L153.449 5.83181L153.597 6.00725Z" fill="#1B1B43"/>
<path id="Vector_8" d="M154.682 3.31858C154.463 4.28598 154.659 5.71417 154.255 6.16933C153.887 6.58715 153.203 6.3335 152.797 6.11297C152.254 5.8085 151.805 5.35969 151.5 4.81583C150.773 3.55532 151.809 2.71546 151.809 2.71546L153.154 2.13136C153.154 2.13136 154.682 3.31577 154.682 3.31858Z" fill="#D28572"/>
<path id="Vector_9" d="M152.76 4.572C152.792 4.03581 152.55 3.55599 152.978 3.26922C154.851 3.99988 154.718 3.77441 155.881 2.47797C155.465 2.50426 155.052 2.38144 154.718 2.13132C154.156 1.70857 152.573 0.432561 151.573 2.44133C151.573 2.44133 149.385 3.12337 151.24 5.35127C151.452 4.90104 152.213 4.76083 152.76 4.572Z" fill="#1B1B43"/>
<path id="Vector_10" d="M152.935 4.42667C152.981 4.14128 152.788 3.87238 152.504 3.82605C152.22 3.77973 151.952 3.97352 151.906 4.25891C151.86 4.5443 152.053 4.81321 152.337 4.85954C152.621 4.90586 152.889 4.71206 152.935 4.42667Z" fill="#D28572"/>
<path id="Vector_11" d="M165.57 2.73378C165.763 3.45245 165.784 4.17818 165.715 4.90672L165.969 7.15294L163.936 6.64211L163.826 5.09203C163.318 4.5805 163.027 3.30167 162.99 3.24742L165.57 2.73378Z" fill="#D28572"/>
<path id="Vector_12" d="M173.365 2.15251L169.949 2.69081L156.402 4.82077L156.211 3.81674L169.583 0.767998L172.954 0L173.365 2.15251Z" fill="#2EE8AE"/>
<path id="Vector_13" d="M173.365 2.15251L169.949 2.69081L169.583 0.767998L172.954 0L173.365 2.15251Z" fill="#1B1B43"/>
<path id="Vector_14" d="M163.933 2.16801C163.933 2.31879 163.738 2.44139 163.497 2.44139C163.257 2.44139 163.061 2.31879 163.061 2.16801C163.061 2.01723 163.256 1.89393 163.497 1.89393C163.739 1.89393 163.933 2.01653 163.933 2.16801Z" fill="#D28572"/>
<path id="Vector_15" d="M164.188 2.18636C164.429 2.18636 164.624 2.06365 164.624 1.91228C164.624 1.7609 164.429 1.63819 164.188 1.63819C163.947 1.63819 163.752 1.7609 163.752 1.91228C163.752 2.06365 163.947 2.18636 164.188 2.18636Z" fill="#D28572"/>
<path id="Vector_16" d="M165.406 1.78398C165.406 1.93546 165.211 2.05806 164.969 2.05806C164.728 2.05806 164.533 1.93546 164.533 1.78398C164.533 1.63249 164.729 1.5099 164.969 1.5099C165.21 1.5099 165.406 1.63249 165.406 1.78398Z" fill="#D28572"/>
<path id="Vector_17" d="M164.225 3.90265C164.225 4.25071 164.464 4.54171 164.188 4.54171C163.912 4.54171 163.642 4.35992 163.642 4.01186C163.642 3.66379 163.284 3.20018 163.534 3.0804C163.915 2.89791 164.225 3.55458 164.225 3.90265Z" fill="#D28572"/>
<path id="Vector_18" d="M163.909 6.30739L165.848 6.0939L165.933 6.83653L163.909 6.30739Z" fill="#1B1B43"/>
<path id="Vector_19" d="M166.601 7.02047C166.601 7.02047 166.601 15.348 161.898 14.7632C161.593 14.7251 161.292 14.6814 160.999 14.6321C159.647 14.3967 158.32 14.0308 157.038 13.5393C156.348 13.2831 155.676 12.9794 155.028 12.6304L153.318 7.5637C156.73 8.42893 159.84 9.40196 162.154 10.6554L163.678 6.23697L166.601 7.02047Z" fill="#FFB147"/>
<path id="Vector_20" d="M161.003 14.6321C159.65 14.3968 158.323 14.0308 157.041 13.5393L157.137 12.1569C159.068 12.6304 160.42 13.7493 161.003 14.6321Z" fill="#1B1B43"/>
<path id="Vector_21" d="M162.225 23.7354L157.877 21.3398L153.318 7.57011C157.649 12.2979 161.267 17.9282 162.225 23.7354Z" fill="#BF8535"/>
<path id="Vector_22" d="M163.48 44.2254L163.019 49.3393H168.517L166.428 46.9282L166.521 43.8604L163.48 44.2254Z" fill="#1B1B43"/>
<path id="Vector_23" d="M166.332 46.8331L165.243 47.8802L165.444 48.0915L166.533 47.0444L166.332 46.8331Z" fill="white"/>
<path id="Vector_24" d="M153.682 22.0916L154.518 26.8398L162.189 30.4923V45.9058L167.714 45.3457L168.071 31.4886C168.095 30.3406 167.836 29.2043 167.315 28.1819C166.795 27.1595 166.03 26.2829 165.089 25.6307L159.353 21.6533" fill="#5254CF"/>
<path id="Vector_25" d="M157.099 26.2797C157.87 27.109 158.379 27.9552 158.577 28.7633L156.82 27.9354L157.099 26.2797Z" fill="#1B1B43"/>
<path id="Vector_26" d="M154.95 4.87569C154.912 4.97926 154.725 5.13427 154.472 5.10397C154.276 5.08002 154.073 4.74041 154.073 4.49239C154.073 4.24438 154.234 4.04287 154.431 4.04287C154.727 4.04287 154.987 4.77845 154.95 4.87569Z" fill="#D28572"/>
<path id="Vector_27" d="M149.143 44.6764L147.991 49.3513H153.783L151.842 47.0501L152.085 44.713L149.143 44.6764Z" fill="#1B1B43"/>
<path id="Vector_28" d="M151.732 46.9428L150.724 48.0388L150.938 48.2373L151.946 47.1412L151.732 46.9428Z" fill="white"/>
<path id="Vector_29" d="M157.571 21.7632C156.949 29.5517 154.962 37.8334 153.1 46.344L147.792 46.2736C149.806 37.2345 150.643 28.9034 150.482 21.7294L157.571 21.7632Z" fill="#5254CF"/>
<path id="Vector_30" d="M153.318 7.56726C152.832 8.21971 151.915 7.88221 150.761 6.98246L152.736 23.1506C154.945 22.9702 157.15 22.4312 159.352 21.6533L153.318 7.56726Z" fill="white"/>
<path id="Vector_31" d="M154.967 25.4285L148.81 28.1545C148.228 20.996 147.065 16.3175 146.556 10.623C146.352 8.34372 150.764 6.98246 150.764 6.98246C152.488 9.09198 153.626 11.6665 154.294 14.6089C154.534 15.6808 154.714 16.7655 154.833 17.8577C155.092 20.2132 155.121 22.749 154.967 25.4285Z" fill="#FFB147"/>
<path id="Vector_32" d="M153.318 7.5673C157.441 13.0278 160.739 18.4376 162.224 23.7354C162.443 18.0741 158.454 11.7032 153.318 7.5673Z" fill="#FFB147"/>
<path id="Vector_33" d="M157.45 6.21872L157.904 5.02867C157.904 5.02867 157.497 3.63078 157.883 3.45745C158.27 3.28412 159.594 3.03963 159.928 3.01426C160.261 2.9889 160.733 2.45623 160.866 2.52669C160.999 2.59715 160.866 3.58357 160.247 3.64909C160.247 3.64909 160.124 5.64871 159.525 5.55147L159.054 7.3834L157.45 6.21872Z" fill="#D28572"/>
<path id="Vector_34" d="M154.831 17.8577C152.813 17.7816 150.306 16.4027 148.956 14.5679L154.293 14.6088C154.533 15.6807 154.713 16.7654 154.831 17.8577Z" fill="#1B1B43"/>
<path id="Vector_35" d="M148.81 10.294L153.427 11.8652L157.244 5.98477L159.789 7.62786C159.789 7.62786 157.39 17.2708 153.1 16.3577C149.206 15.5284 148.301 14.2023 148.301 14.2023L148.81 10.294Z" fill="#FFB147"/>
<path id="Vector_36" d="M153.451 11.9349L148.792 10.3496L148.829 10.239L153.403 11.7954L157.195 5.9523L157.293 6.01642L153.451 11.9349Z" fill="#1B1B43"/>
<path id="Vector_37" d="M157.476 6.13065L159.262 6.58299L159.112 7.18541L157.476 6.13065Z" fill="#1B1B43"/>
<path id="Vector_38" d="M118.859 92.0153L119.29 96.2407L125.657 94.9358L122.341 93.2272L121.313 91.2078L118.859 92.0153Z" fill="#1B1B43"/>
<path id="Vector_39" d="M122.218 93.1827L121.853 94.1301L122.1 94.2263L122.465 93.279L122.218 93.1827Z" fill="white"/>
<path id="Vector_40" d="M122.56 91.8067L118.028 93.0997C117.103 86.373 116.673 79.4089 115.771 73.2304C115.66 72.4577 115.54 71.6981 115.41 70.9517L115.248 70.529L114.352 68.1757L115.938 67.581L119.62 66.2056C119.758 66.7693 119.89 67.3663 120.018 67.9967C121.244 74.078 121.907 82.9078 122.56 91.8067Z" fill="#FE5B52"/>
<path id="Vector_41" d="M121.246 91.2099C121.003 84.3952 120.557 75.7591 119.258 69.4136L119.388 69.3868C120.689 75.7422 121.135 84.3853 121.379 91.205L121.246 91.2099Z" fill="#BE443D"/>
<path id="Vector_42" d="M110.038 93.6422L109.839 96.3738L108.248 101.338L112.692 98.1395L112.957 92.9094L110.038 93.6422Z" fill="#1B1B43"/>
<path id="Vector_43" d="M109.919 96.268L109.76 96.4811L110.821 97.2805L110.98 97.0674L109.919 96.268Z" fill="white"/>
<path id="Vector_44" d="M115.941 67.4232C115.941 67.4767 115.941 67.5303 115.941 67.5831C115.941 68.4841 115.926 69.3742 115.896 70.2535C115.869 71.2582 115.828 72.2515 115.774 73.2332C115.389 80.5545 114.394 87.3404 113.49 94.4081L109.036 94.8372C109.771 86.2687 110.285 78.7902 110.184 72.2447C110.163 70.9097 110.117 69.6135 110.044 68.3561L115.941 67.4232Z" fill="#FE5B52"/>
<path id="Vector_45" d="M115.827 71.4919L115.52 76.3339L115.626 76.3406L115.932 71.4986L115.827 71.4919Z" fill="#1B1B43"/>
<path id="Vector_46" d="M110.368 93.0355L110.235 93.0264C110.712 86.1017 111.253 78.2533 111.031 71.001L111.163 70.9968C111.388 78.2562 110.847 86.1081 110.368 93.0355Z" fill="#BE443D"/>
<path id="Vector_47" d="M120.018 67.9988C118.716 68.8784 117.335 69.6333 115.893 70.2534C115.683 70.35 115.466 70.4402 115.248 70.5311C113.596 71.2063 111.904 71.7786 110.182 72.2446C110.16 70.9096 110.114 69.6135 110.041 68.356L115.943 67.4231C115.943 67.4767 115.943 67.5302 115.943 67.5831L119.626 66.2077C119.76 66.7728 119.89 67.3698 120.018 67.9988Z" fill="#BE443D"/>
<path id="Vector_48" d="M96.4674 50.215L95.7317 48.6938C95.6783 48.585 95.6385 48.47 95.6132 48.3514C95.5332 47.9829 95.3207 47.1423 95.0585 47.2741C94.8726 47.3671 95.0276 48.7213 95.0276 48.7213C95.0276 48.7213 94.1292 46.294 93.8354 46.4335C93.5415 46.573 94.3466 48.8453 94.3466 48.8453C94.3466 48.8453 92.8598 49.4837 93.4637 50.4792C94.0675 51.4748 95.2913 51.8179 95.2913 51.8179L96.4674 50.215Z" fill="#FFBC96"/>
<path id="Vector_49" d="M94.2 49.5894C94.3515 49.774 94.5654 50.029 94.8151 50.0769C94.8376 50.0838 94.8615 50.0848 94.8845 50.08C94.9076 50.0751 94.929 50.0645 94.9469 50.0491C94.9648 50.0338 94.9785 50.0141 94.9868 49.992C94.9952 49.9699 94.9979 49.9461 94.9946 49.9226C94.9946 49.7817 94.907 49.6316 94.8431 49.509C94.7828 49.386 94.7125 49.2681 94.6327 49.1567C94.5823 49.0863 94.4672 49.1567 94.5184 49.2272C94.6428 49.3961 94.7443 49.5809 94.82 49.7768C94.8405 49.8214 94.8543 49.8689 94.8607 49.9177C94.8607 49.9684 94.8733 49.9536 94.8298 49.9473C94.6194 49.9184 94.4181 49.6507 94.2933 49.4999C94.2386 49.4337 94.1453 49.5281 94.1993 49.5936L94.2 49.5894Z" fill="#D28572"/>
<path id="Vector_50" d="M93.8683 49.9558C94.0205 50.1404 94.2337 50.3955 94.4834 50.4434C94.506 50.4504 94.5299 50.4515 94.553 50.4468C94.5762 50.442 94.5977 50.4314 94.6157 50.416C94.6337 50.4006 94.6475 50.3809 94.6559 50.3587C94.6643 50.3365 94.6669 50.3126 94.6636 50.2891C94.6594 50.1482 94.5753 49.9981 94.5114 49.8755C94.4509 49.7525 94.3805 49.6347 94.3011 49.5232C94.2499 49.4527 94.1348 49.5232 94.186 49.5937C94.3106 49.7625 94.412 49.9473 94.4876 50.1432C94.5081 50.1879 94.5219 50.2354 94.5283 50.2842C94.5283 50.3349 94.5409 50.3201 94.4974 50.3137C94.287 50.2849 94.0857 50.0178 93.9609 49.8663C93.9062 49.8001 93.8129 49.8945 93.8669 49.96L93.8683 49.9558Z" fill="#D28572"/>
<path id="Vector_51" d="M93.5008 50.2362C93.6411 50.3976 93.8248 50.6125 94.045 50.659C94.0662 50.6658 94.0887 50.6672 94.1106 50.6628C94.1324 50.6584 94.1527 50.6486 94.1696 50.6341C94.1866 50.6196 94.1995 50.601 94.2073 50.5801C94.2151 50.5592 94.2174 50.5366 94.2141 50.5145C94.2091 50.3891 94.1334 50.2581 94.0738 50.1503C94.0215 50.0474 93.961 49.9489 93.8929 49.8558C93.8417 49.7888 93.7266 49.8558 93.7785 49.9262C93.8873 50.0697 93.9762 50.2273 94.0429 50.3948C94.0591 50.4328 94.0711 50.4725 94.0787 50.5131C94.085 50.5491 94.0983 50.5378 94.0605 50.5293C93.8725 50.4857 93.7098 50.2884 93.592 50.1475C93.5366 50.0819 93.4433 50.1763 93.4987 50.2419L93.5008 50.2362Z" fill="#D28572"/>
<path id="Vector_52" d="M118.461 68.3454L111.717 70.0935C111.475 70.1569 111.221 70.1675 110.974 70.1246C110.727 70.0817 110.491 69.9864 110.284 69.8449C110.076 69.7033 109.901 69.5189 109.77 69.304C109.639 69.0891 109.555 68.8485 109.524 68.5984L108.752 62.4234L108.551 60.8113L108.493 60.3392L111.809 54.6088L114.074 53.6738L119.501 56.03L120.236 65.8533C120.278 66.4119 120.123 66.9674 119.799 67.4229C119.474 67.8784 119.001 68.2049 118.461 68.3454Z" fill="#5254CF"/>
<path id="Vector_53" d="M109.818 60.824C109.625 61.4493 109.256 62.0049 108.755 62.4234L108.554 60.8113L109.818 60.824Z" fill="#1B1B43"/>
<path id="Vector_54" d="M111.365 60.4718C106.413 63.226 99.6485 59.0062 94.3866 51.9879L96.7304 49.7219C102.475 55.8849 106.988 58.5398 112.736 53.8085L111.365 60.4718Z" fill="#5254CF"/>
<path id="Vector_55" d="M124.405 62.5002C127.169 61.9168 122.863 57.3849 120.366 55.007C119.389 54.0784 118.086 53.5761 116.742 53.6098L114.077 53.6739L122.523 62.0458L124.405 62.5002Z" fill="#5254CF"/>
<path id="Vector_56" d="M121.78 62.0437C121.649 62.3185 121.672 62.5707 121.883 62.8018C122.147 63.0907 122.499 63.4409 122.919 63.4204C123.269 63.4028 123.533 63.7819 123.887 63.5783C124.176 63.412 124.316 63.0315 124.418 62.7328C124.608 62.1747 124.518 61.597 124.025 61.2313C123.575 60.8973 122.952 60.6338 122.424 60.9537C122.235 61.0728 122.083 61.2414 121.984 61.4413C121.919 61.5674 121.902 61.7083 121.863 61.8436C121.841 61.9126 121.814 61.9795 121.78 62.0437Z" fill="#FFBC96"/>
<path id="Vector_57" d="M113.815 56.6924C113.289 56.6924 112.702 56.562 112.053 56.3013L112.092 56.2027C113.845 56.903 115.108 56.6402 115.963 55.3994L116.051 55.4607C115.488 56.283 114.745 56.6924 113.815 56.6924Z" fill="#1B1B43"/>
<path id="Vector_58" d="M119.655 58.0508L119.743 59.2944L120.318 59.894C120.451 59.4057 120.075 58.5842 119.655 58.0508Z" fill="#1B1B43"/>
<path id="Vector_59" d="M109.837 61.599C109.677 61.599 109.518 61.599 109.36 61.5927V61.4595C109.878 61.4694 110.412 61.4813 110.928 61.3721C111.263 61.3017 111.707 61.1509 112.06 60.8303C112.006 60.7969 111.957 60.7572 111.912 60.7119C111.826 60.6299 111.765 60.524 111.738 60.4074C111.711 60.2909 111.718 60.1689 111.759 60.0567C111.787 59.9951 111.828 59.9404 111.879 59.8964C111.93 59.8523 111.99 59.82 112.055 59.8016C112.109 59.7845 112.166 59.7795 112.223 59.7871C112.279 59.7946 112.333 59.8145 112.381 59.8453C112.449 59.8967 112.501 59.966 112.532 60.0455C112.563 60.1249 112.572 60.2115 112.557 60.2955C112.527 60.4509 112.457 60.5955 112.353 60.714C112.33 60.7415 112.307 60.769 112.283 60.7951C112.364 60.8268 112.448 60.8504 112.534 60.8655C113.22 60.9916 114.007 60.7246 114.713 60.1363C114.621 60.0609 114.549 59.9642 114.503 59.8544C114.464 59.7649 114.449 59.6665 114.46 59.5693C114.472 59.4721 114.509 59.3798 114.568 59.3021C114.633 59.2226 114.725 59.1705 114.827 59.1561C114.928 59.1416 115.031 59.1658 115.115 59.2238C115.277 59.3507 115.288 59.5761 115.228 59.7375C115.162 59.8882 115.061 60.0207 114.934 60.1236C115.092 60.201 115.264 60.2467 115.44 60.2582C115.757 60.2774 116.075 60.2292 116.372 60.1168C116.67 60.0043 116.94 59.8302 117.166 59.6057C117.149 59.595 117.133 59.5833 117.117 59.5705C116.907 59.4077 116.782 59.0864 116.928 58.83C116.97 58.7624 117.029 58.7076 117.099 58.6713C117.169 58.6351 117.248 58.6188 117.327 58.6242C117.393 58.6239 117.457 58.6419 117.513 58.6762C117.568 58.7106 117.613 58.7599 117.643 58.8187C117.713 58.973 117.674 59.171 117.525 59.3824C117.481 59.4463 117.435 59.5079 117.385 59.567C117.536 59.6195 117.696 59.6434 117.857 59.6374C118.219 59.6289 118.576 59.5395 118.9 59.3757C119.224 59.212 119.508 58.9779 119.731 58.6905L119.836 58.7715C119.601 59.0742 119.301 59.3205 118.959 59.4927C118.617 59.6649 118.241 59.7586 117.858 59.7671C117.664 59.7752 117.47 59.7413 117.289 59.6677C117.049 59.9143 116.759 60.1061 116.439 60.23C116.119 60.3539 115.776 60.407 115.433 60.3857C115.221 60.3757 115.015 60.3161 114.831 60.2117C114.087 60.8458 113.248 61.1276 112.516 60.9924C112.403 60.973 112.293 60.9399 112.188 60.8937C111.808 61.2559 111.323 61.4221 110.96 61.4989C110.59 61.5716 110.214 61.6052 109.837 61.599ZM112.179 59.9172C112.15 59.9174 112.122 59.9216 112.095 59.9298C112.049 59.9428 112.006 59.9656 111.97 59.9966C111.934 60.0276 111.904 60.0661 111.884 60.1095C111.814 60.2659 111.869 60.4752 112.01 60.6182C112.055 60.6636 112.106 60.7028 112.161 60.7345C112.193 60.7014 112.223 60.664 112.252 60.6302C112.341 60.5307 112.402 60.409 112.428 60.2779C112.439 60.2186 112.434 60.1574 112.413 60.1008C112.392 60.0442 112.356 59.9944 112.309 59.9566C112.271 59.9298 112.225 59.9156 112.179 59.9157V59.9172ZM114.896 59.283C114.853 59.283 114.811 59.2922 114.773 59.3101C114.734 59.3279 114.7 59.3541 114.672 59.3866C114.629 59.4462 114.603 59.5159 114.595 59.5889C114.587 59.6619 114.599 59.7357 114.628 59.803C114.669 59.9005 114.735 59.9853 114.819 60.0489L114.833 60.0362C114.951 59.9441 115.044 59.8253 115.107 59.6896C115.15 59.5719 115.14 59.4077 115.037 59.3281C114.996 59.2967 114.947 59.2801 114.896 59.2809V59.283ZM117.31 58.7567C117.257 58.7555 117.205 58.7678 117.159 58.7924C117.113 58.8171 117.074 58.8533 117.045 58.8976C116.936 59.0886 117.041 59.3415 117.201 59.4669C117.22 59.4817 117.24 59.4958 117.261 59.5092C117.317 59.4457 117.37 59.3788 117.418 59.3091C117.502 59.1872 117.589 59.0139 117.525 58.8765C117.505 58.8405 117.476 58.8106 117.44 58.7899C117.405 58.7692 117.365 58.7584 117.324 58.7588L117.31 58.7567Z" fill="#1B1B43"/>
<path id="Vector_60" d="M114.657 49.9917C114.657 51.2331 113.425 53.2912 112.189 53.2912C110.954 53.2912 110.175 52.1252 110.366 50.8957C110.553 49.7141 111.399 48.8636 112.503 48.7629C113.424 48.6826 114.657 49.0405 114.657 49.9917Z" fill="#1B1B43"/>
<path id="Vector_61" d="M114.826 54.332C114.828 54.598 114.735 54.8558 114.565 55.0595C114.394 55.2633 114.158 55.3997 113.897 55.4445C113.636 55.4893 113.367 55.4396 113.14 55.3043C112.912 55.169 112.739 54.9567 112.652 54.7054C112.344 53.8339 111.959 52.7277 111.959 52.6875L113.103 52.6424L114.302 52.5973L114.708 53.8043L114.763 53.9698C114.804 54.0863 114.825 54.2086 114.826 54.332Z" fill="#FFBC96"/>
<path id="Vector_62" d="M114.71 53.8042C114.129 53.8042 113.325 53.578 112.471 53.0996L113.102 52.6437L114.301 52.5986L114.71 53.8042Z" fill="#1B1B43"/>
<path id="Vector_63" d="M114.128 49.5669C115.211 51.2325 116.737 53.7867 112.47 53.0983L111.746 52.3817L111.796 50.0333L114.128 49.5669Z" fill="#FFBC96"/>
<path id="Vector_64" d="M112.276 51.98C112.044 51.5277 112.035 51.0317 112.161 50.5103C113.112 50.5469 113.984 50.3517 114.499 49.7754L113.938 49.2998L112.059 49.4294L111.139 50.4525L110.929 51.8215L112.276 51.98Z" fill="#1B1B43"/>
<path id="Vector_65" d="M110.604 52.7218C111.121 52.0659 111.01 51.1137 110.357 50.5949C109.704 50.0762 108.756 50.1874 108.24 50.8433C107.724 51.4992 107.834 52.4514 108.487 52.9702C109.14 53.4889 110.088 53.3777 110.604 52.7218Z" fill="#1B1B43"/>
<path id="Vector_66" d="M111.945 52.8481C112.302 52.8481 112.592 52.5572 112.592 52.1985C112.592 51.8397 112.302 51.5488 111.945 51.5488C111.588 51.5488 111.299 51.8397 111.299 52.1985C111.299 52.5572 111.588 52.8481 111.945 52.8481Z" fill="#FFBC96"/>
<path id="Vector_67" d="M84.5886 104.353L84.3537 108.426L90.5911 108.169L87.7066 106.037L87.0397 103.964L84.5886 104.353Z" fill="#1B1B43"/>
<path id="Vector_68" d="M87.1293 106.416L85.9154 107.358L86.0712 107.56L87.285 106.619L87.1293 106.416Z" fill="white"/>
<path id="Vector_69" d="M88.3322 105.269L88.5383 92.8369C88.5523 91.9931 88.2916 91.1678 87.7961 90.4864C87.3005 89.805 86.5971 89.3048 85.7927 89.0617L76.9267 86.3843L73.4539 86.2596L74.5689 92.9172L82.8206 94.7097L83.6481 105.269H88.3322Z" fill="#FFB147"/>
<path id="Vector_70" d="M75.5368 91.6849C76.2339 91.8653 76.959 92.5346 77.1421 93.4767L75.8517 93.1892L75.5368 91.6849Z" fill="#BF8535"/>
<path id="Vector_71" d="M75.3979 109.686L76.0031 111.351L75.9393 114.008L80.2404 112.599L78.3925 110.838L77.8188 108.63L75.3979 109.686Z" fill="#1B1B43"/>
<path id="Vector_72" d="M78.124 110.751L76.1387 111.264L76.2023 111.512L78.1876 110.999L78.124 110.751Z" fill="white"/>
<path id="Vector_73" d="M78.9977 109.078L74.665 110.487C71.8156 105.148 70.0364 98.401 68.227 89.0342C68.0479 88.1023 67.8677 87.1445 67.6863 86.1609L71.1683 85.3337L74.1552 84.6249L74.4175 85.9559L74.9322 88.5523L78.9977 109.078Z" fill="#FFB147"/>
<path id="Vector_74" d="M75.353 109.711C73.1271 105.67 71.1788 99.4945 69.2201 90.2679L69.3197 90.2468C71.2763 99.4599 73.2217 105.629 75.4421 109.661L75.353 109.711Z" fill="#1B1B43"/>
<path id="Vector_75" opacity="0.4" d="M77.9346 86.6288C77.5222 87.5201 76.4085 88.15 74.9322 88.5516C73.0464 89.0667 70.5743 89.2076 68.227 89.0335C68.0479 88.1016 67.8677 87.1438 67.6863 86.1602L71.1683 85.3331L74.4175 85.9552L77.9346 86.6288Z" fill="#BF8535"/>
<path id="Vector_76" d="M84.7801 74.6375L84.2891 73.501C84.2891 73.501 84.4343 71.6204 83.0759 71.6162C82.9473 71.6161 82.8209 71.6496 82.7091 71.7134C82.4896 71.8374 82.1046 72.0925 81.9243 72.4349C81.8544 72.5718 81.8295 72.7274 81.8533 72.8794C81.8771 73.0314 81.9484 73.1718 82.0569 73.2804L82.728 73.9674L82.8977 74.7727L84.7801 74.6375Z" fill="#D28572"/>
<path id="Vector_77" d="M75.5129 72.7167L76.9443 73.0605C78.5664 73.4501 80.0855 74.4605 81.2924 75.6188L83.416 77.7101L83.5009 82.4047L78.0215 77.6248L75.5129 72.7167Z" fill="#CBCBFF"/>
<path id="Vector_78" d="M85.1398 82.7289C85.1198 82.7354 85.0994 82.7406 85.0788 82.7444L84.8165 82.798C84.7442 82.8129 84.6708 82.8216 84.597 82.824C84.2348 82.8452 83.8771 82.7343 83.5897 82.5118C83.3022 82.2893 83.1044 81.9701 83.0324 81.6129L82.6116 74.4662L85.0732 74.0815L86.0193 79.5385L86.1055 80.048L86.2633 80.9548C86.3409 81.3391 86.2671 81.7386 86.0576 82.0694C85.8481 82.4003 85.5191 82.6367 85.1398 82.7289Z" fill="#CBCBFF"/>
<path id="Vector_79" d="M79.4403 77.3606L79.2916 78.7346L80.2264 79.5371C80.2692 78.8121 79.9838 78.0074 79.4403 77.3606Z" fill="#1B1B43"/>
<path id="Vector_80" opacity="0.6" d="M86.1027 80.0479L86.0164 79.5385C85.5295 79.6594 85.097 79.9407 84.7878 80.3375C84.4787 80.7343 84.3108 81.2237 84.3108 81.7276C84.31 82.1117 84.4083 82.4895 84.5963 82.824C84.6701 82.8215 84.7435 82.8128 84.8158 82.7979L85.0781 82.7443C85.0987 82.7405 85.1191 82.7353 85.1391 82.7288C84.9313 82.4368 84.82 82.0866 84.8207 81.7276C84.8204 81.3449 84.9459 80.9727 85.1777 80.669C85.4095 80.3653 85.7347 80.1469 86.1027 80.0479Z" fill="#5254CF"/>
<path id="Vector_81" d="M79.7622 75.6908L78.9795 80.8505L78.901 81.3606L78.3806 84.7799L78.3041 85.2922L78.1997 85.9805C78.0776 86.7922 77.532 87.1819 76.4793 87.2488C74.0633 87.2256 71.0049 86.7697 67.6863 86.1602L67.9668 84.9674L68.0818 84.465L68.8694 81.083L68.9837 80.5785L70.3352 74.7664L74.1377 72.6103L75.5164 72.7174L79.7622 75.6908Z" fill="#CBCBFF"/>
<path id="Vector_82" d="M75.2948 75.3525C75.2114 75.3525 75.1265 75.3483 75.0424 75.3399C74.2506 75.2581 73.5921 74.8135 73.1867 74.0864L73.2758 74.0364C73.6643 74.7332 74.2955 75.1595 75.0529 75.2342C75.7661 75.3046 76.4709 75.0524 76.8882 74.5683L76.9654 74.6388C76.5761 75.0904 75.952 75.3525 75.2948 75.3525Z" fill="#1B1B43"/>
<path id="Vector_83" d="M69.3547 78.905L70.0771 77.8383C70.3955 78.8458 70.0953 79.5363 69.1429 79.8921L69.3547 78.905Z" fill="#1B1B43"/>
<path id="Vector_84" opacity="0.6" d="M78.8449 80.8469C78.2931 80.8417 77.7588 81.0408 77.3439 81.4062C76.929 81.7717 76.6627 82.2779 76.5958 82.8282C76.5289 83.3784 76.6662 83.9342 76.9813 84.3892C77.2964 84.8442 77.7674 85.1667 78.3041 85.295L78.3806 84.7827C77.9756 84.6706 77.6249 84.4145 77.3935 84.0622C77.1622 83.7099 77.0659 83.2852 77.1226 82.867C77.1793 82.4488 77.3852 82.0654 77.7019 81.7881C78.0186 81.5108 78.4247 81.3584 78.8449 81.3592C78.8635 81.3578 78.8823 81.3578 78.901 81.3592L78.9795 80.849C78.9367 80.8497 78.8904 80.8469 78.8449 80.8469Z" fill="#5254CF"/>
<path id="Vector_85" opacity="0.6" d="M68.9809 80.5778L68.8666 81.0823C69.3002 81.1472 69.6933 81.3745 69.9668 81.7187C70.2404 82.0628 70.3741 82.4983 70.3411 82.9374C70.3082 83.3766 70.111 83.787 69.7892 84.086C69.4674 84.3851 69.0448 84.5507 68.6064 84.5495C68.4272 84.5505 68.2491 84.5219 68.079 84.465L67.964 84.9674C68.2991 85.0682 68.653 85.0889 68.9975 85.0279C69.342 84.9669 69.6675 84.8258 69.948 84.6159C70.2286 84.4061 70.4565 84.1332 70.6134 83.8191C70.7704 83.5051 70.8521 83.1585 70.852 82.8071C70.8513 82.2736 70.6633 81.7576 70.321 81.3497C69.9787 80.9419 69.5041 80.6685 68.9809 80.5778Z" fill="#5254CF"/>
<path id="Vector_86" d="M69.9726 86.2103L70.8057 87.1262C70.8057 87.1262 72.5758 87.7554 72.0288 89.0046C71.9768 89.1227 71.8951 89.2252 71.7918 89.302C71.5891 89.4535 71.2013 89.7029 70.8163 89.7304C70.6639 89.7387 70.5128 89.6983 70.3846 89.615C70.2565 89.5317 70.1579 89.4098 70.103 89.2668L69.7524 88.3712L69.0882 87.8886L69.9726 86.2103Z" fill="#D28572"/>
<path id="Vector_87" d="M67.3574 81.5079L71.0947 86.4167L68.9564 88.3804L65.0543 84.1402C64.8644 83.9323 64.6996 83.7027 64.5634 83.456C64.4801 83.3065 64.4083 83.1508 64.3488 82.9903C64.1627 82.5045 64.0846 81.9837 64.1199 81.4644C64.1551 80.9451 64.3029 80.4398 64.5528 79.9838C64.5837 79.9254 64.6167 79.869 64.6524 79.8126L64.8151 79.5491L66.6939 76.5243C67.7139 74.8859 69.3232 73.7057 71.1872 73.229L74.2842 72.4405L67.3574 81.5079Z" fill="#CBCBFF"/>
<path id="Vector_88" d="M71.0792 86.4301L67.3412 81.5219L67.3756 81.4952L71.1136 86.4033L71.0792 86.4301Z" fill="#1B1B43"/>
<path id="Vector_89" opacity="0.6" d="M64.8137 79.5491L64.651 79.8126C64.6153 79.869 64.5809 79.9253 64.5514 79.9838C64.8029 80.1548 65.0052 80.389 65.1383 80.6632C65.2715 80.9373 65.3306 81.2417 65.31 81.546C65.2893 81.8503 65.1895 82.1439 65.0206 82.3973C64.8517 82.6507 64.6196 82.8552 64.3474 82.9903C64.4069 83.1508 64.4787 83.3065 64.562 83.456C64.9174 83.2815 65.2206 83.0157 65.4409 82.6855C65.6611 82.3554 65.7906 81.9726 65.8162 81.5759C65.8417 81.1793 65.7625 80.7829 65.5864 80.427C65.4104 80.0711 65.1438 79.7682 64.8137 79.5491Z" fill="#5254CF"/>
<path id="Vector_90" d="M76.7086 71.6669L76.6883 71.7437L76.3496 72.9549L76.2577 73.2832C76.0473 74.023 75.2408 74.5656 74.5346 74.0385C74.0072 73.644 73.6579 72.8407 73.8592 72.2151C73.8648 72.1996 74.4967 70.2253 74.4967 70.2253L76.7086 71.6669Z" fill="#D28572"/>
<path id="Vector_91" d="M76.6883 71.7451L76.3496 72.9563C75.6307 72.5906 75.1644 71.8578 74.8067 70.9566L76.6883 71.7451Z" fill="#1B1B43"/>
<path id="Vector_92" d="M77.6435 69.279C77.8027 70.4155 78.1057 71.7598 76.7037 72.0473C75.7843 72.2368 74.1973 70.9573 74.1973 69.7926C74.1973 68.628 75.3832 67.7648 76.3215 67.7874C77.6758 67.8198 77.4107 67.6119 77.6435 69.279Z" fill="#D28572"/>
<path id="Vector_93" d="M74.4946 69.8899C74.4603 69.4375 74.4946 69.0239 74.792 68.7583C75.7577 68.895 76.8076 68.8126 77.8721 68.5561C77.8946 68.5505 77.8497 68.2651 77.8462 68.2454C77.8052 68.0065 77.7146 67.7789 77.5804 67.5774C77.0628 66.8116 76.0375 66.7319 75.2023 66.8306C74.9117 66.8637 74.6335 66.9671 74.3914 67.1319C74.1493 67.2967 73.9506 67.518 73.8123 67.7768C73.4904 68.3856 73.6019 69.0543 73.8235 69.6792C73.8522 69.7595 73.8831 69.8392 73.9147 69.9181L73.9427 69.9885L74.4946 69.8899Z" fill="#1B1B43"/>
<path id="Vector_94" d="M74.3382 70.7489C74.6593 70.7489 74.9196 70.4874 74.9196 70.1648C74.9196 69.8422 74.6593 69.5807 74.3382 69.5807C74.0171 69.5807 73.7568 69.8422 73.7568 70.1648C73.7568 70.4874 74.0171 70.7489 74.3382 70.7489Z" fill="#D28572"/>
</g>
</svg>
