<svg width="27" height="31" viewBox="0 0 27 31" fill="none" xmlns="http://www.w3.org/2000/svg">
<g id="Group 13">
<path id="Vector" fill-rule="evenodd" clip-rule="evenodd" d="M17.8116 0H17.2996L16.2755 0.179907H15.7565L15.5905 2.49103L16.2755 2.31112H17.4726H18.3306L17.8116 0Z" fill="black"/>
<path id="Vector_2" fill-rule="evenodd" clip-rule="evenodd" d="M13.5284 0.747294L13.0025 0.920282L12.1237 1.59839L11.6048 1.77138L12.6496 3.81956L13.3485 3.4805L14.2204 2.79547L14.9261 2.45642L13.5284 0.747294Z" fill="black"/>
<path id="Vector_3" fill-rule="evenodd" clip-rule="evenodd" d="M9.88184 3.48744L9.70886 3.84033L9.19681 4.8921L9.03074 5.23807L10.7329 6.64274L11.0789 5.94386L11.591 4.8921L12.103 4.18631L9.88184 3.48744Z" fill="black"/>
<path id="Vector_4" fill-rule="evenodd" clip-rule="evenodd" d="M8.3665 7.65299V7.99897V9.19604V9.70809L10.6084 9.88107V9.19604V7.99897L10.4354 7.14095L8.3665 7.65299Z" fill="black"/>
<path id="Vector_5" fill-rule="evenodd" clip-rule="evenodd" d="M8.8647 11.95L9.20376 12.296L9.7158 13.3477L10.0549 13.7006L12.103 12.8218L11.591 12.123L11.0789 11.2442L10.5669 10.5453L8.8647 11.95Z" fill="black"/>
<path id="Vector_6" fill-rule="evenodd" clip-rule="evenodd" d="M11.6048 15.5897L12.1237 15.7558L13.1755 16.2678L13.5284 16.4408L14.9261 14.7317L14.2204 14.2196L13.1755 13.7076L12.3036 13.3685L11.6048 15.5897Z" fill="black"/>
<path id="Vector_7" fill-rule="evenodd" clip-rule="evenodd" d="M15.7634 17.1881H16.2755H17.4795H17.8185L18.1645 14.9461H17.3065H16.1094H15.4244L15.7634 17.1881Z" fill="black"/>
<path id="Vector_8" fill-rule="evenodd" clip-rule="evenodd" d="M20.275 16.6069L20.6209 16.2678L21.6381 15.5828L21.9841 15.4167L21.1261 13.3685L20.448 13.8806L19.4239 14.3926L18.7458 14.9047L20.275 16.6069Z" fill="black"/>
<path id="Vector_9" fill-rule="evenodd" clip-rule="evenodd" d="M23.7555 13.8667L23.9285 13.3408L24.4543 12.296L24.8072 11.9431L22.8767 10.5453L22.5238 11.2442L21.9979 12.296L21.6519 12.9948L23.7555 13.8667Z" fill="black"/>
<path id="Vector_10" fill-rule="evenodd" clip-rule="evenodd" d="M25.4715 9.70809L25.2985 9.18913V7.99205V7.64608L23.0635 7.30702V8.16504L23.2296 9.36212V10.0472L25.4715 9.70809Z" fill="black"/>
<path id="Vector_11" fill-rule="evenodd" clip-rule="evenodd" d="M24.8072 5.23807L24.6273 4.88518L23.9285 3.83341L23.5756 3.48744L21.6519 4.35929L21.9979 5.05817L22.7037 6.10993L23.0497 6.8088L24.8072 5.23807Z" fill="black"/>
<path id="Vector_12" fill-rule="evenodd" clip-rule="evenodd" d="M21.9841 1.77138L21.6381 1.59839L20.614 0.920282L20.102 0.747294L18.9118 2.62248L19.5899 2.96846L20.614 3.4805L21.299 3.81956L21.9841 1.77138Z" fill="black"/>
<path id="Vector_13" fill-rule="evenodd" clip-rule="evenodd" d="M16.7875 3.48742H16.6146C15.2501 3.56725 13.9686 4.16837 13.0348 5.16647C12.1011 6.16458 11.5867 7.48333 11.5979 8.85005C11.6853 10.1967 12.2944 11.4561 13.2959 12.3606C14.2973 13.2651 15.612 13.7434 16.9605 13.6937C17.6507 13.6975 18.3342 13.5584 18.968 13.2852C19.6018 13.012 20.1723 12.6107 20.6434 12.1063C21.1146 11.602 21.4764 11.0057 21.7059 10.3548C21.9354 9.70386 22.0278 9.01251 21.9772 8.32418C21.9008 7.00445 21.3189 5.76488 20.3525 4.8629C19.3861 3.96092 18.1094 3.46585 16.7875 3.48052V3.48742ZM16.7875 15.7765C14.945 15.7479 13.1834 15.0149 11.8644 13.7281C10.5453 12.4413 9.76909 10.6982 9.69503 8.85697C9.64766 7.00466 10.3271 5.20736 11.5879 3.84955C12.8487 2.49175 14.5908 1.68126 16.4416 1.59148C17.3769 1.52277 18.3164 1.64489 19.203 1.95044C20.0897 2.25599 20.9049 2.73859 21.5993 3.36892C22.2937 3.99924 22.8528 4.76414 23.2424 5.61717C23.6321 6.47019 23.8443 7.39352 23.8662 8.33108C23.9474 10.2101 23.2847 12.0454 22.0218 13.4391C20.7589 14.8328 18.9976 15.6726 17.1197 15.7765H16.7875Z" fill="black"/>
<path id="Vector_14" fill-rule="evenodd" clip-rule="evenodd" d="M7.9513 28.2316C7.9513 27.6842 8.11364 27.1491 8.41777 26.6939C8.7219 26.2387 9.15416 25.884 9.65991 25.6745C10.1657 25.465 10.7222 25.4102 11.2591 25.517C11.796 25.6238 12.2892 25.8874 12.6762 26.2745C13.0633 26.6616 13.3269 27.1547 13.4337 27.6916C13.5405 28.2285 13.4857 28.7851 13.2762 29.2908C13.0667 29.7966 12.712 30.2288 12.2568 30.533C11.8017 30.8371 11.2665 30.9994 10.7191 30.9994C9.98504 30.9994 9.28103 30.7078 8.76197 30.1888C8.2429 29.6697 7.9513 28.9657 7.9513 28.2316Z" fill="black"/>
<path id="Vector_15" fill-rule="evenodd" clip-rule="evenodd" d="M18.3306 28.2316C18.3113 27.6613 18.4628 27.0983 18.7656 26.6146C19.0684 26.1309 19.5088 25.7487 20.0302 25.517C20.5517 25.2852 21.1305 25.2145 21.6924 25.3138C22.2543 25.4132 22.7738 25.6781 23.1841 26.0746C23.5945 26.4711 23.8771 26.9811 23.9957 27.5393C24.1144 28.0975 24.0636 28.6784 23.8499 29.2075C23.6362 29.7366 23.2694 30.1899 22.7964 30.5091C22.3234 30.8284 21.7659 30.9991 21.1953 30.9995C20.8252 31.0068 20.4573 30.9409 20.1127 30.8056C19.7682 30.6703 19.4538 30.4682 19.1876 30.211C18.9214 29.9538 18.7086 29.6466 18.5615 29.3069C18.4145 28.9672 18.336 28.6018 18.3306 28.2316Z" fill="black"/>
<path id="Vector_16" fill-rule="evenodd" clip-rule="evenodd" d="M23.5202 23.9138H8.68478C8.41966 23.9104 8.16199 23.8256 7.94665 23.6709C7.73131 23.5162 7.56868 23.2991 7.4808 23.0489L4.02104 6.26906L0.748097 5.40412C0.472822 5.31237 0.245271 5.115 0.115505 4.85547C-0.0142616 4.59594 -0.035613 4.2955 0.0561455 4.02022C0.147904 3.74495 0.345267 3.51739 0.604799 3.38763C0.864332 3.25786 1.16477 3.23651 1.44005 3.32827L5.23886 4.3662C5.41534 4.44397 5.57043 4.56322 5.6909 4.71382C5.81138 4.86441 5.89368 5.04189 5.93081 5.23114L9.55665 21.665L23.5272 21.838C23.6645 21.8331 23.8013 21.8566 23.9291 21.9072C24.0568 21.9577 24.1727 22.0341 24.2696 22.1315C24.3664 22.229 24.442 22.3454 24.4917 22.4735C24.5413 22.6016 24.564 22.7386 24.5582 22.8759C24.5405 23.1442 24.4264 23.397 24.2369 23.5878C24.0474 23.7786 23.7953 23.8944 23.5272 23.9138H23.5202Z" fill="black"/>
<path id="Vector_17" fill-rule="evenodd" clip-rule="evenodd" d="M25.3124 18.7311C25.3195 18.8465 25.302 18.9622 25.261 19.0703C25.22 19.1785 25.1566 19.2767 25.0748 19.3584C24.993 19.4402 24.8948 19.5037 24.7867 19.5447C24.6785 19.5856 24.5629 19.6031 24.4475 19.596H8.29732C8.18189 19.6031 8.06627 19.5856 7.95812 19.5447C7.84997 19.5037 7.75178 19.4402 7.67 19.3584C7.58823 19.2767 7.52476 19.1785 7.4838 19.0703C7.44283 18.9622 7.4253 18.8465 7.43238 18.7311L5.86856 9.73574C5.85115 9.48422 5.93249 9.23583 6.09529 9.04332C6.25809 8.85081 6.48951 8.72935 6.74043 8.70474L26.8762 10.9467L25.3124 18.7173V18.7311Z" fill="black"/>
</g>
</svg>
