<svg width="20" height="75" viewBox="0 0 20 75" fill="none" xmlns="http://www.w3.org/2000/svg">
<g id="Vector" style="mix-blend-mode:soft-light">
<path d="M0.00169425 0.200898C0.678289 3.42354 1.28112 6.65621 1.74697 9.90395C2.23242 13.1483 2.60214 16.4013 2.85614 19.6628C3.09628 22.9239 3.26599 26.1872 3.27541 29.4556C3.30203 32.7217 3.1645 35.9851 3.01809 39.2612C2.89053 42.5363 2.74079 45.8348 2.97926 49.1567C3.21774 52.4786 3.90764 55.8161 5.28468 58.9512C5.62907 59.7319 5.99122 60.5126 6.40216 61.2637C6.79758 62.0233 7.23404 62.7694 7.68104 63.5055C8.59775 64.994 9.62304 66.4121 10.7485 67.7481C13.0333 70.442 15.7891 72.8321 18.8243 74.8547C19.1443 75.0677 19.6007 75.0153 19.847 74.7382C20.0932 74.461 20.0339 74.0773 19.7294 73.8621C19.0084 73.3518 18.2925 72.8355 17.607 72.2929C17.2587 72.0263 16.9254 71.7469 16.586 71.4731C16.2588 71.1882 15.9205 70.9155 15.6022 70.6216C14.3254 69.4822 13.1333 68.2502 12.0356 66.9356C9.85612 64.3447 8.11195 61.4578 6.78982 58.4649C6.15096 56.9727 5.63945 55.4286 5.26083 53.8493C4.8937 52.277 4.64711 50.6788 4.52323 49.0686C4.26369 45.8443 4.3807 42.5781 4.48164 39.3025C4.58257 36.0269 4.64801 32.7329 4.56149 29.4428C4.52452 27.7977 4.45261 26.1538 4.34576 24.5109C4.29807 23.6895 4.23485 22.8687 4.16829 22.0484C4.09435 21.2305 4.01523 20.4111 3.93093 19.5903C3.57969 16.3158 3.11274 13.0543 2.53005 9.8058C1.92833 6.56197 1.22733 3.3332 0.38436 0.133425C0.368123 0.0866908 0.335152 0.0477155 0.29188 0.0241045C0.248609 0.000493488 0.19814 -0.0060614 0.150323 0.00572163C0.127737 0.00853178 0.105933 0.0158373 0.0861853 0.027212C0.0664377 0.0385867 0.0491424 0.0538037 0.0353065 0.0719728C0.0214706 0.0901418 0.0113715 0.110901 0.00560045 0.133037C-0.000170608 0.155173 -0.00149768 0.17824 0.00169425 0.200898Z" fill="white"/>
</g>
</svg>
