<svg width="10" height="45" viewBox="0 0 10 45" fill="none" xmlns="http://www.w3.org/2000/svg">
<g id="Vector" style="mix-blend-mode:soft-light">
<path d="M0.446392 44.6228C0.422126 44.6269 0.397534 44.6288 0.372926 44.6284C0.272547 44.6266 0.176951 44.5849 0.107065 44.5124C0.0371784 44.44 -0.00130638 44.3426 3.3868e-05 44.2417C0.00392975 44.0033 0.465316 20.1744 9.27947 0.21583C9.3222 0.126554 9.39783 0.0575196 9.49033 0.023363C9.58282 -0.0107936 9.6849 -0.00738773 9.77494 0.0328586C9.86498 0.0731049 9.9359 0.147026 9.97265 0.238954C10.0094 0.330883 10.0091 0.433593 9.97182 0.525305C1.22167 20.3361 0.761403 44.0167 0.757507 44.2534C0.756219 44.3417 0.724492 44.4268 0.66775 44.4941C0.611008 44.5615 0.532768 44.607 0.446392 44.6228Z" fill="white"/>
</g>
</svg>
