<svg width="13" height="17" viewBox="0 0 13 17" fill="none" xmlns="http://www.w3.org/2000/svg">
<path id="Vector" d="M12.58 16.9972L4.74889 16.8954C2.13048 16.8615 0 14.691 0 12.0582V0.16957C0 0.124598 0.0177698 0.0814656 0.0493958 0.049665C0.0810219 0.0178644 0.123914 0 0.16864 0C0.213366 0 0.256261 0.0178644 0.287887 0.049665C0.319513 0.0814656 0.337279 0.124598 0.337279 0.16957V12.0582C0.341654 13.2398 0.806218 14.3727 1.6314 15.2141C2.45658 16.0554 3.5767 16.5383 4.7517 16.5591L12.5822 16.6609C12.6269 16.6609 12.6698 16.6787 12.7014 16.7105C12.7331 16.7423 12.7508 16.7855 12.7508 16.8304C12.7508 16.8754 12.7331 16.9185 12.7014 16.9503C12.6698 16.9821 12.6269 17 12.5822 17L12.58 16.9972Z" fill="#91B3FA"/>
</svg>
