<svg width="78" height="100" viewBox="0 0 78 100" fill="none" xmlns="http://www.w3.org/2000/svg">
<path id="Vector" d="M0 7.1221C0 5.2332 0.74624 3.42167 2.07456 2.08602C3.40288 0.750363 5.20448 0 7.08301 0H67.3158C68.9159 5.78416e-05 70.4548 0.618116 71.6147 1.72649C72.7746 2.83486 73.4667 4.34886 73.5482 5.95571L77.9941 93.7643C78.0254 94.3839 77.9325 95.0034 77.7209 95.5862C77.5094 96.1689 77.1835 96.7029 76.7626 97.1565C76.3417 97.61 75.8344 97.9738 75.2708 98.2263C74.7073 98.4788 74.099 98.6148 73.4822 98.6261L4.44864 99.8879C3.8685 99.8984 3.29209 99.7926 2.75306 99.5766C2.21403 99.3607 1.72319 99.0389 1.3092 98.6301C0.895209 98.2213 0.566361 97.7337 0.341863 97.1957C0.117365 96.6577 0.00171474 96.0801 0.0016617 95.4966L0 7.1221Z" fill="url(#paint0_linear_1_357)"/>
<defs>
<linearGradient id="paint0_linear_1_357" x1="38.9748" y1="93.9896" x2="33.3737" y2="-70.8933" gradientUnits="userSpaceOnUse">
<stop stop-color="#09005D"/>
<stop offset="1" stop-color="#1A0F91"/>
</linearGradient>
</defs>
</svg>
