<svg width="66" height="93" viewBox="0 0 66 93" fill="none" xmlns="http://www.w3.org/2000/svg">
<path id="Vector" d="M4.24028e-05 1.99301C-0.00180842 1.70941 0.0569503 1.42872 0.172345 1.16994C0.287739 0.911156 0.457077 0.680316 0.668893 0.493047C0.880709 0.305778 1.13006 0.166445 1.40008 0.0844838C1.67009 0.00252318 1.95446 -0.0201525 2.23395 0.0179855C10.1078 1.09174 37.1855 4.41229 59.5726 2.68463C59.8148 2.66533 60.0585 2.69499 60.2891 2.77187C60.5197 2.84874 60.7328 2.97128 60.9156 3.13224C61.0984 3.29321 61.2473 3.48935 61.3535 3.7091C61.4597 3.92885 61.5211 4.16775 61.534 4.41174L65.9969 88.8476C66.027 89.404 65.8368 89.9498 65.4677 90.3656C65.0987 90.7813 64.581 91.0332 64.0277 91.0661C54.6122 91.6268 15.8354 93.7926 2.00449 92.3356C1.59742 92.2919 1.22078 92.0984 0.946913 91.7924C0.673049 91.4865 0.521273 91.0895 0.520736 90.6779L4.24028e-05 1.99301Z" fill="#BDD0FB"/>
</svg>
