<svg width="23" height="2" viewBox="0 0 23 2" fill="none" xmlns="http://www.w3.org/2000/svg">
<g id="Group" opacity="0.6">
<path id="Vector" d="M22.7568 1.62508C22.7894 1.62517 22.8216 1.61867 22.8516 1.60597C22.8816 1.59327 22.9088 1.57462 22.9314 1.55114C22.9541 1.52767 22.9719 1.49984 22.9836 1.46931C22.9954 1.43879 23.0009 1.4062 22.9999 1.37349L22.9789 0.66038C22.9762 0.592846 22.9482 0.528835 22.9004 0.481304C22.8526 0.433772 22.7887 0.406268 22.7215 0.404348L0.179549 0.000582668C0.15096 -0.00182778 0.122236 0.00326747 0.0961929 0.015369C0.0701494 0.0274705 0.0476758 0.0461635 0.0309738 0.0696193C0.0142719 0.0930751 0.00391192 0.120488 0.000909553 0.149178C-0.00209281 0.177868 0.00236757 0.206848 0.0138482 0.233286L0.418155 1.38793C0.44537 1.45497 0.490972 1.51286 0.549645 1.55485C0.608318 1.59683 0.677647 1.62119 0.749557 1.62508H22.7568Z" fill="white"/>
</g>
</svg>
