<svg width="23" height="21" viewBox="0 0 23 21" fill="none" xmlns="http://www.w3.org/2000/svg">
<path id="Vector" opacity="0.52" d="M0.00131701 1.2873L0.842114 19.4888C0.855427 19.7804 0.977884 20.0562 1.18493 20.2609C1.39199 20.4656 1.66833 20.584 1.95856 20.5924C5.31066 20.6878 15.7574 20.9438 21.6558 20.6343C21.9774 20.6175 22.281 20.4798 22.5063 20.2485C22.7317 20.0173 22.8625 19.7093 22.8726 19.3856C22.9835 15.9721 23.2314 6.03704 22.4577 1.88345C22.3964 1.55781 22.2266 1.26289 21.9763 1.04728C21.726 0.83166 21.4101 0.708219 21.0806 0.697277L1.26584 0.000737599C1.09693 -0.00514623 0.928633 0.024223 0.771569 0.0869966C0.614505 0.14977 0.472077 0.244584 0.35327 0.365461C0.234464 0.486338 0.141852 0.630657 0.0812767 0.789315C0.020701 0.947974 -0.00652258 1.11753 0.00131701 1.2873Z" fill="white"/>
</svg>
