<svg width="69" height="97" viewBox="0 0 69 97" fill="none" xmlns="http://www.w3.org/2000/svg">
<path id="Vector" d="M3.80945e-05 2.08229C-0.00175468 1.78597 0.05975 1.49272 0.180397 1.22237C0.301044 0.952021 0.47802 0.710876 0.699354 0.515235C0.920688 0.319593 1.18122 0.174017 1.46334 0.0883594C1.74545 0.00270177 2.04257 -0.0210445 2.33459 0.0187261C10.5624 1.14086 38.8561 4.61099 62.2488 2.80733C62.5021 2.78693 62.7569 2.81774 62.9982 2.89796C63.2395 2.97817 63.4623 3.10617 63.6536 3.27438C63.8449 3.4426 64.0007 3.64763 64.1119 3.87738C64.2231 4.10714 64.2874 4.35696 64.3011 4.61211L68.9646 92.8401C68.9955 93.4211 68.7965 93.9907 68.4111 94.4246C68.0256 94.8585 67.485 95.1213 66.9074 95.1557C57.0683 95.7413 16.5499 98.0046 2.09776 96.4826C1.67254 96.4374 1.27889 96.2359 0.99229 95.9168C0.705686 95.5978 0.546306 95.1836 0.544713 94.7536L3.80945e-05 2.08229Z" fill="url(#paint0_linear_1_360)"/>
<defs>
<linearGradient id="paint0_linear_1_360" x1="57.4472" y1="-7.80943" x2="-4.55723" y2="139.956" gradientUnits="userSpaceOnUse">
<stop stop-color="#4F52FF"/>
<stop offset="1" stop-color="#4042E2"/>
</linearGradient>
</defs>
</svg>
