<svg width="23" height="2" viewBox="0 0 23 2" fill="none" xmlns="http://www.w3.org/2000/svg">
<g id="Group" opacity="0.6">
<path id="Vector" d="M0.179532 0.000582612C0.150945 -0.0018276 0.122225 0.00326716 0.0961837 0.0153675C0.0701427 0.0274678 0.0476712 0.0461591 0.0309709 0.0696126C0.0142705 0.0930662 0.00391154 0.120477 0.000909466 0.149164C-0.00209261 0.177851 0.00236734 0.206828 0.0138469 0.233263L0.418115 1.3878C0.445328 1.45483 0.490925 1.51271 0.549592 1.5547C0.60826 1.59668 0.677582 1.62104 0.749485 1.62493H22.7569C22.7894 1.62509 22.8216 1.61866 22.8516 1.60602C22.8816 1.59338 22.9087 1.57479 22.9314 1.55135C22.9541 1.52792 22.9719 1.50014 22.9836 1.46965C22.9954 1.43916 23.0009 1.4066 22.9999 1.37392L22.9789 0.660317C22.9761 0.592887 22.948 0.52902 22.9002 0.48161C22.8525 0.4342 22.7886 0.40677 22.7215 0.404859L0.179532 0.000582612Z" fill="white"/>
</g>
</svg>
