<svg width="23" height="2" viewBox="0 0 23 2" fill="none" xmlns="http://www.w3.org/2000/svg">
<g id="Group" opacity="0.6">
<path id="Vector" d="M0.179532 0.000582612C0.150945 -0.0018276 0.122225 0.00326716 0.0961837 0.0153675C0.0701427 0.0274678 0.0476712 0.0461591 0.0309709 0.0696126C0.0142705 0.0930662 0.00391154 0.120477 0.000909466 0.149164C-0.00209261 0.177851 0.00236734 0.206828 0.0138469 0.233263L0.418115 1.3878C0.445301 1.4549 0.490876 1.51286 0.549538 1.55493C0.6082 1.59701 0.677537 1.62148 0.749485 1.62548H22.7569C22.7894 1.62557 22.8216 1.61907 22.8516 1.60637C22.8816 1.59367 22.9088 1.57503 22.9315 1.55155C22.9541 1.52808 22.9719 1.50025 22.9836 1.46973C22.9954 1.43921 23.0009 1.40663 22.9999 1.37392L22.9789 0.660872C22.9762 0.593345 22.9482 0.529341 22.9004 0.481813C22.8526 0.434286 22.7887 0.406785 22.7215 0.404865L0.179532 0.000582612Z" fill="white"/>
</g>
</svg>
