<svg width="52" height="2" viewBox="0 0 52 2" fill="none" xmlns="http://www.w3.org/2000/svg">
<g id="Group" opacity="0.6">
<path id="Vector" d="M51.7659 1.62502C51.798 1.62543 51.8299 1.61909 51.8595 1.60641C51.889 1.59374 51.9157 1.57501 51.9376 1.55142C51.9596 1.52782 51.9764 1.49987 51.987 1.46937C51.9976 1.43886 52.0018 1.40647 51.9993 1.37425L51.9524 0.660772C51.9463 0.593207 51.9159 0.530207 51.8668 0.483691C51.8177 0.437176 51.7533 0.410368 51.6859 0.408334L0.138526 0C0.00113887 0 -0.0413476 0.0859944 0.0441747 0.194181L1.02189 1.42862C1.07333 1.48655 1.13563 1.53371 1.20522 1.56741C1.2748 1.60111 1.35031 1.62069 1.42743 1.62502H51.7659Z" fill="white"/>
</g>
</svg>
