<svg width="13" height="3" viewBox="0 0 13 3" fill="none" xmlns="http://www.w3.org/2000/svg">
<g id="Group" opacity="0.6">
<path id="Vector" d="M0.217157 0.000730224C0.186292 -0.00192007 0.155236 0.00266547 0.126435 0.0141354C0.0976339 0.0256053 0.0718796 0.0436348 0.0511894 0.0668169C0.0304991 0.0899991 0.0154379 0.117697 0.00720196 0.147724C-0.00103396 0.177752 -0.00222389 0.20929 0.00372358 0.239859L0.251528 1.89823C0.263632 1.96687 0.298932 2.02922 0.351454 2.07472C0.403977 2.12022 0.470507 2.14609 0.539808 2.14798H12.7516C12.7845 2.14798 12.817 2.14142 12.8473 2.12869C12.8776 2.11597 12.9051 2.09733 12.9282 2.07385C12.9513 2.05036 12.9696 2.0225 12.9819 1.99188C12.9942 1.96126 13.0003 1.92848 13 1.89546L12.9861 0.789497C12.9844 0.721643 12.9573 0.656938 12.9102 0.608276C12.8632 0.559613 12.7996 0.530571 12.7322 0.526947L0.217157 0.000730224Z" fill="white"/>
</g>
</svg>
