<svg width="13" height="3" viewBox="0 0 13 3" fill="none" xmlns="http://www.w3.org/2000/svg">
<g id="Group" opacity="0.6">
<path id="Vector" d="M0.217166 0.000730255C0.1863 -0.00192016 0.155242 0.00266559 0.12644 0.014136C0.097638 0.0256064 0.0718759 0.0436366 0.0511848 0.0668198C0.0304936 0.0900029 0.0154385 0.117702 0.00720227 0.14773C-0.001034 0.177759 -0.00222398 0.209299 0.00372373 0.239869L0.251539 1.89831C0.263643 1.96695 0.298938 2.0293 0.351462 2.07481C0.403987 2.12031 0.470527 2.14619 0.539831 2.14807H12.7522C12.785 2.148 12.8174 2.14139 12.8477 2.12863C12.8779 2.11588 12.9054 2.09721 12.9284 2.07373C12.9514 2.05025 12.9696 2.02241 12.9819 1.99183C12.9942 1.96124 13.0003 1.92852 13 1.89554L12.9867 0.789531C12.9848 0.721624 12.9576 0.656913 12.9105 0.608261C12.8633 0.55961 12.7997 0.530586 12.7322 0.526969L0.217166 0.000730255Z" fill="white"/>
</g>
</svg>
