<svg width="8" height="7" viewBox="0 0 8 7" fill="none" xmlns="http://www.w3.org/2000/svg">
<path id="Vector" opacity="0.6" d="M0.808804 0.167076C2.12207 0.0659581 4.58079 0.0192861 5.93452 0.000139525C6.21295 -0.00406881 6.48454 0.0870315 6.70469 0.25849C6.92483 0.429949 7.08046 0.671579 7.14603 0.943706C7.40726 2.03267 7.76726 3.92339 7.72204 5.9272C7.7161 6.21546 7.59739 6.48975 7.39165 6.69058C7.1859 6.89141 6.90972 7.00258 6.62299 7L1.62461 6.94555C1.32801 6.94241 1.04307 6.82888 0.824824 6.62689C0.606578 6.42489 0.470495 6.14877 0.44285 5.85181L0.00370641 1.125C-0.00696964 1.00876 0.00547401 0.891545 0.040312 0.780188C0.07515 0.668831 0.131686 0.565554 0.206622 0.476393C0.281559 0.387231 0.373399 0.313964 0.476786 0.260857C0.580173 0.20775 0.693038 0.175872 0.808804 0.167076Z" fill="white"/>
</svg>
