<svg width="8" height="7" viewBox="0 0 8 7" fill="none" xmlns="http://www.w3.org/2000/svg">
<path id="Vector" opacity="0.6" d="M0.808266 0.167067C2.12153 0.0659493 4.58085 0.0192772 5.93458 0.000130699C6.21291 -0.00394088 6.48435 0.0872236 6.70438 0.258672C6.9244 0.43012 7.07995 0.671672 7.1455 0.943698C7.40672 2.03266 7.76731 3.92338 7.7215 5.92719C7.71556 6.21545 7.59685 6.48974 7.39111 6.69057C7.18536 6.8914 6.90918 7.00257 6.62245 6.99999L1.62407 6.94554C1.32753 6.94239 1.04267 6.82884 0.824522 6.62683C0.606373 6.42483 0.470413 6.14871 0.442907 5.8518L0.00376371 1.12499C-0.00699613 1.00878 0.00537082 0.891577 0.0401405 0.780223C0.0749102 0.668869 0.131387 0.565599 0.206277 0.476428C0.281166 0.387257 0.372964 0.313977 0.476321 0.260863C0.579677 0.207748 0.692523 0.17586 0.808266 0.167067Z" fill="white"/>
</svg>
