<svg width="4" height="4" viewBox="0 0 4 4" fill="none" xmlns="http://www.w3.org/2000/svg">
<path id="Vector" d="M1.98918 0.000243608C0.88951 -0.0166058 0 0.842717 0 1.91827C0 2.99382 0.88951 3.89105 1.98918 3.91983C3.08885 3.94862 4.00001 3.0893 4.00001 2.00251C4.00001 0.915727 3.09234 0.017795 1.98918 0.000243608ZM1.98918 2.87447C1.74387 2.87051 1.50966 2.77095 1.33591 2.59677C1.16216 2.42258 1.06245 2.18739 1.05778 1.94073C1.05901 1.82001 1.08425 1.70077 1.13201 1.59001C1.17977 1.47925 1.24908 1.37922 1.33588 1.29581C1.42267 1.2124 1.52519 1.14729 1.63739 1.10432C1.74958 1.06135 1.86919 1.04139 1.98918 1.04561C2.2354 1.04831 2.47087 1.14743 2.64557 1.32191C2.82027 1.4964 2.92043 1.7325 2.92477 1.98005C2.92356 2.1011 2.89819 2.22068 2.85016 2.33169C2.80214 2.4427 2.73242 2.54288 2.64517 2.6263C2.55791 2.70971 2.45489 2.77466 2.34221 2.81729C2.22953 2.85992 2.10948 2.87936 1.98918 2.87447Z" fill="#91B3FA"/>
</svg>
