<svg width="19" height="12" viewBox="0 0 19 12" fill="none" xmlns="http://www.w3.org/2000/svg">
<path id="Vector" d="M18.8939 1.35343C18.841 1.29389 18.7751 1.2474 18.7015 1.21756C18.6278 1.18772 18.5483 1.17533 18.4691 1.18136L3.26929 1.50253L2.88578 0.27615C2.85923 0.193108 2.80628 0.121139 2.73508 0.071313C2.66387 0.0214876 2.57835 -0.00343652 2.49169 0.000381518L0.40469 0.0564316C0.181721 0.0625971 0 0.218979 0 0.443739C0 0.6685 0.181163 0.815354 0.40469 0.810309L2.18845 0.76771L5.41537 11.137C5.44272 11.2227 5.4963 11.2976 5.56847 11.351C5.64064 11.4043 5.72771 11.4334 5.81728 11.434L16.4858 11.5781C16.7361 11.5814 16.9396 11.4234 16.9396 11.1857C16.9396 10.9481 16.7361 10.785 16.4858 10.7822L6.12832 10.6701L5.2972 7.97967L16.6792 7.99705C16.7906 7.99719 16.8991 7.96185 16.9893 7.89609C17.0794 7.83033 17.1465 7.73754 17.1809 7.63104L18.9775 1.79062C19.0015 1.71659 19.0064 1.63765 18.9918 1.56118C18.9771 1.48472 18.9435 1.41324 18.8939 1.35343Z" fill="#91B3FA"/>
</svg>
