<svg width="2" height="1" viewBox="0 0 2 1" fill="none" xmlns="http://www.w3.org/2000/svg">
<path id="Vector" d="M1.77447 0.525421H0.299627C0.26239 0.530756 0.224448 0.527989 0.188369 0.517299C0.152289 0.50661 0.118919 0.488248 0.0905089 0.463463C0.0620984 0.438678 0.0393126 0.408044 0.0236983 0.373637C0.00808412 0.339229 0 0.301852 0 0.264031C0 0.226211 0.00808412 0.188833 0.0236983 0.154426C0.0393126 0.120018 0.0620984 0.0893843 0.0905089 0.0645991C0.118919 0.0398139 0.152289 0.0214528 0.188369 0.0107633C0.224448 7.36795e-05 0.26239 -0.00269409 0.299627 0.00264116H1.77447C1.83706 0.0116092 1.89434 0.0429769 1.93577 0.0909959C1.97721 0.139015 2.00001 0.200458 2.00001 0.264031C2.00001 0.327604 1.97721 0.389037 1.93577 0.437056C1.89434 0.485075 1.83706 0.516453 1.77447 0.525421Z" fill="#91B3FA"/>
</svg>
