<svg width="10" height="10" viewBox="0 0 10 10" fill="none" xmlns="http://www.w3.org/2000/svg">
<path id="Vector" d="M7.33151 1.33318C5.14562 -0.196366 3.24446 -0.166114 1.90607 0.23112C1.31445 0.408668 0.802329 0.786932 0.456904 1.30149C0.11148 1.81605 -0.0458875 2.4351 0.0116019 3.05322L0.588858 9.38711L7.45632 10C7.45632 10 11.6197 4.33232 7.33151 1.33318ZM4.3115 6.44343C3.97271 6.44354 3.6415 6.34262 3.35975 6.15345C3.07801 5.96427 2.85838 5.69532 2.72866 5.38063C2.59893 5.06593 2.56494 4.71962 2.63096 4.38549C2.69699 4.05137 2.86007 3.74444 3.09959 3.50351C3.33912 3.26259 3.64431 3.09851 3.97658 3.03201C4.30885 2.96551 4.65327 2.99958 4.96628 3.12992C5.27929 3.26026 5.54684 3.48101 5.73507 3.76425C5.9233 4.04749 6.02377 4.38049 6.02377 4.72115C6.02384 4.9473 5.97961 5.17124 5.89359 5.3802C5.80757 5.58915 5.68146 5.77902 5.52245 5.93895C5.36345 6.09889 5.17467 6.22576 4.96689 6.31232C4.75911 6.39888 4.5364 6.44343 4.3115 6.44343Z" fill="url(#paint0_linear_1_390)"/>
<defs>
<linearGradient id="paint0_linear_1_390" x1="14.0847" y1="-7.75165" x2="-13.9502" y2="28.9259" gradientUnits="userSpaceOnUse">
<stop stop-color="#09005D"/>
<stop offset="1" stop-color="#1A0F91"/>
</linearGradient>
</defs>
</svg>
