<svg width="43" height="6" viewBox="0 0 43 6" fill="none" xmlns="http://www.w3.org/2000/svg">
<path id="Vector" d="M0.0862461 1.96139C0.111483 1.43269 0.338135 0.934037 0.719191 0.568851C1.10025 0.203664 1.60647 -3.51535e-05 2.13288 9.21622e-09H40.1626C40.8249 -5.37446e-05 41.4659 0.235034 41.9726 0.663804C42.4793 1.09257 42.8192 1.68749 42.9323 2.34363L42.9645 2.53056C43.0246 2.87918 43.0082 3.23681 42.9164 3.57838C42.8246 3.91995 42.6596 4.2372 42.433 4.5079C42.2064 4.7786 41.9236 4.9962 41.6046 5.14545C41.2856 5.2947 40.9379 5.37201 40.586 5.37193H1.56961C1.357 5.37196 1.1466 5.32855 0.951184 5.24434C0.755765 5.16013 0.579402 5.03687 0.432794 4.88205C0.286187 4.72722 0.172396 4.54405 0.0983245 4.34366C0.0242529 4.14328 -0.00855305 3.92985 0.00189695 3.71632L0.0862461 1.96139Z" fill="url(#paint0_linear_1_395)"/>
<defs>
<linearGradient id="paint0_linear_1_395" x1="31.2724" y1="-15.4172" x2="11.9638" y2="19.8427" gradientUnits="userSpaceOnUse">
<stop stop-color="#4F52FF"/>
<stop offset="1" stop-color="#4042E2"/>
</linearGradient>
</defs>
</svg>
