<svg width="5" height="6" viewBox="0 0 5 6" fill="none" xmlns="http://www.w3.org/2000/svg">
<path id="Vector" d="M0.4426 5.99994C0.400051 5.99944 0.359177 5.9832 0.327788 5.95431C0.296398 5.92542 0.276697 5.88592 0.272445 5.84335L0.17727 4.79936C0.17171 4.77516 0.171369 4.75004 0.17627 4.72569C0.181172 4.70134 0.191204 4.67833 0.205688 4.6582C0.220172 4.63808 0.238773 4.6213 0.260243 4.609C0.281712 4.59671 0.305549 4.58919 0.330154 4.58693C0.354758 4.58467 0.379561 4.58774 0.402888 4.59592C0.426215 4.60411 0.447526 4.61722 0.465392 4.63438C0.483259 4.65154 0.497261 4.67235 0.506463 4.6954C0.515665 4.71846 0.519856 4.74322 0.518743 4.76804L0.61391 5.81203C0.617614 5.85747 0.603434 5.90256 0.574417 5.93759C0.5454 5.97262 0.503868 5.9948 0.458753 5.99936L0.4426 5.99994ZM0.256292 3.95374C0.213245 3.95396 0.171661 3.93803 0.139664 3.90907C0.107666 3.88012 0.0875544 3.84021 0.0832502 3.79714L0.0111492 3.00429C-0.0447837 2.3945 0.110907 1.78404 0.451782 1.27656C0.792656 0.769089 1.2977 0.395891 1.88116 0.220336C2.72516 -0.0311188 3.61802 -0.0679929 4.47968 0.113032C4.51953 0.126727 4.55306 0.154575 4.57396 0.191344C4.59486 0.228113 4.60171 0.271284 4.59321 0.312765C4.58472 0.354247 4.56147 0.391191 4.52783 0.416671C4.49419 0.442151 4.45246 0.454417 4.41046 0.451172C3.60396 0.28129 2.76812 0.315568 1.97806 0.550929C1.4709 0.70384 1.03196 1.02845 0.735693 1.4697C0.439429 1.91094 0.304086 2.44166 0.352622 2.97181L0.424723 3.76466C0.428434 3.81001 0.41433 3.85502 0.385433 3.89003C0.356537 3.92505 0.315146 3.9473 0.270135 3.952L0.256292 3.95374Z" fill="#91B3FA"/>
</svg>
