<svg width="6" height="4" viewBox="0 0 6 4" fill="none" xmlns="http://www.w3.org/2000/svg">
<path id="Vector" d="M0.184345 3.5985C0.135454 3.5985 0.0885637 3.57897 0.0539923 3.54421C0.0194209 3.50945 0 3.4623 0 3.41314V1.99203C0.000812969 1.46434 0.20968 0.958519 0.580819 0.585449C0.951957 0.212378 1.45508 0.00250786 1.97986 0.00185421H5.78966C5.8158 -0.00189137 5.84244 5.17261e-05 5.86777 0.00755627C5.8931 0.0150608 5.91652 0.027951 5.93647 0.0453513C5.95641 0.0627516 5.97241 0.0842577 5.98337 0.108413C5.99433 0.132569 6.00001 0.15881 6.00001 0.185361C6.00001 0.211913 5.99433 0.238153 5.98337 0.262309C5.97241 0.286465 5.95641 0.307971 5.93647 0.325371C5.91652 0.342771 5.8931 0.355662 5.86777 0.363166C5.84244 0.370671 5.8158 0.372614 5.78966 0.368868H1.97986C1.55194 0.369522 1.14172 0.540746 0.839131 0.845006C0.536542 1.14927 0.366265 1.56174 0.365614 1.99203V3.41314C0.365621 3.46177 0.346619 3.50846 0.31271 3.54313C0.2788 3.57781 0.232702 3.59769 0.184345 3.5985Z" fill="#91B3FA"/>
</svg>
