<svg width="36" height="28" viewBox="0 0 36 28" fill="none" xmlns="http://www.w3.org/2000/svg">
<g id="Group" opacity="0.3">
<path id="Vector" d="M35.17 2.00271C35.0376 2.00253 34.9096 1.95497 34.8089 1.86854C34.7082 1.78212 34.6414 1.66248 34.6205 1.53104C34.575 1.24559 34.5229 0.956775 34.4652 0.671875C34.4507 0.599757 34.4504 0.525464 34.4644 0.453232C34.4784 0.381 34.5064 0.312244 34.5468 0.250895C34.5872 0.189545 34.6393 0.136808 34.6999 0.0956812C34.7606 0.0545543 34.8288 0.0258507 34.9005 0.0112074C34.9722 -0.00343583 35.0461 -0.0037335 35.118 0.0103363C35.1898 0.024406 35.2582 0.0525631 35.3192 0.0932039C35.3802 0.133845 35.4326 0.186168 35.4735 0.247192C35.5144 0.308217 35.543 0.376744 35.5575 0.448862C35.618 0.748257 35.6729 1.05268 35.7211 1.35319C35.7443 1.49993 35.7086 1.64991 35.6219 1.77023C35.5352 1.89054 35.4046 1.97135 35.2587 1.99491C35.2294 1.99998 35.1997 2.00259 35.17 2.00271Z" fill="#BDD0FB"/>
<path id="Vector_2" d="M13.7657 27.2951C13.5095 27.2951 13.2522 27.2908 12.9939 27.2822C12.8461 27.2773 12.7064 27.2135 12.6055 27.105C12.5045 26.9965 12.4505 26.852 12.4555 26.7035C12.4604 26.555 12.5238 26.4145 12.6317 26.313C12.7397 26.2114 12.8833 26.1572 13.031 26.1622C13.6271 26.1822 14.2226 26.1778 14.8053 26.1488C14.8784 26.1451 14.9515 26.156 15.0205 26.1807C15.0894 26.2055 15.1528 26.2436 15.2071 26.293C15.2613 26.3424 15.3054 26.4021 15.3367 26.4686C15.3681 26.5351 15.3861 26.6071 15.3897 26.6806C15.3934 26.7542 15.3826 26.8277 15.358 26.897C15.3334 26.9663 15.2954 27.0301 15.2463 27.0846C15.1972 27.1392 15.1378 27.1835 15.0717 27.215C15.0055 27.2465 14.9339 27.2646 14.8608 27.2683C14.5004 27.2861 14.1316 27.2951 13.7657 27.2951ZM10.0674 26.9806C10.0356 26.9805 10.0039 26.9779 9.97254 26.9728C9.36262 26.8674 8.74438 26.7347 8.14278 26.5786C7.9997 26.5417 7.87707 26.4491 7.80189 26.3212C7.72671 26.1933 7.70513 26.0406 7.7419 25.8968C7.77866 25.7529 7.87076 25.6296 7.99794 25.554C8.12511 25.4784 8.27693 25.4567 8.42002 25.4937C8.99057 25.642 9.57499 25.768 10.1572 25.8683C10.3042 25.8808 10.4404 25.9514 10.5356 26.0648C10.6309 26.1781 10.6774 26.3248 10.6651 26.4727C10.6527 26.6206 10.5825 26.7574 10.4697 26.8532C10.357 26.949 10.2111 26.9958 10.064 26.9834L10.0674 26.9806ZM17.7745 26.9198C17.6356 26.92 17.5016 26.8679 17.3988 26.7738C17.2961 26.6797 17.232 26.5504 17.2191 26.4113C17.2063 26.2722 17.2456 26.1332 17.3294 26.0218C17.4131 25.9103 17.5353 25.8343 17.6719 25.8087C18.2503 25.6972 18.8319 25.5634 19.4013 25.4045C19.5438 25.3648 19.696 25.3836 19.8247 25.4568C19.9533 25.5299 20.0477 25.6515 20.0872 25.7947C20.1267 25.9379 20.108 26.0911 20.0352 26.2204C19.9624 26.3497 19.8415 26.4447 19.6991 26.4844C19.0997 26.6517 18.487 26.795 17.8782 26.9104C17.844 26.9168 17.8093 26.92 17.7745 26.9198ZM5.47467 25.6548C5.402 25.6546 5.33005 25.6402 5.26286 25.6124C4.68842 25.3744 4.11731 25.1106 3.56506 24.823C3.43366 24.7549 3.33452 24.6372 3.28944 24.4957C3.24437 24.3542 3.25705 24.2005 3.32469 24.0683C3.39234 23.9362 3.50941 23.8365 3.65015 23.7912C3.79089 23.7459 3.94379 23.7586 4.07518 23.8266C4.59916 24.0982 5.14142 24.3502 5.68702 24.576C5.80659 24.6252 5.90541 24.7147 5.9666 24.8291C6.02778 24.9436 6.04753 25.0758 6.02244 25.2033C5.99735 25.3307 5.929 25.4454 5.82908 25.5278C5.72915 25.6102 5.60387 25.6551 5.47467 25.6548ZM22.3395 25.5149C22.2111 25.5152 22.0866 25.4709 21.9869 25.3895C21.8873 25.3082 21.8186 25.1947 21.7925 25.0684C21.7665 24.942 21.7846 24.8104 21.8438 24.6959C21.9031 24.5814 21.9998 24.491 22.1177 24.4399C22.6578 24.2052 23.195 23.9437 23.7157 23.6633C23.7802 23.6285 23.8508 23.6068 23.9236 23.5995C23.9964 23.5922 24.07 23.5994 24.14 23.6206C24.2101 23.6419 24.2753 23.6768 24.3319 23.7234C24.3885 23.77 24.4355 23.8273 24.47 23.8922C24.5046 23.957 24.5262 24.028 24.5335 24.1012C24.5407 24.1745 24.5336 24.2484 24.5125 24.3188C24.4913 24.3892 24.4566 24.4548 24.4103 24.5118C24.364 24.5687 24.3069 24.6159 24.2424 24.6507C23.6946 24.9462 23.1285 25.2216 22.5596 25.4686C22.4902 25.499 22.4152 25.5147 22.3395 25.5149ZM26.4869 23.1364C26.3693 23.1364 26.2546 23.099 26.1594 23.0295C26.0642 22.9599 25.9933 22.8619 25.9569 22.7493C25.9205 22.6368 25.9205 22.5156 25.9568 22.403C25.9932 22.2905 26.064 22.1924 26.1592 22.1228C26.6366 21.7738 27.1052 21.398 27.5515 21.0139C27.6069 20.9658 27.6712 20.9292 27.7407 20.9061C27.8102 20.883 27.8835 20.8739 27.9565 20.8793C28.0295 20.8848 28.1007 20.9046 28.1661 20.9377C28.2314 20.9707 28.2897 21.0164 28.3375 21.0722C28.3853 21.1279 28.4217 21.1925 28.4447 21.2624C28.4676 21.3323 28.4767 21.406 28.4713 21.4794C28.4659 21.5528 28.4462 21.6244 28.4133 21.6901C28.3804 21.7558 28.335 21.8144 28.2795 21.8625C27.8093 22.2695 27.3164 22.6625 26.8141 23.0294C26.7191 23.099 26.6045 23.1365 26.4869 23.1364ZM30.0206 19.9055C29.9135 19.9052 29.8087 19.8739 29.7188 19.8153C29.6289 19.7568 29.5576 19.6734 29.5136 19.5752C29.4696 19.477 29.4546 19.3681 29.4705 19.2616C29.4863 19.1551 29.5324 19.0554 29.6031 18.9744C29.9912 18.5284 30.3705 18.0623 30.722 17.5867C30.8102 17.4675 30.942 17.3884 31.0882 17.3668C31.2345 17.3452 31.3833 17.3829 31.5019 17.4716C31.6205 17.5603 31.6992 17.6928 31.7206 17.8399C31.7421 17.9869 31.7046 18.1365 31.6164 18.2558C31.246 18.7576 30.8501 19.2471 30.4387 19.716C30.3862 19.776 30.3215 19.824 30.249 19.8567C30.1765 19.8894 30.0978 19.9061 30.0184 19.9055H30.0206ZM32.7691 15.9766C32.6721 15.9772 32.5765 15.9523 32.4921 15.9042C32.4076 15.8561 32.3372 15.7865 32.2879 15.7025C32.2386 15.6185 32.212 15.5229 32.2109 15.4253C32.2099 15.3277 32.2343 15.2315 32.2817 15.1464C32.5662 14.6262 32.8312 14.0871 33.0707 13.5469C33.1004 13.4796 33.143 13.4189 33.196 13.3682C33.249 13.3175 33.3114 13.2778 33.3797 13.2513C33.4479 13.2248 33.5207 13.2122 33.5939 13.214C33.667 13.2158 33.7391 13.2321 33.806 13.262C33.8729 13.2918 33.9332 13.3346 33.9837 13.3879C34.0341 13.4412 34.0736 13.504 34.0999 13.5726C34.1262 13.6413 34.1388 13.7144 34.137 13.788C34.1352 13.8615 34.119 13.934 34.0893 14.0012C33.837 14.5716 33.5576 15.1386 33.2576 15.6861C33.2097 15.7743 33.1391 15.8478 33.0531 15.899C32.9671 15.9501 32.869 15.9769 32.7691 15.9766ZM34.5939 11.5353C34.5076 11.5351 34.4225 11.5148 34.3454 11.476C34.2682 11.4371 34.2011 11.3809 34.1492 11.3115C34.0973 11.2422 34.0621 11.1618 34.0463 11.0765C34.0305 10.9912 34.0346 10.9034 34.0583 10.82C34.2207 10.2507 34.3621 9.66755 34.4769 9.08493C34.5057 8.93921 34.5909 8.81096 34.7138 8.72842C34.8366 8.64587 34.9871 8.61578 35.132 8.64476C35.2769 8.67374 35.4044 8.75943 35.4865 8.88296C35.5686 9.0065 35.5986 9.15776 35.5698 9.30348C35.4489 9.91677 35.3003 10.5301 35.1289 11.13C35.0956 11.2469 35.0254 11.3497 34.9289 11.4231C34.8324 11.4964 34.7148 11.5361 34.5939 11.5364V11.5353ZM35.4029 6.8024C35.3912 6.8024 35.3796 6.8024 35.3679 6.8024C35.2948 6.79821 35.2233 6.77951 35.1574 6.74736C35.0915 6.71522 35.0326 6.67027 34.9841 6.61511C34.9356 6.55996 34.8984 6.4957 34.8747 6.42602C34.8511 6.35635 34.8414 6.28264 34.8462 6.20917C34.8722 5.77318 34.8855 5.33161 34.8855 4.89562C34.8855 4.73784 34.8855 4.58006 34.8805 4.4234C34.8789 4.34981 34.8917 4.27662 34.9182 4.20802C34.9448 4.13941 34.9845 4.07674 35.0351 4.02357C35.0857 3.97039 35.1462 3.92776 35.2132 3.89812C35.2802 3.86848 35.3524 3.8524 35.4256 3.85081C35.4989 3.84881 35.5718 3.86144 35.6402 3.88797C35.7086 3.9145 35.7711 3.9544 35.824 4.00537C35.877 4.05634 35.9194 4.11736 35.9487 4.18491C35.9781 4.25245 35.9938 4.32517 35.995 4.39887C35.9984 4.5639 36 4.72948 36 4.89562C36 5.35392 35.9861 5.8189 35.9584 6.27775C35.9501 6.42003 35.8878 6.55371 35.7845 6.65128C35.6812 6.74885 35.5446 6.80293 35.4029 6.8024Z" fill="#BDD0FB"/>
<path id="Vector_3" d="M1.27454 23.336C1.16004 23.3362 1.04828 23.3008 0.954611 23.2346C0.707871 23.0601 0.460021 22.8772 0.218271 22.6904C0.160201 22.6457 0.111457 22.5899 0.0748336 22.5262C0.0382099 22.4625 0.0144231 22.3922 0.00482066 22.3193C-0.00478176 22.2464 -8.79602e-06 22.1723 0.018872 22.1012C0.0377528 22.0301 0.0703727 21.9635 0.114862 21.9051C0.159352 21.8467 0.214846 21.7977 0.278172 21.7609C0.341497 21.7241 0.411413 21.7002 0.483933 21.6905C0.556453 21.6808 0.630147 21.6856 0.700821 21.7046C0.771496 21.7236 0.837765 21.7564 0.895834 21.8012C1.12594 21.9784 1.36103 22.1518 1.59557 22.3174C1.69433 22.3849 1.76879 22.4826 1.80788 22.596C1.84697 22.7095 1.8486 22.8326 1.81253 22.947C1.77646 23.0615 1.70462 23.1611 1.60769 23.2312C1.51075 23.3013 1.39392 23.3381 1.27454 23.336Z" fill="#BDD0FB"/>
</g>
</svg>
