<svg width="35" height="26" viewBox="0 0 35 26" fill="none" xmlns="http://www.w3.org/2000/svg">
<g id="Group" opacity="0.3">
<path id="Vector" d="M0.668006 25.0977C0.530804 25.0984 0.398273 25.0476 0.296291 24.9553C0.194309 24.863 0.130198 24.7358 0.116479 24.5986C0.0513992 23.9725 0.0122349 23.3342 0.000101335 22.7019C-0.00270645 22.5542 0.0529323 22.4113 0.154787 22.3047C0.256642 22.1981 0.396393 22.1366 0.54336 22.1335H0.554388C0.699334 22.1335 0.838456 22.1908 0.941668 22.2932C1.04488 22.3955 1.10389 22.5346 1.10591 22.6803C1.1175 23.2815 1.155 23.8876 1.21622 24.4827C1.22384 24.5556 1.21701 24.6292 1.19613 24.6995C1.17525 24.7697 1.14073 24.8351 1.09458 24.8918C1.04842 24.9485 0.991526 24.9955 0.927207 25.0299C0.862888 25.0644 0.792411 25.0858 0.719846 25.0927C0.702658 25.0952 0.685359 25.0969 0.668006 25.0977ZM0.70385 20.243C0.68234 20.243 0.660282 20.243 0.638221 20.2391C0.492243 20.2217 0.3591 20.1468 0.268082 20.0307C0.177064 19.9146 0.135622 19.767 0.152875 19.6202C0.22678 18.9924 0.328272 18.3613 0.45402 17.7452C0.46674 17.6718 0.493964 17.6017 0.534083 17.5391C0.574202 17.4764 0.626403 17.4225 0.687597 17.3805C0.748792 17.3385 0.817729 17.3093 0.890353 17.2946C0.962978 17.2798 1.0378 17.2799 1.11041 17.2947C1.18302 17.3095 1.25194 17.3388 1.31309 17.3809C1.37423 17.423 1.42637 17.4769 1.46641 17.5396C1.50646 17.6023 1.5336 17.6724 1.54623 17.7458C1.55887 17.8192 1.55674 17.8944 1.53997 17.967C1.42029 18.5526 1.32378 19.1521 1.25373 19.7489C1.23807 19.8845 1.17343 20.0097 1.07208 20.1007C0.970728 20.1917 0.839705 20.2421 0.70385 20.2424V20.243ZM1.80195 15.5164C1.73863 15.5163 1.67578 15.5054 1.61608 15.4842C1.47763 15.4345 1.36445 15.3317 1.30137 15.1982C1.2383 15.0646 1.23048 14.9114 1.27965 14.7721C1.49034 14.1776 1.72914 13.5848 1.99001 13.0108C2.05101 12.8764 2.16262 12.7718 2.30029 12.7201C2.43795 12.6684 2.5904 12.6739 2.7241 12.7352C2.85779 12.7965 2.96177 12.9087 3.01318 13.0472C3.06458 13.1856 3.0592 13.3389 2.99821 13.4733C2.75057 14.019 2.52389 14.5825 2.32369 15.1459C2.2857 15.2545 2.21506 15.3484 2.12158 15.4148C2.0281 15.4812 1.91639 15.5167 1.80195 15.5164ZM3.92367 11.1547C3.82438 11.1544 3.72699 11.1273 3.64164 11.0763C3.5563 11.0253 3.48613 10.9522 3.43847 10.8646C3.39081 10.777 3.36739 10.6782 3.37066 10.5784C3.37393 10.4786 3.40378 10.3815 3.45708 10.2973C3.79461 9.76546 4.15917 9.24361 4.54082 8.74006C4.58508 8.6818 4.64031 8.63288 4.70337 8.59608C4.76643 8.55928 4.83607 8.53533 4.90834 8.5256C4.9806 8.51587 5.05406 8.52054 5.12453 8.53936C5.195 8.55817 5.26109 8.59075 5.31903 8.63525C5.37697 8.67975 5.42562 8.73529 5.46222 8.7987C5.49882 8.8621 5.52264 8.93213 5.53232 9.00479C5.542 9.07745 5.53735 9.15132 5.51864 9.22218C5.49993 9.29303 5.46752 9.35949 5.42327 9.41776C5.06091 9.89358 4.71456 10.391 4.39412 10.8968C4.34397 10.9764 4.27445 11.0419 4.19213 11.087C4.10982 11.1322 4.01742 11.1554 3.92367 11.1547ZM6.95706 7.37804C6.84655 7.37939 6.73819 7.34732 6.64602 7.28599C6.55386 7.22466 6.48214 7.1369 6.44017 7.0341C6.3982 6.93129 6.38792 6.81818 6.41065 6.70942C6.43339 6.60067 6.4881 6.50129 6.56768 6.42418C7.01276 5.98052 7.48377 5.55239 7.96636 5.14866C8.07928 5.05402 8.22497 5.00836 8.37137 5.02172C8.51778 5.03508 8.65292 5.10638 8.74705 5.21993C8.84117 5.33348 8.88659 5.47997 8.87329 5.62718C8.86 5.7744 8.78909 5.91028 8.67617 6.00493C8.2173 6.38924 7.77002 6.79796 7.34644 7.21833C7.24314 7.3199 7.10431 7.37665 6.95982 7.37638L6.95706 7.37804ZM10.7477 4.37116C10.6262 4.37344 10.5073 4.33528 10.4095 4.26261C10.3118 4.18995 10.2407 4.08685 10.2072 3.96934C10.1737 3.85184 10.1798 3.7265 10.2245 3.61283C10.2692 3.49916 10.35 3.40351 10.4543 3.34077C10.9871 3.00802 11.5408 2.69358 12.1 2.40687C12.231 2.33973 12.3832 2.32766 12.523 2.37331C12.6629 2.41897 12.7789 2.51862 12.8457 2.65033C12.9125 2.78204 12.9245 2.93503 12.8791 3.07564C12.8337 3.21625 12.7346 3.33297 12.6036 3.40011C12.0719 3.6724 11.5463 3.97076 11.04 4.28742C10.9531 4.34182 10.8528 4.37081 10.7505 4.37116H10.7477ZM31.0577 3.04463C30.9786 3.04464 30.9006 3.02742 30.8288 2.99416C30.2866 2.74682 29.7257 2.51945 29.1637 2.31925C29.0949 2.29482 29.0316 2.25699 28.9773 2.20794C28.923 2.15889 28.8789 2.09957 28.8474 2.03338C28.816 1.96718 28.7978 1.89539 28.7939 1.82212C28.79 1.74885 28.8005 1.67553 28.8248 1.60635C28.8491 1.53716 28.8867 1.47347 28.9355 1.4189C28.9843 1.36433 29.0433 1.31995 29.1091 1.28831C29.175 1.25666 29.2463 1.23837 29.3192 1.23447C29.3921 1.23056 29.465 1.24113 29.5338 1.26557C30.1261 1.47686 30.7163 1.71588 31.2871 1.97652C31.4027 2.02901 31.497 2.11979 31.5541 2.23371C31.6111 2.34763 31.6276 2.4778 31.6008 2.60247C31.5739 2.72715 31.5054 2.83879 31.4065 2.91876C31.3077 2.99873 31.1845 3.04217 31.0577 3.04185V3.04463ZM15.1042 2.28542C14.9707 2.28972 14.8402 2.24519 14.737 2.16008C14.6337 2.07497 14.5646 1.95506 14.5426 1.82262C14.5205 1.69018 14.547 1.5542 14.6172 1.43993C14.6873 1.32565 14.7963 1.24084 14.9239 1.20124C15.5168 0.99549 16.1262 0.813035 16.7345 0.659419C16.8771 0.623384 17.028 0.645762 17.1541 0.721632C17.2803 0.797502 17.3713 0.92065 17.4071 1.06398C17.4429 1.20731 17.4207 1.35908 17.3452 1.48591C17.2698 1.61274 17.1473 1.70424 17.0048 1.74028C16.4268 1.88613 15.8466 2.05916 15.2851 2.25492C15.2278 2.2747 15.1676 2.285 15.107 2.28542H15.1042ZM26.4657 1.54729C26.4286 1.54708 26.3917 1.54336 26.3553 1.53619C25.7718 1.4164 25.1751 1.32102 24.5816 1.2517C24.4354 1.23457 24.3019 1.1597 24.2105 1.04358C24.1191 0.927465 24.0773 0.779604 24.0944 0.632523C24.1114 0.485442 24.1859 0.351191 24.3013 0.259305C24.4168 0.167419 24.5639 0.125427 24.7101 0.142562C25.3339 0.215765 25.9621 0.316137 26.5765 0.442025C26.7112 0.469461 26.831 0.546255 26.9126 0.657496C26.9942 0.768737 27.0317 0.906487 27.018 1.04401C27.0042 1.18153 26.9402 1.30902 26.8382 1.40171C26.7362 1.4944 26.6037 1.54569 26.4662 1.54562L26.4657 1.54729ZM19.8159 1.23007C19.7435 1.2339 19.671 1.22334 19.6026 1.199C19.5343 1.17466 19.4713 1.13702 19.4174 1.08823C19.3635 1.03944 19.3197 0.980442 19.2885 0.914621C19.2573 0.848801 19.2392 0.77744 19.2354 0.704613C19.2316 0.631786 19.2421 0.558924 19.2663 0.490177C19.2905 0.421431 19.328 0.358151 19.3765 0.303951C19.4745 0.194488 19.6117 0.128655 19.758 0.120933C20.3812 0.0538299 21.0155 0.0133433 21.6437 3.3577e-05H21.6552C21.8016 -0.00158432 21.9426 0.0553236 22.0472 0.158234C22.1518 0.261144 22.2115 0.401627 22.2131 0.548782C22.2147 0.695937 22.1581 0.837707 22.0558 0.942905C21.9534 1.0481 21.8137 1.10811 21.6674 1.10973C21.0706 1.12248 20.4684 1.1613 19.876 1.22508C19.8573 1.22896 19.8374 1.23007 19.8176 1.23007H19.8159Z" fill="#BDD0FB"/>
<path id="Vector_2" d="M34.4435 4.97903C34.3305 4.97926 34.2202 4.94461 34.1274 4.87976C33.893 4.71339 33.6509 4.55367 33.4105 4.3984C33.3489 4.3591 33.2956 4.308 33.2537 4.24801C33.2118 4.18802 33.182 4.12032 33.1661 4.04877C33.1502 3.97721 33.1485 3.90321 33.161 3.83098C33.1736 3.75876 33.2001 3.68972 33.2392 3.62782C33.2783 3.56591 33.3291 3.51236 33.3888 3.4702C33.4484 3.42804 33.5158 3.39812 33.5869 3.38213C33.6581 3.36614 33.7317 3.3644 33.8035 3.37701C33.8754 3.38962 33.944 3.41633 34.0056 3.45563C34.2609 3.61867 34.5152 3.78837 34.7623 3.96139C34.8592 4.0292 34.932 4.12634 34.9702 4.23869C35.0084 4.35104 35.0099 4.47272 34.9745 4.58598C34.9391 4.69925 34.8687 4.79819 34.7735 4.86839C34.6782 4.93859 34.5632 4.97638 34.4451 4.97625L34.4435 4.97903Z" fill="#BDD0FB"/>
</g>
</svg>
