<svg width="18" height="20" viewBox="0 0 18 20" fill="none" xmlns="http://www.w3.org/2000/svg">
<g id="Group" opacity="0.3">
<path id="Vector" d="M0.939019 19.6565C0.863659 19.6564 0.790356 19.6318 0.730055 19.5864C0.669755 19.5409 0.625697 19.4771 0.60446 19.4044C0.521242 19.1183 0.44477 18.826 0.379545 18.5354C0.361642 18.4457 0.379221 18.3526 0.428553 18.2758C0.477885 18.199 0.555067 18.1445 0.643694 18.1241C0.732321 18.1036 0.825394 18.1187 0.903121 18.1662C0.980848 18.2136 1.0371 18.2897 1.05991 18.3782C1.12344 18.6552 1.19542 18.934 1.27527 19.2065C1.29104 19.2592 1.29428 19.3149 1.28472 19.369C1.27517 19.4232 1.25308 19.4744 1.22025 19.5184C1.18741 19.5624 1.14477 19.598 1.09572 19.6224C1.04667 19.6468 0.99261 19.6593 0.937893 19.6588L0.939019 19.6565Z" fill="#BDD0FB"/>
<path id="Vector_2" d="M0.422828 17.0071C0.337219 17.0067 0.254781 16.9745 0.191214 16.9169C0.127647 16.8592 0.0874023 16.78 0.078152 16.6945C0.0262604 16.182 0.000180395 15.6672 3.94186e-10 15.1521C3.94186e-10 15.0446 -1.04326e-05 14.9361 0.0033633 14.8275C0.00834786 14.7355 0.0479439 14.6487 0.114132 14.5849C0.180321 14.5211 0.268161 14.4849 0.359859 14.4838C0.452326 14.4859 0.540211 14.5247 0.604282 14.5918C0.668352 14.6588 0.703394 14.7487 0.701735 14.8417C0.701735 14.9457 0.697795 15.0492 0.697795 15.1521C0.697978 15.643 0.722942 16.1337 0.772584 16.6221C0.781857 16.7147 0.75421 16.8073 0.695708 16.8795C0.637207 16.9517 0.552624 16.9976 0.460511 17.0071C0.447391 17.0071 0.434824 17.0071 0.422828 17.0071ZM0.499305 13.3643C0.482568 13.3643 0.465857 13.3631 0.449268 13.3609C0.357975 13.3476 0.275623 13.2985 0.220207 13.2244C0.164791 13.1502 0.140814 13.057 0.153504 12.9651C0.241591 12.3483 0.367405 11.7374 0.530234 11.1361C0.554542 11.0461 0.613397 10.9695 0.693855 10.9232C0.774313 10.8769 0.869777 10.8646 0.959253 10.889C1.04873 10.9135 1.1249 10.9726 1.17098 11.0535C1.21706 11.1344 1.22929 11.2304 1.20498 11.3204C1.04977 11.8941 0.929579 12.4768 0.845107 13.0652C0.832814 13.1485 0.791112 13.2246 0.727612 13.2795C0.664112 13.3344 0.583065 13.3645 0.499305 13.3643ZM1.4552 9.84869C1.40965 9.84874 1.36454 9.83971 1.32249 9.82212C1.23693 9.78669 1.16886 9.71855 1.13323 9.63268C1.09759 9.54681 1.09731 9.45024 1.13244 9.36416C1.3686 8.78747 1.64014 8.22609 1.94551 7.68325C1.99107 7.60228 2.06676 7.54282 2.15591 7.51796C2.24507 7.49309 2.3404 7.50485 2.42093 7.55066C2.50146 7.59647 2.56059 7.67257 2.58532 7.76222C2.61005 7.85187 2.59834 7.94773 2.55278 8.0287C2.26195 8.54646 2.00318 9.08178 1.77795 9.63159C1.75132 9.69624 1.70612 9.75143 1.64813 9.79011C1.59013 9.82879 1.52197 9.84918 1.45238 9.84869H1.4552ZM3.23821 6.67629C3.17347 6.67655 3.10994 6.65868 3.05472 6.62468C2.99951 6.59067 2.9548 6.54188 2.92562 6.48377C2.89643 6.42566 2.88392 6.36053 2.88947 6.29567C2.89502 6.23081 2.91843 6.16878 2.95707 6.11654C3.32664 5.61575 3.72643 5.13823 4.15418 4.68668C4.21808 4.6192 4.30602 4.58001 4.39866 4.57773C4.49129 4.57545 4.58104 4.61026 4.64815 4.67452C4.71525 4.73877 4.75423 4.82719 4.7565 4.92034C4.75877 5.01349 4.72414 5.10373 4.66024 5.17121C4.25257 5.60169 3.87155 6.05694 3.51935 6.53437C3.48649 6.57885 3.44364 6.61488 3.39429 6.63954C3.34495 6.6642 3.2905 6.6768 3.2354 6.67629H3.23821ZM5.73814 4.03816C5.6663 4.03802 5.59625 4.01561 5.53754 3.97396C5.47883 3.93231 5.43433 3.87346 5.4101 3.80545C5.38588 3.73743 5.38311 3.66356 5.40217 3.59391C5.42123 3.52425 5.46119 3.46221 5.5166 3.41623C5.99602 3.02163 6.49868 2.65648 7.02185 2.32277C7.10007 2.27291 7.19478 2.25634 7.28515 2.27669C7.3299 2.28677 7.37224 2.30561 7.40974 2.33214C7.44725 2.35867 7.47918 2.39238 7.50374 2.43132C7.52829 2.47026 7.54496 2.51369 7.55283 2.55911C7.56069 2.60454 7.55958 2.65108 7.54956 2.69607C7.53953 2.74107 7.52079 2.78364 7.4944 2.82135C7.46801 2.85906 7.4345 2.89118 7.39577 2.91587C6.89628 3.23369 6.41669 3.58205 5.95969 3.95901C5.89647 4.01106 5.81705 4.03907 5.73534 4.03816H5.73814ZM8.79362 2.09039C8.71436 2.09035 8.63748 2.0632 8.5756 2.01341C8.51372 1.96361 8.47053 1.89412 8.45313 1.81637C8.43573 1.73862 8.44515 1.65723 8.47985 1.58558C8.51454 1.51393 8.57246 1.45627 8.64406 1.42209C9.20441 1.15617 9.78054 0.925244 10.3692 0.730618C10.4129 0.715395 10.4593 0.709097 10.5055 0.712066C10.5518 0.715035 10.5969 0.727214 10.6384 0.747914C10.6799 0.768614 10.7169 0.797411 10.7472 0.832626C10.7776 0.867841 10.8006 0.908773 10.8151 0.953034C10.8295 0.997295 10.835 1.044 10.8313 1.09043C10.8276 1.13687 10.8148 1.18211 10.7935 1.2235C10.7723 1.26489 10.7431 1.30162 10.7076 1.33154C10.6721 1.36146 10.631 1.38398 10.5868 1.39778C10.0258 1.58314 9.47668 1.80313 8.94262 2.05647C8.8961 2.07885 8.84519 2.09043 8.79362 2.09039ZM12.2337 0.953959C12.1472 0.953477 12.064 0.920727 12.0001 0.862055C11.9362 0.803384 11.8963 0.722963 11.888 0.636381C11.8798 0.5498 11.9038 0.463221 11.9554 0.393412C12.007 0.323603 12.0825 0.275534 12.1674 0.258524C12.7757 0.139391 13.3906 0.0578183 14.0088 0.014271C14.0546 0.0110412 14.1005 0.0169071 14.144 0.0315254C14.1875 0.0461437 14.2277 0.0692254 14.2623 0.0994663C14.2969 0.129707 14.3253 0.166509 14.3458 0.207769C14.3662 0.249028 14.3784 0.29394 14.3816 0.339937C14.3848 0.385934 14.379 0.432115 14.3645 0.475847C14.35 0.519578 14.327 0.560011 14.2969 0.594819C14.2668 0.629628 14.2302 0.658131 14.1892 0.678717C14.1482 0.699303 14.1035 0.711569 14.0578 0.714799C13.468 0.755684 12.8813 0.833475 12.3012 0.947733C12.2797 0.951898 12.2578 0.953987 12.2359 0.953959H12.2337ZM17.6525 0.909857C17.6319 0.909912 17.6114 0.908014 17.5912 0.904197C17.0849 0.813927 16.5742 0.751074 16.0612 0.715917C15.9836 0.709698 15.9071 0.705174 15.8307 0.701217C15.7397 0.694321 15.6551 0.651946 15.5949 0.583141C15.5346 0.514337 15.5035 0.424563 15.5082 0.333008C15.5129 0.241452 15.553 0.155387 15.62 0.0931857C15.687 0.0309843 15.7755 -0.00241609 15.8666 0.000136213C15.9482 0.00465935 16.0297 0.00918359 16.1112 0.0154029C16.6483 0.0527509 17.1831 0.118807 17.7132 0.21329C17.7988 0.228928 17.8756 0.276171 17.9284 0.345749C17.9812 0.415326 18.0063 0.502219 17.9987 0.589408C17.9911 0.676597 17.9513 0.757791 17.8873 0.817069C17.8233 0.876347 17.7395 0.90944 17.6525 0.909857Z" fill="#BDD0FB"/>
</g>
</svg>
