<svg width="19" height="19" viewBox="0 0 19 19" fill="none" xmlns="http://www.w3.org/2000/svg">
<path id="Vector" d="M9.46456 18.9988C9.14082 18.9988 8.81728 18.9824 8.49519 18.9495C8.39318 18.9394 8.29117 18.9271 8.18916 18.9136C7.68855 18.8461 7.19404 18.7387 6.71031 18.5925L6.69081 18.5863L6.63506 18.5689L6.52636 18.5348C6.48126 18.5202 6.44194 18.4917 6.41408 18.4532C6.38622 18.4147 6.37128 18.3683 6.3714 18.3206C6.37133 18.2968 6.37509 18.2732 6.38255 18.2506C6.39152 18.2224 6.40596 18.1963 6.42502 18.1737C6.44409 18.1512 6.46739 18.1326 6.49361 18.1192C6.51983 18.1058 6.54845 18.0977 6.5778 18.0954C6.60714 18.0931 6.63664 18.0967 6.6646 18.106C8.41591 18.6763 10.299 18.6935 12.0603 18.1551C13.8216 17.6168 15.3766 16.5488 16.516 15.0949C17.5763 13.7471 18.2302 12.1219 18.4001 10.4119C18.4312 10.1028 18.4468 9.79225 18.4469 9.48151C18.4419 7.24274 17.6119 5.08528 16.1172 3.42595C14.6226 1.76662 12.5693 0.72318 10.3542 0.497201C5.41486 -0.00725213 0.993898 3.62424 0.493886 8.58806C0.330246 10.2159 0.607818 11.8579 1.29715 13.34C1.31108 13.3698 1.31831 13.4023 1.31832 13.4353C1.3196 13.4872 1.30292 13.538 1.27113 13.5789C1.23933 13.6198 1.1944 13.6483 1.144 13.6597C1.0936 13.671 1.04086 13.6643 0.994781 13.6409C0.9487 13.6175 0.912137 13.5787 0.891338 13.5311C0.167672 11.9753 -0.123766 10.2516 0.0479448 8.54267C0.573041 3.32999 5.21807 -0.478635 10.3994 0.0487982C12.7248 0.286138 14.8803 1.38164 16.4494 3.12367C18.0185 4.8657 18.8898 7.13065 18.8951 9.48095C18.8951 9.80685 18.8787 10.1325 18.846 10.4568C18.6104 12.7955 17.5208 14.9633 15.7881 16.5412C14.0553 18.1191 11.8023 18.9952 9.46456 19V18.9988Z" fill="url(#paint0_linear_1_405)"/>
<defs>
<linearGradient id="paint0_linear_1_405" x1="6.70285e-06" y1="9.49888" x2="18.8951" y2="9.49888" gradientUnits="userSpaceOnUse">
<stop stop-color="#DAE3FE"/>
<stop offset="1" stop-color="#E9EFFD"/>
</linearGradient>
</defs>
</svg>
