<svg width="34" height="34" viewBox="0 0 34 34" fill="none" xmlns="http://www.w3.org/2000/svg">
<path id="Vector" d="M5.10204 29.1693C5.13658 29.2118 5.18338 29.2423 5.23597 29.2568C5.28855 29.2713 5.34431 29.2689 5.39552 29.2501L8.38949 28.1432C9.58522 29.0702 10.9233 29.795 12.3509 30.2891L13.0807 33.409C13.0932 33.4624 13.122 33.5106 13.163 33.5468C13.204 33.583 13.2552 33.6055 13.3095 33.611L17.1158 33.9987C17.1701 34.0042 17.2247 33.9926 17.2721 33.9655C17.3195 33.9383 17.3573 33.897 17.3803 33.8472L18.7194 30.9377C20.2172 30.7419 21.6732 30.3017 23.0301 29.6344L25.7423 31.3226C25.7887 31.3513 25.8428 31.3649 25.8971 31.3614C25.9515 31.3579 26.0035 31.3374 26.0458 31.3029L29.0102 28.8703C29.0524 28.8356 29.0828 28.7885 29.0972 28.7356C29.1115 28.6828 29.1092 28.6267 29.0905 28.5752L27.9897 25.5653C28.9116 24.3629 29.6325 23.0175 30.1239 21.582L33.2266 20.8476C33.2798 20.8351 33.3277 20.8062 33.3637 20.765C33.3997 20.7237 33.422 20.6722 33.4275 20.6176L33.813 16.7902C33.8185 16.7356 33.807 16.6807 33.78 16.633C33.753 16.5854 33.7119 16.5474 33.6624 16.5243L30.7688 15.1778C30.574 13.6717 30.1362 12.2077 29.4727 10.8433L31.1516 8.11616C31.1802 8.0695 31.1936 8.01503 31.1901 7.96033C31.1864 7.90563 31.166 7.85341 31.1315 7.81095L28.7128 4.83077C28.6784 4.78822 28.6316 4.75756 28.5789 4.74307C28.5263 4.72859 28.4705 4.731 28.4193 4.74997L25.4259 5.85689C24.2302 4.92968 22.8922 4.20467 21.4645 3.71039L20.7347 0.590511C20.7222 0.537163 20.6934 0.489074 20.6524 0.452965C20.6114 0.416857 20.5602 0.394527 20.5059 0.389096L16.6996 0.00143004C16.6453 -0.00429044 16.5906 0.00724112 16.5431 0.0344124C16.4957 0.0615837 16.4579 0.103025 16.4351 0.152905L15.096 3.06184C13.5977 3.25834 12.1413 3.69931 10.7842 4.36736L8.072 2.67922C8.02571 2.6502 7.97155 2.63649 7.91711 2.64001C7.86267 2.64354 7.81069 2.66411 7.76848 2.69886L4.8041 5.13092C4.76192 5.16565 4.73152 5.21272 4.71713 5.26559C4.70273 5.31847 4.70504 5.37453 4.72375 5.42602L5.82459 8.4365C4.90267 9.63884 4.18183 10.9843 3.69044 12.4198L0.587673 13.1542C0.534592 13.1668 0.486739 13.1958 0.450747 13.237C0.414755 13.2782 0.392404 13.3297 0.386806 13.3842L0.00126796 17.2116C-0.00408507 17.2661 0.00759651 17.321 0.0346959 17.3685C0.0617953 17.4161 0.102963 17.454 0.15247 17.4769L3.04544 18.8234C3.2405 20.3296 3.67827 21.7938 4.34156 23.1585L2.66268 25.8851C2.63402 25.9318 2.62055 25.9864 2.62415 26.0412C2.62775 26.096 2.64825 26.1483 2.68278 26.1908L5.10204 29.1693Z" fill="#473ACC"/>
</svg>
