<svg width="23" height="9" viewBox="0 0 23 9" fill="none" xmlns="http://www.w3.org/2000/svg">
<g id="Group" opacity="0.3">
<path id="Vector" d="M9.58599 8.92962C9.49507 8.92658 9.40884 8.88829 9.34538 8.82275C9.28192 8.75721 9.24616 8.66952 9.24558 8.57806C9.24499 8.48659 9.27963 8.39844 9.34224 8.33208C9.40485 8.26573 9.49058 8.22632 9.58145 8.22211C10.1677 8.21425 10.753 8.17084 11.334 8.09212C11.4266 8.07957 11.5203 8.1045 11.5946 8.16144C11.6688 8.21837 11.7176 8.30264 11.7301 8.3957C11.7425 8.48877 11.7177 8.58302 11.6611 8.6577C11.6045 8.73238 11.5207 8.78139 11.4281 8.79394C10.819 8.87597 10.2056 8.92128 9.59109 8.92962H9.58599ZM7.78751 8.8441H7.74951C7.1392 8.77769 6.53334 8.67489 5.93515 8.53624C5.84469 8.51458 5.76643 8.4578 5.71745 8.37832C5.66847 8.29884 5.65274 8.2031 5.67371 8.11201C5.69467 8.02091 5.75062 7.94185 5.82935 7.89209C5.90808 7.84233 6.00318 7.8259 6.09391 7.8464C6.66556 7.97889 7.24453 8.07712 7.82776 8.14057C7.91784 8.14948 8.00102 8.19298 8.06 8.26201C8.11898 8.33105 8.1492 8.42031 8.14438 8.51119C8.13956 8.60207 8.10006 8.68758 8.03411 8.74991C7.96816 8.81224 7.88084 8.84659 7.79033 8.84581L7.78751 8.8441ZM13.1472 8.44502C13.0617 8.44527 12.9789 8.41412 12.9145 8.3574C12.8502 8.30068 12.8086 8.2223 12.7976 8.13695C12.7866 8.0516 12.807 7.96515 12.8548 7.89382C12.9027 7.82248 12.9748 7.77116 13.0577 7.74948C13.625 7.59923 14.1828 7.41475 14.728 7.19704C14.8142 7.16528 14.9093 7.16861 14.993 7.20631C15.0768 7.244 15.1426 7.31308 15.1764 7.39885C15.2103 7.48461 15.2095 7.58029 15.1742 7.66548C15.139 7.75067 15.0721 7.81864 14.9877 7.85494C14.4162 8.0831 13.8315 8.27635 13.2368 8.43362C13.2076 8.44149 13.1775 8.44551 13.1472 8.44559V8.44502ZM4.28522 8.02769C4.24403 8.02743 4.20318 8.02011 4.16445 8.00603C3.58646 7.79408 3.02201 7.54656 2.47427 7.26488C2.39382 7.2207 2.33367 7.14673 2.30661 7.05867C2.27954 6.97061 2.28771 6.87541 2.32935 6.79331C2.37099 6.7112 2.44282 6.64866 2.52959 6.61897C2.61637 6.58928 2.71124 6.59479 2.79404 6.63432C3.31661 6.90244 3.85492 7.13834 4.40598 7.34071C4.48209 7.37034 4.5456 7.42563 4.58565 7.49714C4.62569 7.56865 4.63979 7.65193 4.62553 7.73273C4.61126 7.81354 4.56952 7.88684 4.50745 7.94013C4.44537 7.99341 4.36682 8.02336 4.28522 8.02485V8.02769ZM16.4862 7.11095C16.4079 7.11124 16.3317 7.08525 16.2697 7.03711C16.2077 6.98896 16.1634 6.92141 16.1439 6.84513C16.1244 6.76884 16.1307 6.68819 16.1619 6.61594C16.1931 6.54368 16.2474 6.48394 16.3161 6.44618C16.8307 6.16383 17.3278 5.85026 17.8045 5.5072C17.8421 5.48014 17.8846 5.46078 17.9297 5.45025C17.9747 5.43971 18.0214 5.43819 18.067 5.44579C18.1126 5.45339 18.1563 5.46995 18.1955 5.49452C18.2348 5.51909 18.2689 5.55121 18.2958 5.58902C18.3227 5.62683 18.3419 5.6696 18.3524 5.71488C18.3629 5.76017 18.3644 5.80709 18.3569 5.85296C18.3493 5.89883 18.3328 5.94276 18.3084 5.98224C18.284 6.02171 18.252 6.05596 18.2144 6.08303C17.7142 6.44215 17.1932 6.77094 16.6541 7.06762C16.6026 7.09601 16.5449 7.11091 16.4862 7.11095ZM19.4091 5.00949C19.3382 5.00944 19.269 4.98788 19.2105 4.94765C19.152 4.90741 19.107 4.85037 19.0812 4.78398C19.0555 4.71758 19.0503 4.64493 19.0663 4.57551C19.0823 4.5061 19.1188 4.44315 19.1709 4.3949C19.6033 3.99623 20.0115 3.57187 20.3933 3.12411C20.4546 3.05464 20.5406 3.01217 20.6327 3.00582C20.7248 2.99948 20.8157 3.02977 20.8859 3.09019C20.956 3.1506 20.9997 3.23629 21.0076 3.3288C21.0155 3.42131 20.9869 3.51324 20.928 3.58477C20.5278 4.0541 20.0999 4.49884 19.6466 4.91657C19.5818 4.97634 19.497 5.00949 19.4091 5.00949ZM21.7473 2.26438C21.6837 2.26428 21.6212 2.24681 21.5667 2.21387C21.5121 2.18092 21.4674 2.13373 21.4374 2.07728C21.4074 2.02084 21.3931 1.95726 21.3962 1.89333C21.3993 1.8294 21.4195 1.7675 21.4547 1.71421C21.78 1.22333 22.075 0.712887 22.3381 0.185734C22.3817 0.104702 22.4549 0.0439235 22.5423 0.0162995C22.6297 -0.0113245 22.7243 -0.00362202 22.8061 0.0377763C22.888 0.0791747 22.9505 0.151007 22.9805 0.238027C23.0106 0.325047 23.0057 0.420397 22.9669 0.50385C22.6907 1.05646 22.3813 1.59165 22.0404 2.10646C22.0084 2.15513 21.9649 2.19504 21.9137 2.22261C21.8625 2.25017 21.8054 2.26453 21.7473 2.26438Z" fill="#BDD0FB"/>
<path id="Vector_2" d="M1.06926 6.37611C0.998908 6.37602 0.930195 6.35477 0.871947 6.3151C0.622472 6.14406 0.37696 5.96734 0.142227 5.78661C0.104745 5.75864 0.0731753 5.72343 0.0493439 5.68307C0.0255125 5.64271 0.00989927 5.59799 0.00341459 5.55151C-0.0030701 5.50503 -0.000300048 5.45772 0.0115678 5.41232C0.0234357 5.36693 0.0441643 5.32436 0.0725439 5.28709C0.100924 5.24983 0.136385 5.2186 0.176875 5.19524C0.217364 5.17188 0.262073 5.15685 0.308392 5.15102C0.354711 5.14519 0.401714 5.14868 0.446678 5.16129C0.491643 5.1739 0.53367 5.19538 0.570306 5.22447C0.794266 5.39551 1.02843 5.56655 1.26657 5.72903C1.3289 5.77153 1.37604 5.833 1.40106 5.90442C1.42609 5.97585 1.42768 6.05344 1.4056 6.12584C1.38353 6.19824 1.33894 6.26162 1.2784 6.30666C1.21786 6.35171 1.14457 6.37605 1.06926 6.37611Z" fill="#BDD0FB"/>
</g>
</svg>
