<svg width="8" height="8" viewBox="0 0 8 8" fill="none" xmlns="http://www.w3.org/2000/svg">
<path id="Vector" d="M3.97651 7.99996C2.94678 7.99957 1.95733 7.59769 1.21622 6.87885C0.475108 6.16 0.0400872 5.18019 0.00263476 4.14547C-0.0348176 3.11075 0.328206 2.10173 1.01539 1.33061C1.70257 0.559492 2.66036 0.0863595 3.68733 0.0107007C4.7143 -0.0649581 5.73044 0.262758 6.52206 0.924929C7.31368 1.5871 7.8191 2.53213 7.93204 3.56129C8.04497 4.59045 7.75661 5.62355 7.12761 6.44334C6.49861 7.26312 5.57798 7.80573 4.55931 7.95703C4.36635 7.98567 4.17156 8.00002 3.97651 7.99996ZM3.98575 0.93357C3.26047 0.931739 2.55825 1.18979 2.00507 1.66144C1.45188 2.13309 1.08391 2.78749 0.967139 3.50726C0.85037 4.22704 0.992459 4.9651 1.3679 5.58907C1.74334 6.21304 2.32759 6.6821 3.01585 6.91212C3.70411 7.14215 4.45136 7.11809 5.12357 6.84426C5.79579 6.57043 6.34898 6.06474 6.68395 5.41789C7.01892 4.77105 7.11376 4.02536 6.95143 3.31457C6.78911 2.60379 6.38024 1.97441 5.79818 1.53931C5.27409 1.14754 4.6388 0.935219 3.98575 0.93357Z" fill="white"/>
</svg>
