<svg width="6" height="6" viewBox="0 0 6 6" fill="none" xmlns="http://www.w3.org/2000/svg">
<path id="Vector" d="M2.98168 5.99998C2.2095 5.99951 1.46759 5.69801 0.911901 5.15888C0.356215 4.61976 0.0300529 3.885 0.00197507 3.10908C-0.0261028 2.33315 0.246082 1.5765 0.761332 0.998192C1.27658 0.419887 1.99476 0.0649784 2.76486 0.00807358C3.53496 -0.0488312 4.29701 0.196704 4.8908 0.693059C5.48459 1.18941 5.86387 1.89792 5.9489 2.66964C6.03392 3.44136 5.81808 4.21617 5.34674 4.83118C4.87541 5.44619 4.18528 5.85351 3.42147 5.96749C3.27585 5.98903 3.12887 5.99989 2.98168 5.99998ZM2.98929 0.807356C2.67481 0.807189 2.36398 0.875167 2.07797 1.00666C1.79197 1.13814 1.5375 1.33004 1.33189 1.56932C1.12628 1.80859 0.974362 2.08961 0.886481 2.39323C0.798599 2.69685 0.776817 3.01594 0.822614 3.32879C0.907492 3.90605 1.21683 4.42583 1.68263 4.77388C2.14843 5.12194 2.73261 5.2698 3.30678 5.18499C3.85416 5.10488 4.35106 4.81931 4.6975 4.38571C5.04394 3.95211 5.21422 3.40266 5.17407 2.84792C5.13392 2.29319 4.88631 1.77432 4.48108 1.39573C4.07585 1.01714 3.54307 0.806922 2.98992 0.807356H2.98929Z" fill="url(#paint0_linear_1_413)"/>
<defs>
<linearGradient id="paint0_linear_1_413" x1="0.0127414" y1="3.00828" x2="5.96394" y2="3.00828" gradientUnits="userSpaceOnUse">
<stop stop-color="#DAE3FE"/>
<stop offset="1" stop-color="#E9EFFD"/>
</linearGradient>
</defs>
</svg>
