<svg width="10" height="1" viewBox="0 0 10 1" fill="none" xmlns="http://www.w3.org/2000/svg">
<path id="Vector" d="M0.281305 0C1.99424 0.148863 4.96823 0.390991 7.31199 0.494417C8.7217 0.554202 9.53268 0.417898 10 0.230175C10 0.282786 10 0.333004 9.99585 0.379636C9.98936 0.500116 9.93864 0.613878 9.85351 0.698919C9.76839 0.78396 9.65492 0.834227 9.53506 0.839972C6.46871 1.01566 3.39499 1.01884 0.328278 0.849533C0.26904 0.846569 0.211559 0.828315 0.16137 0.796535C0.111181 0.764756 0.0699719 0.720529 0.0417173 0.668092C0.0134626 0.615656 -0.000890695 0.556778 4.27921e-05 0.497147C0.000976279 0.437516 0.0171625 0.379133 0.0470445 0.327617C0.117326 0.212977 0.195612 0.103497 0.281305 0Z" fill="url(#paint0_linear_1_415)"/>
<defs>
<linearGradient id="paint0_linear_1_415" x1="10" y1="0.483057" x2="-0.00170856" y2="0.483057" gradientUnits="userSpaceOnUse">
<stop stop-color="#4F52FF"/>
<stop offset="1" stop-color="#4042E2"/>
</linearGradient>
</defs>
</svg>
