<svg width="23" height="23" viewBox="0 0 23 23" fill="none" xmlns="http://www.w3.org/2000/svg">
<path id="Vector" d="M3.45083 19.7303C3.47387 19.7594 3.50543 19.7805 3.54104 19.7907C3.57666 19.8009 3.61454 19.7996 3.64938 19.787L5.67443 19.0377C6.48356 19.6653 7.38917 20.1557 8.35551 20.4897L8.84964 22.6003C8.85803 22.6364 8.87745 22.669 8.90515 22.6935C8.93286 22.718 8.96749 22.7332 9.0042 22.737L11.5792 22.999C11.6159 23.0028 11.6528 22.995 11.6849 22.9767C11.7169 22.9584 11.7425 22.9305 11.758 22.8969L12.6606 20.9287C13.6739 20.796 14.6589 20.4981 15.5769 20.0468L17.4118 21.1885C17.4432 21.208 17.4798 21.2173 17.5166 21.2149C17.5533 21.2126 17.5885 21.1988 17.6171 21.1755L19.6225 19.5306C19.6514 19.5074 19.6723 19.4757 19.6825 19.4399C19.6926 19.4041 19.6913 19.366 19.6789 19.331L18.9343 17.2947C19.5581 16.4808 20.0456 15.5701 20.3778 14.5983L22.4773 14.102C22.5132 14.0934 22.5455 14.0738 22.5698 14.0458C22.5941 14.0179 22.6091 13.983 22.6127 13.946L22.8738 11.3568C22.8774 11.3199 22.8695 11.2828 22.8512 11.2506C22.8329 11.2184 22.8052 11.1926 22.7717 11.177L20.8144 10.2695C20.6824 9.25058 20.3861 8.26013 19.9372 7.33708L21.0733 5.49256C21.0926 5.46099 21.1017 5.42416 21.0993 5.38717C21.0968 5.35017 21.083 5.31486 21.0597 5.28611L19.4239 3.26973C19.4008 3.24066 19.3693 3.21958 19.3337 3.20941C19.2981 3.19924 19.2602 3.2005 19.2253 3.21301L17.2003 3.96227C16.3911 3.33486 15.4855 2.8444 14.5192 2.51025L14.0251 0.39972C14.0167 0.363585 13.9973 0.330992 13.9696 0.306485C13.9419 0.281978 13.9072 0.266787 13.8705 0.263032L11.2955 0.000981154C11.2588 -0.00291168 11.2218 0.00484032 11.1898 0.023151C11.1577 0.0414617 11.1321 0.0694146 11.1167 0.103079L10.2142 2.07124C9.20085 2.20397 8.21584 2.50187 7.29785 2.95323L5.4629 1.81147C5.43161 1.7918 5.39498 1.78248 5.35815 1.78482C5.32132 1.78716 5.28615 1.80104 5.25758 1.82452L3.25227 3.46938C3.22336 3.49261 3.20239 3.52433 3.19228 3.56013C3.18217 3.59592 3.18342 3.63399 3.19586 3.66904L3.94044 5.70526C3.31668 6.51927 2.82896 7.43001 2.4964 8.4017L0.397462 8.898C0.361519 8.90662 0.329121 8.92626 0.304766 8.9542C0.280411 8.98215 0.265295 9.01701 0.26151 9.05398L0.00091157 11.6432C-0.0028283 11.6801 0.0049984 11.7173 0.023304 11.7496C0.0416097 11.7818 0.0694688 11.8075 0.103 11.823L2.06037 12.7305C2.19225 13.7494 2.48831 14.7398 2.93694 15.6629L1.80089 17.5074C1.7814 17.539 1.77223 17.5758 1.77465 17.6128C1.77708 17.6499 1.79099 17.6852 1.81443 17.7139L3.45083 19.7303Z" fill="#473ACC"/>
</svg>
