<svg width="13" height="13" viewBox="0 0 13 13" fill="none" xmlns="http://www.w3.org/2000/svg">
<path id="Vector" d="M6.46887 13.0001C6.2516 13.0001 6.03322 12.9884 5.81264 12.9667C5.37464 12.9222 4.94229 12.833 4.52228 12.7004L4.46699 12.6826C4.39796 12.6603 4.33776 12.6165 4.29504 12.5575C4.25232 12.4986 4.2293 12.4276 4.22928 12.3547C4.22925 12.3184 4.23503 12.2823 4.24641 12.2479C4.27441 12.1609 4.3356 12.0886 4.41656 12.0469C4.49751 12.0052 4.5916 11.9976 4.67819 12.0256C5.06947 12.1528 5.47312 12.2377 5.8823 12.279L5.94919 12.2857C6.90325 12.375 7.86435 12.2221 8.7444 11.841C9.22247 11.6332 9.6706 11.3617 10.0768 11.0338L10.0867 11.0261L10.1177 11.001C10.707 10.52 11.1957 9.92626 11.5553 9.25413C11.915 8.582 12.1385 7.84483 12.213 7.08526C12.2329 6.8857 12.2428 6.68613 12.2428 6.48823C12.2411 5.61851 12.0453 4.76028 11.6697 3.97682C11.2942 3.19336 10.7485 2.50467 10.073 1.96154C9.39741 1.41842 8.6092 1.03471 7.7665 0.838735C6.92381 0.642759 6.04812 0.63952 5.204 0.829234C4.35989 1.01895 3.56889 1.39678 2.88936 1.93487C2.20984 2.47297 1.65913 3.1576 1.27784 3.93825C0.896546 4.7189 0.694396 5.57566 0.68632 6.44534C0.678244 7.31502 0.864436 8.17543 1.23117 8.9631C1.26654 9.04546 1.26864 9.13844 1.23701 9.22233C1.20538 9.30623 1.14252 9.37444 1.06173 9.41253C0.980947 9.45062 0.888584 9.45558 0.804219 9.42637C0.719854 9.39716 0.650108 9.33608 0.609763 9.25606C0.199563 8.37498 -0.00871096 7.41255 0.000279134 6.43975C0.00926923 5.46694 0.235301 4.50858 0.661714 3.63531C1.08813 2.76205 1.70404 1.99616 2.46404 1.39413C3.22403 0.792104 4.10874 0.36929 5.0529 0.15686C5.99706 -0.0555689 6.97659 -0.0521963 7.91928 0.166741C8.86197 0.385677 9.74375 0.81459 10.4996 1.42185C11.2555 2.0291 11.8662 2.79922 12.2866 3.6754C12.7071 4.55159 12.9266 5.51149 12.9289 6.48433C12.9289 6.70712 12.9177 6.92977 12.8952 7.15141C12.7327 8.75267 11.9859 10.2366 10.7991 11.3167C9.6123 12.3969 8.06961 12.9966 6.46887 13.0001Z" fill="url(#paint0_linear_1_414)"/>
<defs>
<linearGradient id="paint0_linear_1_414" x1="-0.00057193" y1="6.49935" x2="12.9289" y2="6.49935" gradientUnits="userSpaceOnUse">
<stop stop-color="#DAE3FE"/>
<stop offset="1" stop-color="#E9EFFD"/>
</linearGradient>
</defs>
</svg>
