<svg width="34" height="27" viewBox="0 0 34 27" fill="none" xmlns="http://www.w3.org/2000/svg">
<path id="Vector" d="M0 5.48829C0.417407 2.71247 1.37555 1.06112 1.97041 0.269956C4.53735 1.43538 7.87438 1.80796 12.1266 0.326067C12.5186 0.190071 12.9274 0.109067 13.3414 0.0853485C15.6048 -0.0481959 23.0612 -0.291721 29.2319 1.75802C29.8719 1.97012 30.4603 2.31551 30.9587 2.77166C31.457 3.22781 31.8542 3.78447 32.1242 4.40534C33.7932 8.25737 36.4958 17.0303 28.9936 21.4569C28.511 20.2483 27.9043 19.0937 27.1834 18.0117C28.3915 15.9625 28.7492 13.1643 26.6052 9.51986C25.0427 13.7641 24.3084 19.9565 24.1555 22.6981C24.1049 23.6009 24.2618 24.5034 24.6142 25.3353L24.6527 25.4262C24.6704 25.4683 24.6787 25.5137 24.677 25.5594C24.6753 25.605 24.6636 25.6497 24.6429 25.6903C24.6221 25.7309 24.5928 25.7665 24.5568 25.7944C24.5209 25.8224 24.4794 25.8421 24.4351 25.8521C20.2119 26.806 15.8191 26.5468 14.5066 26.4379C14.3928 26.4285 14.285 26.3832 14.1983 26.3086C14.1116 26.2339 14.0506 26.1337 14.0239 26.0221C11.9703 17.321 11.9659 11.3856 12.4686 7.63341C10.5457 8.06266 4.67128 8.98401 0 5.48829Z" fill="#2EE8AE"/>
</svg>
