<svg width="10" height="10" viewBox="0 0 10 10" fill="none" xmlns="http://www.w3.org/2000/svg">
<path id="Vector" d="M5.66723 8.10833L5.55566 8.0586C5.52194 8.0438 5.4916 8.02222 5.46651 7.99517C5.44141 7.96812 5.4221 7.93619 5.40976 7.90135C5.39741 7.8665 5.39231 7.82948 5.39475 7.79257C5.3972 7.75566 5.40714 7.71965 5.42396 7.68676C5.70059 7.14838 6.24062 5.91606 5.54301 5.62865C4.64469 5.25797 1.08534 4.52991 0.316999 3.25769C-0.420865 2.03694 0.233033 0.461116 1.21589 0.0129465C1.24721 -0.00180593 1.28293 -0.00403811 1.31581 0.00669918C1.3487 0.0174365 1.3763 0.0403405 1.39302 0.0707748L1.47469 0.226329C1.48712 0.249971 1.50629 0.269345 1.52974 0.281955C1.55319 0.294565 1.57985 0.299839 1.6063 0.297104C1.63276 0.29437 1.65779 0.283746 1.6782 0.266602C1.69861 0.249458 1.71346 0.226577 1.72084 0.200888C1.72782 0.176008 1.74184 0.153701 1.76118 0.136672C1.78052 0.119642 1.80437 0.108621 1.82982 0.104948C1.85527 0.101275 1.88123 0.105103 1.90456 0.115974C1.92788 0.126845 1.94757 0.144293 1.96123 0.166193C2.19703 0.546703 2.83483 1.16257 4.53887 1.47889C6.96123 1.92822 8.56463 2.91361 8.60258 4.597C8.60291 4.62102 8.60964 4.64452 8.62209 4.66504C8.63453 4.68555 8.65224 4.70233 8.67333 4.71362C8.69443 4.72491 8.71816 4.73029 8.74203 4.72921C8.76591 4.72812 8.78905 4.7206 8.80905 4.70744C8.98791 4.59815 9.27374 4.54668 9.65618 4.86994C10.3216 5.43203 10.0496 6.89104 8.59108 8.09155C8.57468 8.1044 8.56152 8.12096 8.55267 8.13987C8.54382 8.15879 8.53951 8.17954 8.54013 8.20044C8.54075 8.22134 8.54625 8.2418 8.55621 8.26015C8.56616 8.27851 8.58028 8.29426 8.59742 8.3061C8.86197 8.47959 9.25591 8.89074 8.23452 9.44011C7.17862 10.0074 6.38957 9.96057 6.08591 9.91084C6.06808 9.90783 6.05104 9.90118 6.03585 9.89132C6.02066 9.88145 6.00762 9.86857 5.99756 9.85347C5.98749 9.83836 5.9806 9.82135 5.9773 9.80347C5.974 9.7856 5.97436 9.76723 5.97837 9.74949L6.3056 8.27429C6.3098 8.25468 6.30958 8.23438 6.30498 8.21486C6.30037 8.19534 6.29149 8.1771 6.27898 8.16147C6.26647 8.14584 6.25065 8.13322 6.23267 8.12453C6.21469 8.11583 6.195 8.11129 6.17505 8.11122L5.66723 8.10833Z" fill="url(#paint0_linear_1_428)"/>
<defs>
<linearGradient id="paint0_linear_1_428" x1="7.19702" y1="1.5107" x2="-0.352801" y2="11.1781" gradientUnits="userSpaceOnUse">
<stop stop-color="#09005D"/>
<stop offset="1" stop-color="#1A0F91"/>
</linearGradient>
</defs>
</svg>
