<svg width="15" height="16" viewBox="0 0 15 16" fill="none" xmlns="http://www.w3.org/2000/svg">
<path id="Vector" d="M0.0420986 0C0.0420986 0 4.04498 0.887745 6.47901 2.01765C6.96119 2.2418 7.34751 2.63229 7.5679 3.1183C8.29611 4.72507 10.4745 8.74201 14.7016 10.6633C14.0933 11.4753 13.1134 13.1641 12.6865 16C10.1492 14.1006 7.95883 10.9295 6.90703 5.72816C6.90703 5.72816 6.10805 6.16543 5.10762 5.67766C4.57972 5.42 3.97022 5.05446 3.50966 4.76696C3.05231 4.48471 2.72046 4.03637 2.58285 3.51482C2.40822 2.8262 2.51094 2.22424 2.51094 1.57637L0.456426 0.935376C0.456426 0.935376 -0.164494 0.706407 0.0420986 0Z" fill="url(#paint0_linear_1_423)"/>
<defs>
<linearGradient id="paint0_linear_1_423" x1="6.84654" y1="4.93051" x2="19.7349" y2="21.6051" gradientUnits="userSpaceOnUse">
<stop stop-color="#FEBBBA"/>
<stop offset="1" stop-color="#FF928E"/>
</linearGradient>
</defs>
</svg>
