<svg width="5" height="5" viewBox="0 0 5 5" fill="none" xmlns="http://www.w3.org/2000/svg">
<path id="Vector" d="M4.72983 5C4.76846 5.0001 4.80632 4.98906 4.8389 4.96818C4.86212 4.95391 4.8823 4.93515 4.89826 4.91299C4.91423 4.89084 4.92567 4.86572 4.93193 4.83909C4.93819 4.81247 4.93914 4.78487 4.93473 4.75787C4.93032 4.73087 4.92063 4.70502 4.90624 4.6818L2.29109 0.484222C2.27603 0.460358 2.25635 0.439778 2.23321 0.423726C2.21008 0.407675 2.18396 0.396472 2.15643 0.390784L0.23143 0.00149217C0.179809 -0.0047602 0.127742 0.00877962 0.0856059 0.0394098C0.0434699 0.0700399 0.0143587 0.115517 0.00408017 0.166766C-0.00619836 0.218015 0.00310665 0.271283 0.0301431 0.31594C0.0571795 0.360597 0.0999658 0.393356 0.149962 0.40771L1.98743 0.779398L4.55544 4.90387C4.57408 4.93339 4.59984 4.95769 4.63033 4.9745C4.66083 4.99131 4.69505 5.00008 4.72983 5Z" fill="url(#paint0_linear_1_422)"/>
<defs>
<linearGradient id="paint0_linear_1_422" x1="16.1142" y1="-14.1098" x2="6.19848" y2="-2.18477" gradientUnits="userSpaceOnUse">
<stop stop-color="#09005D"/>
<stop offset="1" stop-color="#1A0F91"/>
</linearGradient>
</defs>
</svg>
