<svg width="2" height="6" viewBox="0 0 2 6" fill="none" xmlns="http://www.w3.org/2000/svg">
<path id="Vector" d="M0.183409 6.00003C0.226707 5.99942 0.268353 5.98321 0.300754 5.95432C0.333155 5.92544 0.354154 5.8858 0.359933 5.84265C0.868323 1.97969 1.90393 0.293456 1.91453 0.27689C1.93946 0.236182 1.94742 0.187228 1.93669 0.140653C1.92596 0.094078 1.89741 0.0536322 1.85721 0.0280914C1.81702 0.00255049 1.76844 -0.0060241 1.722 0.00422122C1.67556 0.0144665 1.635 0.042709 1.60913 0.082823C1.565 0.152639 0.522337 1.84064 0.00159085 5.79472C-0.00155309 5.81838 -2.70994e-05 5.84243 0.00608009 5.8655C0.0121873 5.88857 0.0227544 5.9102 0.0371816 5.92916C0.0516087 5.94812 0.0696071 5.96403 0.0901546 5.97599C0.110702 5.98795 0.133398 5.99571 0.156933 5.99884L0.183409 6.00003Z" fill="url(#paint0_linear_1_425)"/>
<defs>
<linearGradient id="paint0_linear_1_425" x1="38.5262" y1="-25.1533" x2="4.55839" y2="0.032626" gradientUnits="userSpaceOnUse">
<stop stop-color="#4F52FF"/>
<stop offset="1" stop-color="#4042E2"/>
</linearGradient>
</defs>
</svg>
