<svg width="17" height="2" viewBox="0 0 17 2" fill="none" xmlns="http://www.w3.org/2000/svg">
<path id="Vector" d="M16.3499 1.40665H16.3142L0.7109 1.38952C0.618515 1.39218 0.526537 1.3762 0.440408 1.34249C0.35428 1.30878 0.275753 1.25803 0.20947 1.19327C0.143187 1.1285 0.0904996 1.05103 0.0545199 0.965425C0.0185401 0.879823 0 0.787829 0 0.694896C0 0.601963 0.0185401 0.509984 0.0545199 0.424382C0.0904996 0.33878 0.143187 0.261304 0.20947 0.196539C0.275753 0.131774 0.35428 0.0810306 0.440408 0.0473207C0.526537 0.0136108 0.618515 -0.00237804 0.7109 0.000285629L16.3136 0.0168329C16.4931 0.0180568 16.665 0.089437 16.7931 0.215875C16.9212 0.342312 16.9953 0.513899 16.9998 0.694311C17.0043 0.874722 16.9388 1.04981 16.8172 1.18255C16.6956 1.31528 16.5274 1.39524 16.3482 1.40551L16.3499 1.40665Z" fill="url(#paint0_linear_1_432)"/>
<defs>
<linearGradient id="paint0_linear_1_432" x1="18.9916" y1="-2.75684" x2="6.59358" y2="1.28685" gradientUnits="userSpaceOnUse">
<stop stop-color="#09005D"/>
<stop offset="1" stop-color="#1A0F91"/>
</linearGradient>
</defs>
</svg>
