<svg width="22" height="14" viewBox="0 0 22 14" fill="none" xmlns="http://www.w3.org/2000/svg">
<path id="Vector" d="M1.02349 3.42346e-05H13.8562C14.3183 -0.0010325 14.7714 0.129498 15.1628 0.376511C15.5543 0.623525 15.8682 0.976928 16.0683 1.39585L22 13.9125H6.05225C5.75522 13.9132 5.46478 13.8245 5.21836 13.6578C4.97195 13.491 4.78085 13.2539 4.6697 12.9769L0.0705691 1.39472C0.0097085 1.23928 -0.012281 1.07121 0.00652647 0.905229C0.0253339 0.739251 0.0843608 0.580441 0.178437 0.442753C0.272512 0.305064 0.39876 0.192701 0.546097 0.115512C0.693433 0.0383232 0.857357 -0.00133389 1.02349 3.42346e-05Z" fill="url(#paint0_linear_1_433)"/>
<defs>
<linearGradient id="paint0_linear_1_433" x1="16.0991" y1="1.84477" x2="7.29079" y2="11.104" gradientUnits="userSpaceOnUse">
<stop stop-color="#09005D"/>
<stop offset="1" stop-color="#1A0F91"/>
</linearGradient>
</defs>
</svg>
