<svg width="4" height="4" viewBox="0 0 4 4" fill="none" xmlns="http://www.w3.org/2000/svg">
<path id="Vector" d="M3.11799 3.99995C3.15816 3.99958 3.19743 3.98787 3.23129 3.96615C3.26516 3.94442 3.29228 3.91356 3.30954 3.87708C3.32681 3.84061 3.33353 3.79999 3.32894 3.75985C3.32436 3.71972 3.30865 3.68169 3.2836 3.65011C3.09851 3.42201 1.46117 1.41111 0.830038 1.05007C0.600408 0.919926 0.463322 0.784881 0.434792 0.660336C0.421798 0.591843 0.431838 0.52095 0.463324 0.458825L2.38735 0.846456L3.47775 1.78683C3.52075 1.82395 3.57664 1.84237 3.63315 1.83804C3.68965 1.83371 3.74214 1.80699 3.77905 1.76375C3.81596 1.72051 3.83428 1.6643 3.82997 1.60748C3.82566 1.55066 3.79909 1.4979 3.75609 1.46079L2.62324 0.48122C2.59539 0.457594 2.56216 0.441247 2.52652 0.433637L0.395829 0.004727C0.35443 -0.00425927 0.311294 -0.000373047 0.272144 0.0158732C0.232994 0.0321194 0.199681 0.0599605 0.176634 0.0956901C0.0207643 0.327987 -0.0321216 0.544888 0.0186754 0.756894C0.0778225 1.00808 0.274053 1.22569 0.61989 1.4216C1.09446 1.69168 2.46389 3.31566 2.95168 3.9195C2.97176 3.94444 2.99709 3.9646 3.02584 3.97852C3.0546 3.99243 3.08608 3.99975 3.11799 3.99995Z" fill="#F8A570"/>
</svg>
