<svg width="187" height="123" viewBox="0 0 187 123" fill="none" xmlns="http://www.w3.org/2000/svg">
<g id="Group 25">
<path id="Vector" d="M124.97 8H44.0301C41.2521 8 39 10.214 39 12.9452V118.055C39 120.786 41.2521 123 44.0301 123H124.97C127.748 123 130 120.786 130 118.055V12.9452C130 10.214 127.748 8 124.97 8Z" fill="#1D2238"/>
<path id="Vector_2" d="M123 14H45V116H123V14Z" fill="white"/>
<path id="Vector_3" d="M90.2282 5.76254C90.2095 4.22819 89.5451 2.76264 88.3791 1.68384C87.2131 0.605033 85.6396 0 84 0C82.3604 0 80.7869 0.605033 79.6209 1.68384C78.4549 2.76264 77.7905 4.22819 77.7718 5.76254H72V15H96V5.76254H90.2282ZM83.9996 6.68538C83.5655 6.68538 83.1411 6.5649 82.7802 6.33919C82.4192 6.11348 82.1379 5.79268 81.9718 5.41733C81.8056 5.04199 81.7622 4.62898 81.8469 4.23052C81.9316 3.83206 82.1406 3.46605 82.4476 3.17877C82.7545 2.8915 83.1456 2.69586 83.5714 2.6166C83.9972 2.53735 84.4385 2.57803 84.8396 2.7335C85.2406 2.88897 85.5834 3.15225 85.8246 3.49005C86.0658 3.82785 86.1945 4.22499 86.1945 4.63126C86.1945 5.17604 85.9632 5.69852 85.5516 6.08374C85.14 6.46896 84.5817 6.68538 83.9996 6.68538Z" fill="#473ACC"/>
<path id="Vector_4" d="M121 25H67V28H121V25Z" fill="#F1F2F5"/>
<path id="Vector_5" d="M121 32H67V35H121V32Z" fill="#F1F2F5"/>
<path id="Vector_6" d="M93 38H67V41H93V38Z" fill="#F1F2F5"/>
<path id="Vector_7" d="M65 41H49V24H65V41ZM49.5126 40.5061H64.49V24.4939H49.51L49.5126 40.5061Z" fill="#9EA9BD"/>
<path id="Vector_8" d="M55.1177 28.0371L58.6222 32.7093L68.2843 24L70 26.1233L58.1215 37L53 29.8847L55.1177 28.0371Z" fill="#473ACC"/>
<path id="Vector_9" d="M121 46H67V49H121V46Z" fill="#F1F2F5"/>
<path id="Vector_10" d="M121 53H67V56H121V53Z" fill="#F1F2F5"/>
<path id="Vector_11" d="M93 58H67V62H93V58Z" fill="#F1F2F5"/>
<path id="Vector_12" d="M65 62H49V45H65V62ZM49.5126 61.5061H64.49V45.4939H49.51L49.5126 61.5061Z" fill="#9EA9BD"/>
<path id="Vector_13" d="M55.1177 49.0371L58.6222 53.7093L68.2843 45L70 47.1233L58.1215 58L53 50.8839L55.1177 49.0371Z" fill="#473ACC"/>
<path id="Vector_14" d="M121 67H67V70H121V67Z" fill="#F1F2F5"/>
<path id="Vector_15" d="M121 73H67V77H121V73Z" fill="#F1F2F5"/>
<path id="Vector_16" d="M93 79H67V83H93V79Z" fill="#F1F2F5"/>
<path id="Vector_17" d="M65 83H49V67H65V83ZM49.5126 82.5352H64.49V67.4648H49.51L49.5126 82.5352Z" fill="#9EA9BD"/>
<path id="Vector_18" d="M55.1177 70.0376L58.6222 74.7096L68.2843 66L70 68.1239L58.1215 79L53 71.8843L55.1177 70.0376Z" fill="#473ACC"/>
<path id="Vector_19" d="M121 88H67V91H121V88Z" fill="#F1F2F5"/>
<path id="Vector_20" d="M121 94H67V98H121V94Z" fill="#F1F2F5"/>
<path id="Vector_21" d="M93 100H67V104H93V100Z" fill="#F1F2F5"/>
<path id="Vector_22" d="M65 104H49V88H65V104ZM49.5126 103.535H64.49V88.4649H49.51L49.5126 103.535Z" fill="#9EA9BD"/>
<path id="Vector_23" d="M55.1177 91.0376L58.6222 95.7088L68.2843 87L70 89.1239L58.1215 100L53 92.8843L55.1177 91.0376Z" fill="#473ACC"/>
<path id="Vector_24" d="M169 99H144V123H169V99Z" fill="#221D75"/>
<path id="Vector_25" d="M158 99H155V102H158V99Z" fill="white"/>
<path id="Vector_26" d="M187 99H169V123H187V99Z" fill="#30299D"/>
<path id="Vector_27" d="M179 99H177V102H179V99Z" fill="white"/>
<path id="Vector_28" d="M164 51H140V99H164V51Z" fill="#221D75"/>
<path id="Vector_29" d="M153 51H151V58H153V51Z" fill="white"/>
<path id="Vector_30" d="M183 51H164V99H183V51Z" fill="#473ACC"/>
<path id="Vector_31" d="M174 51H173V58H174V51Z" fill="white"/>
<path id="Vector_32" d="M130 99H98V123H130V99Z" fill="#473ACC"/>
<path id="Vector_33" d="M116 99H111V102H116V99Z" fill="white"/>
<path id="Vector_34" d="M151 99H130V123H151V99Z" fill="#5B4BFD"/>
<path id="Vector_35" d="M142 99H139V102H142V99Z" fill="white"/>
<path id="Vector_36" d="M127 74H101V99H127V74Z" fill="#2EE8AE"/>
<path id="Vector_37" d="M116 74H112V78H116V74Z" fill="#1D2238"/>
<path id="Vector_38" d="M144 74H127V99H144V74Z" fill="#83FFD8"/>
<path id="Vector_39" d="M137 74H134V78H137V74Z" fill="white"/>
<path id="Vector_40" d="M27 49.4748L26.2232 50L22.079 43.7355C22.0101 43.6314 21.9848 43.5039 22.0089 43.3809C22.0329 43.258 22.1042 43.1498 22.2071 43.08C22.2581 43.0454 22.3154 43.0213 22.3756 43.0092C22.4359 42.997 22.4979 42.9969 22.5582 43.0091C22.6184 43.0212 22.6758 43.0452 22.7268 43.0797C22.7779 43.1143 22.8217 43.1586 22.8558 43.2104L27 49.4748Z" fill="#1D2238"/>
<path id="Vector_41" d="M23 51.5629C23 51.5629 23.2802 48.247 23.8622 48.0939C24.4443 47.9408 26.1694 48 26.5129 48.0939C26.8563 48.1878 27.8055 49.0452 28 49.9054L24.3184 55L23 51.5629Z" fill="#EB9481"/>
<path id="Vector_42" d="M18.7029 28C19.3381 28.7446 19.7705 29.6067 19.9669 30.5203C20.0861 31.1073 19.8878 31.7042 19.2962 32L16 28H18.7029Z" fill="#1D2238"/>
<path id="Vector_43" d="M14.0628 27C12.8195 27.0002 11.6221 27.487 10.7099 28.3633C9.79769 29.2396 9.23791 30.4407 9.14246 31.7265L9.10249 31.7199L8.03448 38.6272C7.97803 38.9893 7.991 39.3594 8.07263 39.7162C8.15427 40.0731 8.30297 40.4098 8.51023 40.7069C8.71748 41.0041 8.97921 41.2559 9.28043 41.448C9.58165 41.6401 9.91644 41.7687 10.2656 41.8263C11.7318 42.0701 12.8557 42.5022 13.3458 39.5145L13.4209 39.0244C13.6343 39.0536 13.8492 39.0686 14.0644 39.0692C15.3735 39.069 16.6289 38.5294 17.5545 37.5692C18.48 36.6089 19 35.3067 19 33.9488V32.1245C19.0005 31.4517 18.8732 30.7854 18.6253 30.1636C18.3774 29.5418 18.0138 28.9768 17.5553 28.5009C17.0968 28.025 16.5523 27.6475 15.9531 27.3899C15.3538 27.1324 14.7115 26.9999 14.0628 27Z" fill="#EB9481"/>
<path id="Vector_44" d="M17.0375 31.0019C17.077 31.1552 17.1093 31.3109 17.1341 31.4683C17.149 31.5462 17.1574 31.6241 17.1682 31.702C17.179 31.7799 17.1898 31.8577 17.1965 31.9356C17.2123 32.0904 17.2273 32.2462 17.234 32.402L17.2481 32.6347V32.8684L17.0233 32.601C17.1066 32.601 17.1948 32.5943 17.2806 32.601C17.3247 32.601 17.3589 32.601 17.433 32.6087C17.4978 32.6184 17.5611 32.6384 17.6211 32.6684C17.7389 32.7281 17.8381 32.8278 17.9057 32.9542C17.9732 33.0806 18.0058 33.2277 17.9992 33.3761C17.9891 33.5163 17.9437 33.65 17.8684 33.7607C17.7952 33.8653 17.6957 33.9413 17.5837 33.978C17.5295 33.9954 17.4733 34.0026 17.4171 33.9992C17.37 33.9944 17.3232 33.9854 17.2773 33.9723C17.194 33.9501 17.1057 33.9251 17.02 33.8953C17.0184 33.8948 17.0169 33.8939 17.0156 33.8927C17.0143 33.8914 17.0133 33.8899 17.0125 33.8882C17.0117 33.8865 17.0112 33.8847 17.0111 33.8827C17.011 33.8808 17.0111 33.8789 17.0117 33.8771C17.0125 33.8743 17.0141 33.8719 17.0162 33.8701C17.0183 33.8684 17.0208 33.8675 17.0233 33.8674H17.2806C17.3239 33.8674 17.3639 33.8674 17.408 33.8674C17.4487 33.8615 17.4884 33.8492 17.5262 33.8309C17.6021 33.7944 17.6669 33.7328 17.7124 33.6538C17.758 33.5748 17.7823 33.482 17.7823 33.3871C17.7823 33.2922 17.758 33.1995 17.7124 33.1205C17.6669 33.0415 17.6021 32.9799 17.5262 32.9434C17.4886 32.926 17.4491 32.9147 17.4088 32.9097C17.3697 32.9097 17.3256 32.9097 17.2823 32.9097H17V32.8809C17 32.2587 17 31.6366 17.0125 31.0144C17.0125 31.0106 17.0138 31.0069 17.0162 31.0042C17.0185 31.0015 17.0217 31 17.025 31C17.0277 30.9999 17.0303 31.0009 17.0325 31.0029C17.0346 31.0048 17.0361 31.0075 17.0366 31.0106L17.0375 31.0019Z" fill="#1D2238"/>
<path id="Vector_45" d="M18 35C18 35 17.2341 33.9737 15 34.0005L18 35Z" fill="white"/>
<path id="Vector_46" d="M15.5 32C15.7761 32 16 31.7761 16 31.5C16 31.2239 15.7761 31 15.5 31C15.2239 31 15 31.2239 15 31.5C15 31.7761 15.2239 32 15.5 32Z" fill="#1D2238"/>
<path id="Vector_47" d="M15.0021 30.7941C15.0274 31.0163 15.2712 31.0666 15.5459 30.9059C15.8205 30.7452 16.0231 30.4335 15.9979 30.2071C15.9726 29.9807 15.7294 29.9346 15.4541 30.0953C15.1789 30.256 14.9769 30.5733 15.0021 30.7941Z" fill="#1D2238"/>
<path id="Vector_48" d="M17.9719 34.9947C17.7042 34.9743 17.4393 34.9322 17.1807 34.8691C17.0506 34.8424 16.9257 34.8043 16.7983 34.7716C16.6708 34.7389 16.5477 34.6955 16.4229 34.6574C16.2981 34.6193 16.1767 34.5721 16.0545 34.5265C15.9323 34.4808 15.8119 34.4336 15.6941 34.3788C15.4515 34.2758 15.2202 34.154 15.0031 34.0149C15.0021 34.014 15.0013 34.013 15.0008 34.0119C15.0003 34.0108 15 34.0096 15 34.0084C15 34.0072 15.0003 34.006 15.0008 34.0049C15.0013 34.0038 15.0021 34.0028 15.0031 34.0019C15.0048 34.0007 15.007 34 15.0093 34C15.0115 34 15.0137 34.0007 15.0154 34.0019L16.5099 34.4831L17.993 34.9817C17.9944 34.9821 17.9956 34.9828 17.9966 34.9837C17.9977 34.9845 17.9985 34.9855 17.9991 34.9867C17.9997 34.9878 18 34.989 18 34.9903C18 34.9915 17.9997 34.9928 17.9992 34.9939C17.9983 34.9957 17.9968 34.9973 17.9949 34.9983C17.9931 34.9994 17.9909 35 17.9886 35L17.9719 34.9947Z" fill="#1D2238"/>
<path id="Vector_49" d="M8.46851 32.3444C8.46851 32.3444 12.6035 28.2238 16.6062 28.2298C16.6062 28.2298 18.3543 28.1429 19 29.8176C19 29.8176 18.2313 22.978 11.5434 24.131C4.85551 25.2839 7.52682 33 7.52682 33L8.46851 32.3444Z" fill="#2EE8AE"/>
<path id="Vector_50" d="M14 29C14 29 12.9303 30.2855 10.696 32.6225C10.1424 33.2003 9.18081 34 9.18081 34C9.18081 34 9.41212 32.7905 9 31.9088C9.00404 31.9088 11.501 29.9136 14 29Z" fill="#1D2238"/>
<path id="Vector_51" d="M16.1194 28C16.1194 28 16.6495 29.6086 18 29.7194C18 29.7194 15.8415 30.9079 15 28.3927L16.1194 28Z" fill="#1D2238"/>
<path id="Vector_52" d="M8.58029 33.5507L8.1928 35L7 32.821L9 32L8.58029 33.5507Z" fill="#1D2238"/>
<path id="Vector_53" d="M9 34C9.55229 34 10 33.3284 10 32.5C10 31.6716 9.55229 31 9 31C8.44772 31 8 31.6716 8 32.5C8 33.3284 8.44772 34 9 34Z" fill="#EB9481"/>
<path id="Vector_54" d="M8.97214 32.3968C8.90122 32.3196 8.81773 32.2614 8.7271 32.226C8.6906 32.2111 8.65224 32.2042 8.61377 32.2054C8.58004 32.2051 8.54649 32.2115 8.51443 32.2242C8.45365 32.254 8.39894 32.2995 8.35409 32.3576C8.30923 32.4157 8.27531 32.4849 8.25467 32.5605C8.2417 32.6019 8.23113 32.6444 8.22302 32.6876C8.22302 32.709 8.21566 32.7314 8.21346 32.7538V32.7878V32.8128C8.21346 32.82 8.21346 32.8182 8.21346 32.8208C8.2111 32.8152 8.2084 32.8099 8.20536 32.8047C8.19205 32.7818 8.17207 32.7658 8.14944 32.76C8.12221 32.76 8.16415 32.7743 8.20168 32.7681C8.28263 32.7573 8.38565 32.7305 8.48867 32.7108C8.5976 32.6849 8.71001 32.6905 8.81687 32.7269H8.82055C8.82327 32.7281 8.82548 32.7306 8.82672 32.7338C8.82796 32.737 8.82812 32.7406 8.82717 32.7439C8.82633 32.7464 8.82492 32.7486 8.82309 32.7502C8.82127 32.7518 8.81911 32.7527 8.81687 32.7529C8.71851 32.7656 8.62254 32.7979 8.53282 32.8486C8.4401 32.8924 8.34886 32.9434 8.25025 32.9792C8.1992 33.0007 8.14441 33.0057 8.0913 32.9935C8.07664 32.9886 8.06296 32.9801 8.05107 32.9686C8.03918 32.957 8.02934 32.9427 8.02213 32.9264C8.00917 32.8962 8.00188 32.8629 8.00079 32.8289C7.99603 32.7026 8.01282 32.5766 8.05009 32.4586C8.08659 32.3397 8.14676 32.2336 8.22523 32.15C8.30366 32.0645 8.40285 32.0124 8.50781 32.0015C8.61209 31.9923 8.71585 32.0263 8.80215 32.0981C8.88679 32.1703 8.9545 32.268 8.99863 32.3816C8.99937 32.3832 8.99982 32.3849 8.99996 32.3867C9.00009 32.3885 8.99991 32.3903 8.99942 32.392C8.99893 32.3937 8.99815 32.3953 8.99712 32.3966C8.9961 32.3979 8.99486 32.3989 8.99348 32.3995C8.99172 32.4009 8.98967 32.4016 8.98759 32.4016C8.98551 32.4016 8.98347 32.4009 8.98171 32.3995L8.97214 32.3968Z" fill="#1D2238"/>
<path id="Vector_55" d="M14 28.7794C14 28.7794 17.0223 24.0313 20.6754 25.1789C24.3284 26.3266 19.267 30 19.267 30C19.267 30 17.8595 27.2197 14 28.7794Z" fill="#2EE8AE"/>
<path id="Vector_56" d="M11.9976 24.2598C12.0353 24.5017 11.6187 24.8059 11.0685 24.9386C10.5184 25.0712 10.04 24.982 10.0024 24.7391C9.96473 24.4961 10.3813 24.1941 10.9324 24.0615C11.4834 23.9288 11.96 24.018 11.9976 24.2598Z" fill="#1D2238"/>
<path id="Vector_57" d="M14 38.5713C12.8983 38.1392 11.8893 37.6107 11 37C11 37 11.6492 38.4944 13.9016 39L14 38.5713Z" fill="#1D2238"/>
<path id="Vector_58" d="M21.2932 117.007L29.1118 120.22C29.6833 120.455 30.1678 120.844 30.5039 121.339C30.84 121.834 31.0124 122.412 30.9993 123L14 122.965L14.9044 117L21.2932 117.007Z" fill="#4A4E60"/>
<path id="Vector_59" d="M14 121.453C15.4169 121.676 16.8329 121.784 18.2498 121.864C18.9582 121.916 19.6667 121.929 20.3751 121.96L22.4996 122L24.6249 121.987C25.3333 121.962 26.0418 121.958 26.7502 121.916C28.1671 121.849 29.5831 121.749 31 121.549C29.584 121.327 28.1671 121.216 26.7502 121.136C26.0426 121.084 25.3342 121.071 24.6257 121.04L22.5004 121L20.376 121.016C19.6675 121.04 18.9591 121.047 18.2506 121.089C16.8338 121.162 15.4169 121.262 14 121.453Z" fill="#1D2238"/>
<path id="Vector_60" d="M19.2519 120.581C19.8291 120.008 19.8291 119.079 19.2519 118.506C18.6748 117.933 17.7391 117.933 17.162 118.506C16.5849 119.079 16.5849 120.008 17.162 120.581C17.7391 121.154 18.6748 121.154 19.2519 120.581Z" fill="#1D2238"/>
<path id="Vector_61" d="M25.9857 119.059C25.7613 119 25.5166 118.985 25.2797 119.015C25.0558 119.041 24.8424 119.098 24.6525 119.182C24.4573 119.267 24.2927 119.381 24.1706 119.514C24.0383 119.654 23.9803 119.819 24.0059 119.984L24.0468 120C24.1015 119.943 24.1617 119.889 24.2269 119.837C24.2596 119.812 24.2893 119.785 24.3292 119.761L24.4315 119.688C24.5774 119.595 24.7368 119.511 24.9073 119.439C25.0756 119.364 25.2521 119.297 25.4352 119.24C25.5263 119.211 25.6194 119.184 25.7145 119.16C25.8097 119.136 25.9038 119.11 26 119.092L25.9857 119.059Z" fill="#1D2238"/>
<path id="Vector_62" d="M23.9959 118.119C23.8834 118 23.7606 117.97 23.6418 118.03C23.5295 118.083 23.4225 118.196 23.3273 118.363C23.2293 118.534 23.1466 118.761 23.085 119.027C23.0191 119.308 22.9902 119.64 23.0029 119.97L23.023 120C23.0507 119.887 23.0811 119.779 23.1138 119.676C23.1302 119.624 23.1446 119.569 23.1625 119.521L23.2138 119.376C23.287 119.189 23.3669 119.022 23.4525 118.878C23.5369 118.727 23.6254 118.594 23.7173 118.479C23.7631 118.422 23.8098 118.368 23.8573 118.319C23.904 118.267 23.9523 118.219 24 118.182L23.9959 118.119Z" fill="#1D2238"/>
<path id="Vector_63" d="M11.8634 117.007L19.2229 120.22C19.7608 120.455 20.2168 120.844 20.5331 121.339C20.8494 121.834 21.0117 122.412 20.9993 123L5 122.965L5.85123 117L11.8634 117.007Z" fill="#9EA9BD"/>
<path id="Vector_64" d="M5 121.448C6.33353 121.673 7.66627 121.783 8.9998 121.863C9.66657 121.915 10.3333 121.928 11.0001 121.96L12.9996 122L14.9999 121.987C15.6667 121.962 16.3334 121.957 17.0002 121.915C18.3329 121.848 19.6665 121.747 21 121.545C19.6673 121.321 18.3337 121.209 17.0002 121.128C16.3342 121.076 15.6675 121.063 15.0007 121.031L13.0012 121L11.0009 121.016C10.3349 121.04 9.66816 121.047 9.0014 121.09C7.66388 121.155 6.33353 121.256 5 121.448Z" fill="#1D2238"/>
<path id="Vector_65" d="M9.49747 120.581C10.0746 120.008 10.0746 119.079 9.49748 118.506C8.92035 117.934 7.98465 117.934 7.40752 118.506C6.8304 119.079 6.8304 120.008 7.40753 120.581C7.98465 121.154 8.92035 121.154 9.49747 120.581Z" fill="#1D2238"/>
<path id="Vector_66" d="M15.9933 119.059C15.8811 119 15.7587 118.985 15.6402 119.015C15.5282 119.041 15.4214 119.098 15.3264 119.182C15.2287 119.268 15.1462 119.381 15.0848 119.514C15.019 119.654 14.9902 119.82 15.0029 119.984L15.0229 120C15.0506 119.943 15.0809 119.889 15.1135 119.837C15.1299 119.812 15.1442 119.785 15.1647 119.761L15.2159 119.688C15.2888 119.595 15.3686 119.511 15.4539 119.439C15.5381 119.364 15.6263 119.297 15.718 119.24C15.7635 119.211 15.8101 119.184 15.8577 119.16C15.9053 119.136 15.9524 119.11 16 119.092L15.9933 119.059Z" fill="#1D2238"/>
<path id="Vector_67" d="M24 116.765L22.5469 87.0754C22.5057 86.2414 22.4064 85.4112 22.2499 84.5908L19.1597 68.4555L0.448286 67C0.448286 67 -1.38942 74.4374 2.37676 81.5974L4.31478 117L14.3019 116.937V116.826L24 116.765Z" fill="#1D2238"/>
<path id="Vector_68" d="M13.0077 69L13.0803 70.4969L13.1483 71.9938L13.2843 74.9885L13.5323 80.9802L13.5944 82.4787L13.6506 83.9772L13.7626 86.9751L13.9857 92.97L13.9984 93.3446C14.002 93.4695 13.9984 93.5952 13.9984 93.72V94.4717L13.9957 95.9734L13.9898 98.9777L13.9839 101.981L13.9803 103.484L13.9712 104.985L13.9354 110.993L13.9063 113.997L13.8914 115.499L13.8719 117H13.8569L13.8528 104.993V98.9889V95.9862V93.7337C13.8528 93.6088 13.8551 93.4839 13.8528 93.359L13.8392 92.9844L13 69.0072L13.0077 69Z" fill="#4A4E60"/>
<path id="Vector_69" d="M28 59.1238L25.4462 55.1183L19.5556 56.7267L18.017 46.0733C18.002 45.9591 17.9877 45.8624 17.975 45.7857C17.5894 43.4422 13.4812 39.3655 13.4812 39.3655L12.5737 40.3084L8.34916 38C8.34916 38 4.83884 39.4239 2.68181 42.1861C0.524774 44.9483 1.05849 66.7481 1.05849 66.7481C1.05849 66.7481 5.41927 70.3134 8.57405 70.903C11.7288 71.4927 20.0069 69.2003 20.0069 69.2003C20.0069 69.2003 19.8636 67.3705 19.6522 64.7306L28 59.1238Z" fill="#2EE8AE"/>
<path id="Vector_70" d="M13 40.7199L10.7272 42.7497C10.548 42.91 10.3198 42.9988 10.0835 43C9.84718 43.0012 9.61817 42.9148 9.43748 42.7563C8.38835 41.8318 6.52614 39.9319 7.1113 38.5197L8.1749 38L13 40.7199Z" fill="#1D9C75"/>
<path id="Vector_71" d="M13 40.8578L13.4467 41.8303C13.4749 41.8917 13.5098 41.9387 13.5487 41.9675C13.5876 41.9963 13.6293 42.0062 13.6704 41.9963C13.7116 41.9863 13.751 41.9569 13.7854 41.9104C13.8198 41.8639 13.8483 41.8016 13.8685 41.7286L14 41.2554L13.4128 40L13 40.8578Z" fill="white"/>
<path id="Vector_72" d="M7.0423 45.7552L10.7265 56.4064L22.1869 50.5408L24 55.0404L13.8014 63.5696C12.8315 64.381 11.6392 64.8725 10.3849 64.9781C9.33905 65.067 8.2881 64.884 7.33182 64.4467C6.37553 64.0094 5.54563 63.3321 4.9209 62.4793C3.19438 60.1226 1.00782 56.8933 0.789328 55.3803C0.418282 52.8469 -1.4727 48.0195 2.38872 43L7.0423 45.7552Z" fill="#2EE8AE"/>
<path id="Vector_73" d="M18 51.8402C17.3948 52.1926 16.7873 52.5401 16.1775 52.8828C15.5687 53.2279 14.9568 53.5657 14.3457 53.9051C13.7346 54.2445 13.1212 54.5806 12.5062 54.9119C11.8912 55.2432 11.2786 55.5802 10.6612 55.9074L10.4862 56L10.4459 55.7978C10.3538 55.3334 10.2523 54.8673 10.1477 54.4036C10.0432 53.94 9.9386 53.4755 9.82629 53.0127C9.6009 52.0895 9.36622 51.167 9.10287 50.2519C8.83953 49.3368 8.5607 48.4323 8.22997 47.5448C8.06422 47.1014 7.88917 46.6613 7.68779 46.2342C7.49339 45.8025 7.26324 45.3895 7 45C7.29462 45.3679 7.55405 45.7652 7.77454 46.1863C7.99683 46.6061 8.20131 47.0365 8.38488 47.4766C8.75588 48.3543 9.06724 49.2581 9.35305 50.1691C9.63885 51.0802 9.8898 52.0026 10.1175 52.9299C10.3452 53.8572 10.5567 54.7901 10.7372 55.732L10.5226 55.6224C11.1422 55.2976 11.7619 54.9728 12.3815 54.6537C13.0011 54.3346 13.6208 54.0163 14.245 53.6972C14.8693 53.3781 15.4905 53.0663 16.1163 52.7561C16.7422 52.4459 17.3726 52.1431 18 51.8402Z" fill="#1D2238"/>
<path id="Vector_74" d="M1 55L1.3797 55.6956L1.75467 56.3936C2.00517 56.8578 2.25778 57.3213 2.5125 57.7839C2.7659 58.2468 3.02009 58.709 3.28059 59.1679L3.67529 59.8547C3.80712 60.0849 3.9358 60.316 4.06368 60.547C4.576 61.4673 5.07806 62.3987 5.76721 63.1663C5.93864 63.3564 6.1233 63.5338 6.3198 63.6971C6.41531 63.7771 6.5203 63.8522 6.62214 63.9266C6.72397 64.0009 6.8337 64.0649 6.94579 64.1233C7.39206 64.3661 7.87569 64.5308 8.37619 64.6102C9.37953 64.7805 10.4286 64.6574 11.402 64.3495C11.8926 64.196 12.367 63.9935 12.8182 63.7451C13.0432 63.6202 13.2619 63.4838 13.4734 63.3365C13.6842 63.1894 13.8823 63.0263 14.0867 62.8568C14.8988 62.19 15.7145 61.5267 16.5339 60.8668L17.7646 59.8818L18.3803 59.3893L19 58.9016L18.4111 59.4269L17.8183 59.9474L16.6342 60.9868C15.84 61.677 15.044 62.3641 14.2462 63.0479C14.0489 63.2182 13.8444 63.3941 13.6289 63.5532C13.4116 63.7096 13.1866 63.8548 12.9547 63.9882C12.4903 64.2524 12.0011 64.4693 11.4943 64.6358C10.9862 64.8022 10.4619 64.9135 9.93053 64.9676C9.39617 65.0226 8.85702 65.0075 8.32646 64.9228C7.79219 64.8349 7.27634 64.6565 6.80054 64.3951C6.67976 64.3311 6.56372 64.2552 6.45242 64.1816C6.34111 64.1081 6.23059 64.0217 6.12955 63.933C5.92155 63.76 5.72752 63.5704 5.54934 63.3661C5.2011 62.9588 4.88912 62.5211 4.61705 62.0581C4.34234 61.6024 4.09525 61.1323 3.85133 60.6638C3.72923 60.4298 3.60582 60.1971 3.4811 59.9658C3.35479 59.7331 3.22928 59.5005 3.10692 59.2662C2.86115 58.7977 2.62012 58.3271 2.38383 57.8543C2.14753 57.3815 1.91281 56.9074 1.67968 56.4319L1.33628 55.718L1 55Z" fill="#1D2238"/>
<path id="Vector_75" d="M9.16315 59C9.13143 58.9319 9.10605 58.8626 9.08159 58.7928C9.0545 58.7233 9.03543 58.6527 9.0245 58.5816C8.99927 58.4393 8.99352 58.2958 9.00728 58.1529C9.02998 57.8639 9.12476 57.5788 9.2882 57.3081C9.44862 57.0367 9.6768 56.783 9.96422 56.5564C10.2423 56.3268 10.5954 56.1371 11 56C10.7529 56.2265 10.5263 56.4616 10.3213 56.704C10.1204 56.9377 9.94537 57.1797 9.79748 57.4285C9.64747 57.677 9.52425 57.9315 9.42866 58.1904C9.36885 58.3198 9.33804 58.4533 9.29092 58.5878C9.2438 58.7224 9.22114 58.8598 9.16315 59Z" fill="#1D2238"/>
<path id="Vector_76" d="M25.1068 57.9577L20.2755 56.144C20.2062 56.1181 20.1453 56.0769 20.0983 56.0243C20.0514 55.9716 20.0199 55.9092 20.0069 55.8428C19.9938 55.7764 19.9995 55.7081 20.0234 55.6442C20.0474 55.5803 20.0889 55.5228 20.144 55.4771L32.607 45.1071C32.6579 45.0647 32.7191 45.0336 32.7857 45.0161C32.8524 44.9986 32.9226 44.9953 32.9909 45.0064C33.0592 45.0175 33.1237 45.0427 33.1793 45.0801C33.2349 45.1174 33.2801 45.1658 33.3113 45.2215L35.9493 49.9232C35.9979 50.0101 36.0121 50.1093 35.9895 50.2045C35.967 50.2996 35.909 50.385 35.8251 50.4466L25.7276 57.876C25.6421 57.939 25.5392 57.9798 25.4298 57.9942C25.3204 58.0086 25.2088 57.996 25.1068 57.9577Z" fill="#4A4E60"/>
<path id="Vector_77" d="M19.5664 65C19.4869 64.4819 19.4264 63.9622 19.3699 63.4424C19.3405 63.1821 19.3142 62.9218 19.2904 62.6615C19.2665 62.4012 19.2403 62.1409 19.2196 61.8805C19.1726 61.3599 19.1352 60.8376 19.0979 60.3162C19.078 60.0559 19.0652 59.7947 19.0485 59.5335C19.0318 59.2724 19.0159 59.0121 19.0048 58.7501L19 58.6483L19.0796 58.6025C19.3182 58.4635 19.5569 58.321 19.8003 58.1845C20.0438 58.048 20.2824 57.9089 20.5267 57.7767C20.7709 57.6444 21.0127 57.5087 21.2586 57.3799C21.5044 57.251 21.751 57.1255 22 57C21.7746 57.1696 21.5473 57.3327 21.3182 57.4892C21.0891 57.6503 20.8576 57.8064 20.6261 57.9624C20.3946 58.1184 20.1615 58.2702 19.9292 58.4245C19.6969 58.5788 19.4598 58.7255 19.2259 58.8756L19.2999 58.728C19.323 58.9883 19.3405 59.2495 19.3596 59.5107C19.3787 59.7718 19.4002 60.0313 19.4137 60.2924C19.4463 60.8147 19.4781 61.3362 19.5004 61.8593C19.5139 62.1205 19.5243 62.3817 19.533 62.6437C19.5418 62.9057 19.5513 63.166 19.5569 63.428C19.568 63.9486 19.5744 64.4751 19.5664 65Z" fill="#1D2238"/>
<path id="Vector_78" d="M31.9817 54.6024C31.9609 54.4814 31.9235 54.3596 31.8949 54.2425C31.828 53.9989 31.7646 53.7545 31.6994 53.5102C31.6091 53.1711 31.5184 52.8318 31.4275 52.4923C31.3833 52.3263 31.2684 52.183 31.1082 52.0941C30.948 52.0052 30.7556 51.9779 30.5732 52.0182C30.3909 52.0584 30.2336 52.163 30.1359 52.3089C30.0382 52.4547 30.0082 52.63 30.0525 52.796L30.0785 52.8933C29.9647 52.8053 29.8233 52.7524 29.6745 52.7421C29.5256 52.7318 29.3771 52.7646 29.25 52.8359C29.1229 52.9072 29.0239 53.0133 28.967 53.1389C28.9102 53.2646 28.8985 53.4034 28.9336 53.5355C28.9623 53.643 28.991 53.7498 29.0205 53.8574C29.0014 53.8249 28.9733 53.7976 28.9388 53.7783C28.7104 53.6375 28.3308 53.6715 28.1788 53.8969C28.0919 54.0321 28.1171 54.1887 28.1293 54.339C28.1848 55.0231 28.2934 55.7064 28.3759 56.389L27 57.5531L27.3145 58C27.5985 57.9106 27.8617 57.86 28.1458 57.7706C28.5236 57.652 28.911 57.5555 29.275 57.4076C29.5596 57.2849 29.8229 57.125 30.0568 56.9331C30.5166 56.5659 30.9435 56.1661 31.3337 55.7373C31.5153 55.5435 31.6951 55.3466 31.8636 55.1433C31.9237 55.0657 31.9653 54.9774 31.9857 54.8843C32.006 54.7911 32.0047 54.695 31.9817 54.6024Z" fill="#EB9481"/>
<path id="Vector_79" d="M30 53C30.2159 53.1684 30.3751 53.3984 30.4564 53.6592C30.5389 53.915 30.6036 54.1737 30.6701 54.4323C30.7366 54.6909 30.7947 54.9514 30.8491 55.2129L30.9297 55.605C30.9531 55.7367 30.9794 55.8674 31 56C30.9588 55.8721 30.9241 55.7442 30.8857 55.6153L30.7798 55.2297C30.7085 54.972 30.6448 54.7134 30.5792 54.4547L30.3918 53.6788C30.3599 53.5518 30.3097 53.4301 30.2427 53.3175C30.1757 53.2018 30.0942 53.0951 30 53Z" fill="#1D2238"/>
<path id="Vector_80" d="M21 56C21.4689 55.529 21.9458 55.0679 22.4211 54.6042C22.8964 54.1406 23.3749 53.6802 23.8518 53.219L25.2936 51.8469L26.7434 50.4837C27.7147 49.5801 28.6851 48.6756 29.6636 47.7801L30.3964 47.1079L31.1356 46.4398C31.6257 45.9933 32.1177 45.5489 32.6116 45.1067L32.7308 45L32.7999 45.141L33.3563 46.2817L33.9127 47.4224L34.4595 48.5632C34.6423 48.9434 34.8225 49.3264 35 49.7121C34.7933 49.3438 34.5891 48.9739 34.3872 48.6023L33.7792 47.4893L33.1791 46.373L32.5845 45.2534L32.7729 45.2876C32.2928 45.7461 31.8106 46.2019 31.3263 46.6549L30.6015 47.3369L29.8726 48.014C28.9029 48.9193 27.9253 49.8147 26.9477 50.711L25.4749 52.0481L23.9933 53.3763C23.4973 53.8163 23.003 54.2579 22.5022 54.6922C22.0015 55.1265 21.5047 55.5706 21 56Z" fill="#1D2238"/>
</g>
</svg>
