<svg width="20" height="26" viewBox="0 0 20 26" fill="none" xmlns="http://www.w3.org/2000/svg">
<g id="Group 18">
<path id="Vector" fill-rule="evenodd" clip-rule="evenodd" d="M4.60388 18.4734C4.61357 18.4689 4.62419 18.4666 4.63491 18.4666C4.64563 18.4666 4.65622 18.4689 4.66591 18.4734L4.93454 19.0867C4.94554 19.0929 4.95801 19.0961 4.97071 19.0961C4.98341 19.0961 4.99588 19.0929 5.00688 19.0867L5.47187 18.6041C5.47187 18.6041 5.53387 18.6041 5.53387 18.6745L5.58552 19.328C5.58552 19.3783 5.58552 19.3883 5.58552 19.3883L6.16416 19.1068C6.16416 19.1068 6.22615 19.1068 6.22615 19.1873L6.02983 19.8106C6.0264 19.82 6.02542 19.8301 6.02696 19.8399C6.0285 19.8497 6.03252 19.8591 6.03866 19.867C6.04479 19.875 6.05287 19.8814 6.06215 19.8856C6.07143 19.8897 6.08161 19.8916 6.09182 19.891L6.7738 19.8207C6.78232 19.8262 6.78933 19.8336 6.79417 19.8424C6.79901 19.8512 6.80155 19.861 6.80155 19.8709C6.80155 19.8809 6.79901 19.8907 6.79417 19.8995C6.78933 19.9083 6.78232 19.9157 6.7738 19.9212L6.39148 20.4541C6.39148 20.4541 6.39148 20.5245 6.39148 20.5446L7.0528 20.7055C7.06651 20.7055 7.07963 20.7108 7.08932 20.7202C7.09901 20.7296 7.10446 20.7424 7.10446 20.7557C7.10446 20.7691 7.09901 20.7818 7.08932 20.7913C7.07963 20.8007 7.06651 20.806 7.0528 20.806L6.48448 21.1881C6.46994 21.203 6.46184 21.2228 6.46184 21.2434C6.46184 21.2639 6.46994 21.2837 6.48448 21.2987L7.0528 21.6606V21.7612L6.39148 21.9221C6.37695 21.937 6.36884 21.9568 6.36884 21.9774C6.36884 21.9979 6.37695 22.0177 6.39148 22.0326L6.7738 22.5655C6.78239 22.5721 6.78936 22.5805 6.79414 22.5901C6.79891 22.5997 6.80139 22.6102 6.80139 22.6208C6.80139 22.6315 6.79891 22.642 6.79414 22.6516C6.78936 22.6611 6.78239 22.6696 6.7738 22.6761L6.09182 22.5957C6.08228 22.5969 6.0731 22.6 6.0648 22.6047C6.05649 22.6094 6.04925 22.6158 6.04348 22.6233C6.03771 22.6307 6.03352 22.6393 6.03118 22.6483C6.02884 22.6574 6.02837 22.6669 6.02983 22.6761L6.22615 23.2995C6.22615 23.3498 6.22616 23.3799 6.16416 23.3799L5.58552 23.0984C5.58552 23.0984 5.58552 23.0984 5.58552 23.1587L5.53387 23.8022C5.53387 23.8525 5.53387 23.8726 5.47187 23.8726L5.00688 23.4001C4.99561 23.3947 4.98324 23.3919 4.97071 23.3919C4.95818 23.3919 4.94581 23.3947 4.93454 23.4001L4.66591 23.9933C4.66591 23.9933 4.66588 23.9933 4.60388 23.9933C4.59603 23.9977 4.58712 24 4.57805 24C4.56899 24 4.56008 23.9977 4.55223 23.9933L4.27325 23.4001C4.26383 23.3948 4.25314 23.392 4.24225 23.392C4.23137 23.392 4.22068 23.3948 4.21126 23.4001L3.72561 23.8726C3.70643 23.8726 3.68803 23.8652 3.67446 23.852C3.6609 23.8388 3.65327 23.8209 3.65327 23.8022V23.1587C3.65077 23.1419 3.64204 23.1265 3.62874 23.1154C3.61543 23.1043 3.59845 23.0982 3.58093 23.0984L3.00229 23.3799C2.95063 23.3799 2.91963 23.38 2.9403 23.2995L3.13663 22.6761C3.13663 22.6761 3.13662 22.5957 3.06429 22.5957L2.403 22.6761C2.38956 22.6766 2.37625 22.6734 2.36456 22.667C2.35287 22.6605 2.34325 22.651 2.33681 22.6395C2.33037 22.628 2.32737 22.615 2.32811 22.602C2.32884 22.5889 2.33331 22.5763 2.341 22.5655L2.74397 22.0326C2.75099 22.0113 2.74961 21.9881 2.74006 21.9677C2.73051 21.9472 2.7135 21.931 2.69232 21.9221L2.05168 21.7612C2.03798 21.7612 2.02483 21.7559 2.01514 21.7465C2.00545 21.737 2 21.7242 2 21.7109C2 21.6976 2.00545 21.6848 2.01514 21.6754C2.02483 21.6659 2.03798 21.6606 2.05168 21.6606L2.59933 21.2987C2.61039 21.294 2.6198 21.2862 2.62641 21.2764C2.63302 21.2666 2.63654 21.2551 2.63654 21.2434C2.63654 21.2316 2.63302 21.2201 2.62641 21.2103C2.6198 21.2005 2.61039 21.1928 2.59933 21.1881L2.05168 20.806C2.03798 20.806 2.02483 20.8007 2.01514 20.7913C2.00545 20.7818 2 20.7691 2 20.7557C2 20.7424 2.00545 20.7296 2.01514 20.7202C2.02483 20.7108 2.03798 20.7055 2.05168 20.7055L2.69232 20.5446C2.70203 20.5423 2.71114 20.5381 2.71909 20.5322C2.72704 20.5263 2.73366 20.5189 2.73852 20.5104C2.74337 20.5019 2.74637 20.4925 2.74731 20.4828C2.74825 20.4731 2.74711 20.4633 2.74397 20.4541L2.341 19.9212C2.3311 19.9117 2.32474 19.8992 2.323 19.8858C2.32125 19.8724 2.3242 19.8588 2.33135 19.8472C2.33851 19.8356 2.34946 19.8267 2.36245 19.8219C2.37544 19.8171 2.38973 19.8166 2.403 19.8207L3.06429 19.891C3.08356 19.8868 3.10095 19.8768 3.11395 19.8623C3.12696 19.8479 3.13491 19.8298 3.13663 19.8106L2.9403 19.1873C2.9403 19.1873 2.9403 19.1068 3.00229 19.1068L3.58093 19.3883C3.58093 19.3883 3.65327 19.3883 3.65327 19.328V18.6745C3.65546 18.6565 3.66377 18.6399 3.67689 18.6271C3.69001 18.6143 3.70718 18.6062 3.72561 18.6041L4.21126 19.0867C4.2202 19.0932 4.23108 19.0967 4.24225 19.0967C4.25343 19.0967 4.26431 19.0932 4.27325 19.0867L4.55223 18.4734C4.55223 18.4734 4.55222 18.4734 4.60388 18.4734ZM3.38461 15.3967H15.5775C15.6267 15.3953 15.6757 15.4037 15.7215 15.4214C15.7672 15.4391 15.8088 15.4658 15.8437 15.4996C15.8785 15.5335 15.9058 15.574 15.924 15.6185C15.9422 15.6631 15.9508 15.7108 15.9494 15.7587C15.9508 15.8071 15.9422 15.8552 15.9241 15.9003C15.9061 15.9454 15.8789 15.9865 15.8442 16.0212C15.8095 16.0558 15.768 16.0834 15.7222 16.1022C15.6764 16.121 15.6272 16.1307 15.5775 16.1307H3.38461C3.28501 16.1281 3.1904 16.0877 3.12092 16.0182C3.05144 15.9488 3.0126 15.8556 3.01264 15.7587C3.01264 15.6627 3.05182 15.5706 3.12158 15.5027C3.19134 15.4348 3.28595 15.3967 3.38461 15.3967ZM3.38461 12.5613H15.5775C15.6249 12.56 15.6722 12.5678 15.7166 12.5843C15.761 12.6007 15.8017 12.6255 15.8362 12.6573C15.8708 12.689 15.8986 12.7271 15.918 12.7693C15.9374 12.8115 15.9481 12.857 15.9494 12.9032C15.9524 12.9515 15.9449 12.9999 15.9273 13.0451C15.9096 13.0904 15.8823 13.1314 15.8472 13.1657C15.812 13.1999 15.7698 13.2264 15.7233 13.2436C15.6768 13.2607 15.6271 13.2681 15.5775 13.2652H3.38461C3.33537 13.2666 3.28637 13.2581 3.24059 13.2404C3.19481 13.2227 3.15323 13.1961 3.1184 13.1623C3.08357 13.1284 3.05621 13.0879 3.03802 13.0434C3.01983 12.9988 3.01121 12.9511 3.01264 12.9032C3.01397 12.857 3.02465 12.8115 3.04407 12.7693C3.0635 12.7271 3.09126 12.689 3.12581 12.6573C3.16036 12.6255 3.20101 12.6007 3.24542 12.5843C3.28982 12.5678 3.33711 12.56 3.38461 12.5613ZM3.38461 9.66569H15.5775C15.6305 9.66678 15.6826 9.67859 15.7307 9.70036C15.7788 9.72213 15.8217 9.7534 15.8566 9.79216C15.8916 9.83093 15.9179 9.87635 15.9339 9.92555C15.9499 9.97474 15.9552 10.0266 15.9494 10.0779C15.9509 10.1254 15.9423 10.1726 15.924 10.2167C15.9057 10.2607 15.8782 10.3006 15.8432 10.3337C15.8082 10.3668 15.7665 10.3924 15.7207 10.409C15.675 10.4255 15.6262 10.4326 15.5775 10.4298H3.38461C3.33588 10.4326 3.2871 10.4255 3.24135 10.409C3.1956 10.3924 3.15387 10.3668 3.11887 10.3337C3.08387 10.3006 3.05635 10.2607 3.03805 10.2167C3.01976 10.1726 3.01111 10.1254 3.01264 10.0779C3.00689 10.0266 3.01218 9.97474 3.02815 9.92555C3.04412 9.87635 3.07043 9.83093 3.10541 9.79216C3.14039 9.7534 3.18329 9.72213 3.23135 9.70036C3.27942 9.67859 3.3316 9.66678 3.38461 9.66569ZM3.38461 6.87055H15.5775C15.6717 6.86778 15.7633 6.9009 15.8327 6.96288C15.9022 7.02485 15.9441 7.11077 15.9494 7.20233C15.9494 7.29833 15.9102 7.39039 15.8405 7.45827C15.7707 7.52615 15.6761 7.56431 15.5775 7.56431H3.38461C3.28595 7.56431 3.19134 7.52615 3.12158 7.45827C3.05182 7.39039 3.01264 7.29833 3.01264 7.20233C3.01798 7.11077 3.05983 7.02485 3.12931 6.96288C3.19879 6.9009 3.29039 6.86778 3.38461 6.87055ZM3.38461 4.00503H15.5775C15.6293 3.9964 15.6826 3.9989 15.7334 4.01236C15.7842 4.02581 15.8313 4.0499 15.8716 4.08293C15.9118 4.11597 15.9441 4.15715 15.9663 4.20361C15.9885 4.25007 16 4.30068 16 4.35191C16 4.40313 15.9885 4.45374 15.9663 4.5002C15.9441 4.54666 15.9118 4.58785 15.8716 4.62088C15.8313 4.65391 15.7842 4.678 15.7334 4.69145C15.6826 4.70491 15.6293 4.70741 15.5775 4.69879H3.38461C3.33271 4.70741 3.2795 4.70491 3.2287 4.69145C3.1779 4.678 3.13073 4.65391 3.09049 4.62088C3.05025 4.58785 3.01792 4.54666 2.99573 4.5002C2.97355 4.45374 2.96206 4.40313 2.96206 4.35191C2.96206 4.30068 2.97355 4.25007 2.99573 4.20361C3.01792 4.15715 3.05025 4.11597 3.09049 4.08293C3.13073 4.0499 3.1779 4.02581 3.2287 4.01236C3.2795 3.9989 3.33271 3.9964 3.38461 4.00503Z" fill="black"/>
<path id="Vector_2" fill-rule="evenodd" clip-rule="evenodd" d="M8.71517 22.4849H16.9117C16.9574 22.4822 17.0032 22.4887 17.0462 22.504C17.0893 22.5193 17.1286 22.5431 17.1619 22.574C17.1952 22.6049 17.2218 22.6422 17.2399 22.6835C17.258 22.7248 17.2673 22.7694 17.2672 22.8144C17.2659 22.8589 17.2556 22.9028 17.237 22.9435C17.2185 22.9842 17.1919 23.0209 17.1589 23.0515C17.1259 23.0821 17.0871 23.106 17.0446 23.1219C17.0022 23.1377 16.9571 23.1452 16.9117 23.1438H8.71517C8.67031 23.1452 8.62562 23.1376 8.58378 23.1217C8.54193 23.1057 8.50378 23.0816 8.47157 23.0509C8.43936 23.0202 8.41376 22.9834 8.39628 22.9428C8.37881 22.9021 8.36982 22.8585 8.36984 22.8144C8.36833 22.7698 8.37632 22.7255 8.39327 22.6842C8.41023 22.6429 8.4358 22.6055 8.46832 22.5745C8.50083 22.5434 8.53959 22.5194 8.5821 22.504C8.62461 22.4886 8.66994 22.4821 8.71517 22.4849ZM11.3762 19.4197C11.4041 19.4222 11.43 19.4349 11.4488 19.4552C11.4676 19.4755 11.4779 19.502 11.4778 19.5295L11.5692 19.869C11.7195 20.4417 11.9741 20.983 12.3208 21.4665C12.4123 21.3666 12.4935 21.2568 12.5849 21.1669C12.6763 21.0771 12.8287 20.9074 12.9404 20.7676C13.0092 20.6863 13.1012 20.6272 13.2045 20.5978C13.326 20.5776 13.4506 20.5871 13.5675 20.6254C13.6844 20.6637 13.79 20.7297 13.8748 20.8175L13.9561 20.8874C14.21 21.0471 14.6366 20.8275 14.921 20.5978C14.9508 20.5704 14.978 20.5403 15.0022 20.508C15.188 20.3028 15.4167 20.1394 15.6726 20.0291C15.9285 19.9188 16.2057 19.8642 16.4851 19.869C16.5285 19.8725 16.5707 19.8849 16.6089 19.9053C16.6472 19.9257 16.6807 19.9536 16.7075 19.9874C16.7342 20.0212 16.7535 20.06 16.7642 20.1015C16.7749 20.143 16.7767 20.1862 16.7695 20.2284C16.7569 20.3143 16.7104 20.3917 16.64 20.4441C16.5697 20.4964 16.4812 20.5194 16.3937 20.508C16.089 20.4581 15.7843 20.7376 15.4694 20.9972L15.3882 21.0771C14.7178 21.6063 14.0475 21.746 13.5701 21.4166L13.4279 21.3067C13.4279 21.3067 13.3772 21.3067 13.367 21.3067C13.2553 21.4165 13.1435 21.5563 13.0216 21.6961C12.8998 21.8359 12.7982 21.9457 12.6865 22.0855C12.5999 22.2015 12.4737 22.283 12.331 22.3151H12.2497C12.0871 22.3035 11.9348 22.2322 11.8231 22.1154L11.7724 22.0655C11.45 21.6428 11.1869 21.1794 10.9903 20.6877C10.4347 21.2536 9.83347 21.7745 9.19254 22.2452C9.15858 22.2709 9.11978 22.2898 9.07838 22.3007C9.03698 22.3116 8.99381 22.3143 8.95133 22.3088C8.90885 22.3032 8.86792 22.2894 8.83088 22.2682C8.79383 22.2471 8.76139 22.2189 8.73547 22.1853C8.7028 22.1563 8.67672 22.1209 8.65885 22.0813C8.64098 22.0418 8.63173 21.999 8.63173 21.9557C8.63173 21.9124 8.64098 21.8696 8.65885 21.8301C8.67672 21.7905 8.7028 21.7551 8.73547 21.7261C9.50218 21.1608 10.213 20.5256 10.8583 19.829L11.1122 19.5794C11.158 19.5626 11.2085 19.5626 11.2544 19.5794L11.3762 19.4197ZM0.711614 0.689077V25.3104H19.2884V0.689077H0.711614ZM0.35612 0.000155846H19.654C19.6997 -0.00122836 19.7453 0.00662106 19.7878 0.023191C19.8304 0.0397609 19.869 0.0646986 19.9014 0.0965012C19.9337 0.128304 19.9591 0.1663 19.9759 0.208112C19.9928 0.249924 20.0008 0.294665 19.9994 0.339619V25.6499C20.0022 25.6957 19.9953 25.7415 19.9791 25.7845C19.9629 25.8275 19.9377 25.8667 19.9052 25.8996C19.8727 25.9325 19.8336 25.9584 19.7903 25.9756C19.7471 25.9927 19.7006 26.0008 19.654 25.9994H0.35612C0.308663 26.0023 0.261147 25.9953 0.216669 25.9787C0.172191 25.9622 0.131794 25.9365 0.0981709 25.9035C0.0645481 25.8704 0.0384542 25.8307 0.0216416 25.787C0.00482894 25.7433 -0.0023177 25.6965 0.000657257 25.6499V0.349613C-0.000843594 0.30378 0.00739497 0.258128 0.0248652 0.215607C0.0423354 0.173087 0.0686465 0.134639 0.102107 0.102687C0.135568 0.0707337 0.175437 0.0459808 0.219179 0.0300467C0.262922 0.0141125 0.309558 0.00734694 0.35612 0.0101499V0.000155846Z" fill="black"/>
</g>
</svg>
