<svg width="23" height="28" viewBox="0 0 23 28" fill="none" xmlns="http://www.w3.org/2000/svg">
<path id="Vector" d="M12.65 1.7041C12.65 0.761521 12.1361 0 11.5 0C10.8639 0 10.35 0.761521 10.35 1.7041V5.11231H6.9C4.99531 5.11231 3.45 7.4022 3.45 10.2246V22.1534C3.45 24.9758 4.99531 27.2657 6.9 27.2657H16.1C18.0047 27.2657 19.55 24.9758 19.55 22.1534V10.2246C19.55 7.4022 18.0047 5.11231 16.1 5.11231H12.65V1.7041ZM5.75 21.3013C5.75 20.593 6.13453 20.0232 6.6125 20.0232H7.7625C8.24047 20.0232 8.625 20.593 8.625 21.3013C8.625 22.0096 8.24047 22.5794 7.7625 22.5794H6.6125C6.13453 22.5794 5.75 22.0096 5.75 21.3013ZM10.0625 21.3013C10.0625 20.593 10.447 20.0232 10.925 20.0232H12.075C12.553 20.0232 12.9375 20.593 12.9375 21.3013C12.9375 22.0096 12.553 22.5794 12.075 22.5794H10.925C10.447 22.5794 10.0625 22.0096 10.0625 21.3013ZM14.375 21.3013C14.375 20.593 14.7595 20.0232 15.2375 20.0232H16.3875C16.8655 20.0232 17.25 20.593 17.25 21.3013C17.25 22.0096 16.8655 22.5794 16.3875 22.5794H15.2375C14.7595 22.5794 14.375 22.0096 14.375 21.3013ZM8.05 11.0767C9.00234 11.0767 9.775 12.2216 9.775 13.6328C9.775 15.044 9.00234 16.189 8.05 16.189C7.09766 16.189 6.325 15.044 6.325 13.6328C6.325 12.2216 7.09766 11.0767 8.05 11.0767ZM13.225 13.6328C13.225 12.2216 13.9977 11.0767 14.95 11.0767C15.9023 11.0767 16.675 12.2216 16.675 13.6328C16.675 15.044 15.9023 16.189 14.95 16.189C13.9977 16.189 13.225 15.044 13.225 13.6328ZM2.3 13.6328C2.3 12.6903 1.78609 11.9287 1.15 11.9287C0.513906 11.9287 0 12.6903 0 13.6328V18.7451C0 19.6877 0.513906 20.4492 1.15 20.4492C1.78609 20.4492 2.3 19.6877 2.3 18.7451V13.6328ZM21.85 11.9287C21.2139 11.9287 20.7 12.6903 20.7 13.6328V18.7451C20.7 19.6877 21.2139 20.4492 21.85 20.4492C22.4861 20.4492 23 19.6877 23 18.7451V13.6328C23 12.6903 22.4861 11.9287 21.85 11.9287Z" fill="black"/>
</svg>
