<svg width="29" height="24" viewBox="0 0 29 24" fill="none" xmlns="http://www.w3.org/2000/svg">
<g id="Group 14">
<path id="Vector" fill-rule="evenodd" clip-rule="evenodd" d="M14.2142 17.1828C14.405 17.1771 14.5944 17.2184 14.7655 17.3031C15.0642 17.4671 15.2895 17.7385 15.3955 18.0624C15.5016 18.3862 15.4807 18.7383 15.3369 19.0473L14.3345 21.0521C14.2337 21.2626 14.0761 21.4407 13.8795 21.5665C13.6829 21.6922 13.4551 21.7606 13.2218 21.7638C13.0329 21.7598 12.8475 21.7118 12.6805 21.6235C12.385 21.4616 12.1624 21.1931 12.0581 20.8727C11.9538 20.5523 11.9756 20.2042 12.1192 19.8993L13.1216 17.8945C13.2199 17.6864 13.3741 17.5096 13.5671 17.3839C13.76 17.2582 13.984 17.1886 14.2142 17.1828ZM11.9989 14.7069C12.1846 14.7109 12.3667 14.759 12.5301 14.8472C12.8232 15.009 13.044 15.2758 13.1481 15.5938C13.2523 15.9119 13.2321 16.2576 13.0915 16.5613L11.5378 19.8191C11.4418 20.0299 11.2884 20.2094 11.0952 20.337C10.9019 20.4647 10.6767 20.5353 10.4451 20.5409C10.2523 20.5335 10.0637 20.4821 9.89382 20.3905C9.60429 20.2254 9.3871 19.9579 9.28506 19.6406C9.18301 19.3233 9.20352 18.9793 9.3425 18.6764L10.8862 15.4186C10.9851 15.2067 11.1422 15.0272 11.3392 14.9012C11.5362 14.7752 11.765 14.7078 11.9989 14.7069ZM9.20215 13.3837C9.38716 13.3925 9.56821 13.4403 9.73343 13.524C10.0244 13.6928 10.2422 13.964 10.3441 14.2846C10.446 14.6052 10.4249 14.9523 10.2848 15.2582L8.87137 18.2654C8.77371 18.477 8.61852 18.6568 8.42355 18.7845C8.22859 18.9121 8.00169 18.9823 7.76872 18.9872C7.57525 18.9946 7.38375 18.9459 7.21738 18.8468C6.91833 18.6884 6.69198 18.4207 6.58552 18.0995C6.47907 17.7782 6.50076 17.4283 6.64603 17.1227L8.07946 14.1155C8.17958 13.9016 8.33807 13.7204 8.53671 13.5927C8.73534 13.465 8.96603 13.396 9.20215 13.3938V13.3837ZM6.34529 12.1808C6.53177 12.1883 6.71382 12.2399 6.87657 12.3312C7.17386 12.4913 7.39808 12.7597 7.50261 13.0808C7.60714 13.4019 7.58396 13.7509 7.43791 14.0553L6.60593 15.8196C6.50808 16.0289 6.35424 16.2071 6.16141 16.3345C5.96858 16.4619 5.74428 16.5334 5.51331 16.5413C5.32025 16.545 5.12976 16.4965 4.96197 16.401C4.66563 16.2374 4.44391 15.9657 4.34305 15.6426C4.2422 15.3195 4.27002 14.9699 4.42069 14.6668L5.24264 12.9026C5.33933 12.6903 5.49427 12.5098 5.68945 12.382C5.88463 12.2543 6.11205 12.1845 6.34529 12.1808ZM13.4223 5.51483C13.8991 5.53302 14.3745 5.5799 14.8457 5.65518L26.2931 12.9427C26.7188 13.2224 27.022 13.6538 27.1412 14.149C27.2603 14.6443 27.1865 15.1663 26.9347 15.6091C26.7713 15.8881 26.5389 16.1205 26.2598 16.2837C25.9806 16.447 25.6642 16.5357 25.3409 16.5413C25.1452 16.5406 24.9514 16.5032 24.7695 16.431C24.7695 16.431 24.7695 16.4912 24.7695 16.5012C24.888 17.0025 24.809 17.5301 24.549 17.9747C24.394 18.2574 24.1665 18.4938 23.8899 18.6594C23.6133 18.825 23.2976 18.9139 22.9752 18.917C22.6897 18.9123 22.4089 18.8438 22.1532 18.7165C22.2586 19.2019 22.18 19.7091 21.9327 20.1399C21.817 20.3507 21.6602 20.5361 21.4715 20.6851C21.2827 20.8341 21.066 20.9437 20.8341 21.0073C20.6022 21.0708 20.3599 21.0872 20.1216 21.0553C19.8832 21.0234 19.6537 20.9439 19.4467 20.8215C19.515 21.0691 19.5334 21.3278 19.5007 21.5825C19.468 21.8372 19.3849 22.0828 19.2563 22.3051C19.1005 22.5872 18.8729 22.8229 18.5964 22.9884C18.32 23.1539 18.0047 23.2433 17.6825 23.2474C17.3494 23.2464 17.0231 23.1527 16.7402 22.9767L14.7354 21.6937L15.1063 21.1724L17.1111 22.4154C17.3002 22.5345 17.5192 22.5971 17.7426 22.5958C17.9485 22.59 18.1493 22.5305 18.3251 22.4233C18.5009 22.316 18.6456 22.1647 18.745 21.9843C18.9054 21.6853 18.9511 21.338 18.8736 21.0076C18.7961 20.6773 18.6007 20.3866 18.324 20.1901L16.9708 19.348C16.9263 19.3187 16.8881 19.2808 16.8585 19.2366C16.8288 19.1924 16.8082 19.1427 16.7979 19.0905C16.7877 19.0382 16.7879 18.9844 16.7987 18.9323C16.8094 18.8801 16.8305 18.8306 16.8605 18.7867C16.9129 18.7146 16.9908 18.6652 17.0783 18.6485C17.1658 18.6317 17.2564 18.6489 17.3317 18.6965L19.7374 20.2201C19.9243 20.3463 20.1436 20.4158 20.369 20.4206C20.5843 20.4164 20.7947 20.3559 20.9794 20.2451C21.164 20.1343 21.3165 19.9771 21.4215 19.7891C21.5946 19.5007 21.6485 19.1562 21.5718 18.8286C21.495 18.5011 21.2937 18.2164 21.0105 18.0349L18.8553 16.6716C18.7803 16.6122 18.7297 16.5273 18.7131 16.4331C18.6965 16.3389 18.715 16.2419 18.7651 16.1604C18.8119 16.0932 18.8826 16.0464 18.9627 16.0296C19.0428 16.0128 19.1263 16.0273 19.1961 16.0702L22.3637 18.075C22.5516 18.1967 22.7715 18.2595 22.9953 18.2554C23.2011 18.2496 23.4019 18.1901 23.5777 18.0828C23.7535 17.9756 23.8983 17.8243 23.9977 17.6439C24.1652 17.3446 24.2129 16.9929 24.131 16.6598C24.0491 16.3267 23.8438 16.0371 23.5566 15.8496L20.7298 14.0553C20.6882 14.0282 20.6526 13.9929 20.6253 13.9514C20.598 13.91 20.5795 13.8633 20.571 13.8144C20.5625 13.7654 20.5643 13.7153 20.5761 13.6671C20.5879 13.6188 20.6095 13.5736 20.6396 13.5341C20.6607 13.4957 20.69 13.4623 20.7253 13.4364C20.7606 13.4105 20.8012 13.3926 20.8442 13.3841C20.8871 13.3755 20.9314 13.3764 20.974 13.3867C21.0166 13.397 21.0564 13.4165 21.0907 13.4439L24.6793 15.6993C24.8635 15.8208 25.0801 15.8837 25.3008 15.8797C25.5174 15.8814 25.7306 15.8246 25.9176 15.7152C26.1046 15.6058 26.2586 15.4479 26.3633 15.2582C26.5273 14.9659 26.576 14.6228 26.5 14.2964C26.4239 13.97 26.2286 13.6837 25.9523 13.494L13.3822 5.53487L13.4223 5.51483ZM14.3545 0.121886C15.0837 0.195815 15.7971 0.381794 16.4696 0.673227C18.1637 1.19448 22.3938 3.50001 23.6568 3.81076C24.5891 4.04131 27.1352 2.2069 28.3481 1.26464C28.41 1.21994 28.4831 1.19334 28.5593 1.18786C28.6354 1.18238 28.7116 1.19824 28.7792 1.23362C28.8469 1.26901 28.9033 1.32255 28.9423 1.38823C28.9812 1.45391 29.0011 1.52912 28.9997 1.60546V10.3464C29.0022 10.392 28.9911 10.4372 28.9679 10.4764C28.9447 10.5157 28.9104 10.5472 28.8693 10.567L25.8621 11.3488C25.8324 11.3687 25.7976 11.3792 25.7619 11.3792C25.7262 11.3792 25.6913 11.3687 25.6617 11.3488C24.6593 10.7073 16.64 5.38452 15.4872 4.95349C14.3341 4.66888 13.1434 4.56741 11.9588 4.65278C11.8235 4.66233 11.6915 4.69922 11.5709 4.76125C11.4503 4.82328 11.3435 4.90914 11.2571 5.01363C9.53293 7.01844 8.12957 6.92821 7.18731 6.44706C7.01026 6.35017 6.85774 6.21407 6.74138 6.04916C6.62503 5.88425 6.54795 5.69493 6.51602 5.49565C6.4841 5.29637 6.49818 5.0924 6.5572 4.8994C6.61622 4.7064 6.71861 4.52945 6.85653 4.38211C10.2848 0.733353 12.7106 0.0517372 14.3345 0.141954L14.3545 0.121886ZM0.621568 0.00160224C0.777203 -0.000468606 0.927783 0.0568937 1.04259 0.161991L2.65645 1.72574C3.10753 2.19687 4.49085 3.39977 5.53335 3.39977C5.72102 3.40037 5.9051 3.34825 6.06462 3.24938L6.22501 3.17924L7.05702 2.8785L6.25508 3.70048C6.17563 3.78569 6.10195 3.87609 6.03455 3.97112C5.87306 4.02447 5.70328 4.04825 5.53335 4.04129C3.99967 4.04129 2.23543 2.19687 2.23543 2.19687L0.621568 0.643156V10.0457L4.48083 13.0529L4.21017 13.6243L0.260717 10.567C0.181963 10.5043 0.117812 10.4251 0.0727969 10.3351C0.0277819 10.2451 0.00297885 10.1463 8.2115e-05 10.0457V0.663193C-0.00171267 0.549257 0.0259411 0.436799 0.0803834 0.336696C0.134826 0.236592 0.214208 0.152229 0.310825 0.091815C0.399686 0.0243479 0.510394 -0.0077903 0.621568 0.00160224Z" fill="black"/>
</g>
</svg>
