<svg width="36" height="50" viewBox="0 0 36 50" fill="none" xmlns="http://www.w3.org/2000/svg">
<g id="Group 22">
<path id="Vector" fill-rule="evenodd" clip-rule="evenodd" d="M31.178 5.2503H22.4959V4.12671H31.73C31.8752 4.1305 32.0134 4.19012 32.1161 4.29326C32.2188 4.3964 32.2782 4.53519 32.2819 4.68101V35.8569C31.909 35.7071 31.551 35.5423 31.178 35.4225V5.2503ZM21.4368 46.149H1.17851V5.2503H9.84571V4.12671H0.551948C0.40675 4.1305 0.268554 4.19012 0.165849 4.29326C0.0631434 4.3964 0.00377331 4.53519 3.40528e-08 4.68101V46.7034C-5.11501e-05 46.8518 0.0576001 46.9943 0.160704 47.1007C0.263808 47.207 0.404205 47.2687 0.551948 47.2726H21.9887C21.7675 46.9154 21.5778 46.5394 21.4218 46.149H21.4368Z" fill="black"/>
<path id="Vector_2" fill-rule="evenodd" clip-rule="evenodd" d="M21.1981 2.38887H19.4229C19.2159 1.69823 18.7929 1.09293 18.2166 0.662652C17.6402 0.23237 16.9412 0 16.223 0C15.5049 0 14.8058 0.23237 14.2294 0.662652C13.6531 1.09293 13.2301 1.69823 13.0231 2.38887H11.248C11.2141 2.38666 11.1801 2.39175 11.1484 2.40377C11.1166 2.41579 11.0878 2.43448 11.0638 2.45859C11.0398 2.48269 11.0212 2.51164 11.0092 2.54353C10.9972 2.57543 10.9922 2.60955 10.9944 2.64357V6.43381C10.9981 6.57963 11.0575 6.71842 11.1602 6.82156C11.2629 6.9247 11.4011 6.98432 11.5463 6.98811H20.8848C21.0326 6.98816 21.1746 6.93022 21.2805 6.82668C21.3864 6.72314 21.4478 6.58219 21.4517 6.43381V2.64357C21.4539 2.60955 21.4488 2.57543 21.4368 2.54353C21.4249 2.51164 21.4063 2.48269 21.3823 2.45859C21.3583 2.43448 21.3294 2.41579 21.2977 2.40377C21.2659 2.39175 21.2319 2.38666 21.1981 2.38887ZM14.2166 2.38887C14.3973 2.00822 14.6816 1.68674 15.0367 1.46168C15.3918 1.23662 15.8031 1.11719 16.223 1.11719C16.6429 1.11719 17.0542 1.23662 17.4093 1.46168C17.7644 1.68674 18.0488 2.00822 18.2295 2.38887H14.2166ZM26.8071 15.872H5.63889C5.49251 15.872 5.35212 15.8136 5.24861 15.7096C5.14509 15.6057 5.08695 15.4647 5.08695 15.3177C5.08695 15.1707 5.14509 15.0297 5.24861 14.9257C5.35212 14.8218 5.49251 14.7634 5.63889 14.7634H26.8071C26.9535 14.7634 27.0939 14.8218 27.1974 14.9257C27.3009 15.0297 27.3591 15.1707 27.3591 15.3177C27.3591 15.4647 27.3009 15.6057 27.1974 15.7096C27.0939 15.8136 26.9535 15.872 26.8071 15.872ZM27.4038 19.4824C27.4082 19.4085 27.3969 19.3345 27.3707 19.2653C27.3445 19.1961 27.304 19.1332 27.2518 19.0808C27.1997 19.0284 27.1371 18.9877 27.0681 18.9614C26.9992 18.9351 26.9255 18.9238 26.8519 18.9281H5.63889C5.56463 18.924 5.49031 18.9353 5.42065 18.9615C5.35098 18.9877 5.28747 19.0281 5.23417 19.0802C5.18088 19.1323 5.13894 19.195 5.11103 19.2642C5.08311 19.3335 5.06983 19.4078 5.07201 19.4824C5.06996 19.5578 5.08322 19.6327 5.11098 19.7027C5.13874 19.7727 5.18044 19.8363 5.23349 19.8896C5.28655 19.9429 5.34985 19.9847 5.41955 20.0126C5.48926 20.0405 5.56389 20.0538 5.63889 20.0517H26.8071C26.8846 20.0581 26.9625 20.048 27.0357 20.022C27.109 19.9961 27.176 19.9549 27.2323 19.9011C27.2886 19.8474 27.333 19.7823 27.3626 19.7102C27.3922 19.638 27.4062 19.5604 27.4038 19.4824ZM27.4038 23.6173C27.4059 23.5439 27.393 23.4709 27.366 23.4027C27.339 23.3345 27.2985 23.2726 27.2468 23.2207C27.1951 23.1688 27.1334 23.128 27.0655 23.1009C26.9976 23.0738 26.9249 23.0609 26.8519 23.063H5.63889C5.49251 23.063 5.35212 23.1214 5.24861 23.2253C5.14509 23.3293 5.08695 23.4703 5.08695 23.6173C5.08695 23.7643 5.14509 23.9053 5.24861 24.0092C5.35212 24.1132 5.49251 24.1716 5.63889 24.1716H26.8071C26.8802 24.1736 26.9529 24.1607 27.0208 24.1336C27.0886 24.1065 27.1504 24.0657 27.202 24.0138C27.2537 23.9619 27.2943 23.9 27.3213 23.8318C27.3483 23.7636 27.3612 23.6906 27.3591 23.6173H27.4038ZM27.4038 27.7521C27.4058 27.678 27.393 27.6043 27.3662 27.5354C27.3394 27.4664 27.299 27.4035 27.2476 27.3504C27.1961 27.2974 27.1346 27.2552 27.0666 27.2264C26.9987 27.1976 26.9257 27.1828 26.8519 27.1828H5.63889C5.55778 27.1695 5.47472 27.174 5.39552 27.1961C5.31632 27.2182 5.24287 27.2573 5.18023 27.3107C5.11758 27.3642 5.06724 27.4306 5.03272 27.5055C4.99821 27.5805 4.98037 27.6621 4.98037 27.7446C4.98037 27.8272 4.99821 27.9087 5.03272 27.9836C5.06724 28.0585 5.11758 28.125 5.18023 28.1784C5.24287 28.2319 5.31632 28.271 5.39552 28.2931C5.47472 28.3152 5.55778 28.3198 5.63889 28.3064H26.8071C26.8802 28.3085 26.9529 28.2955 27.0208 28.2684C27.0886 28.2413 27.1504 28.2005 27.202 28.1486C27.2537 28.0967 27.2943 28.0348 27.3213 27.9666C27.3483 27.8984 27.3612 27.8254 27.3591 27.7521H27.4038ZM27.4038 31.8719C27.4059 31.7985 27.393 31.7256 27.366 31.6574C27.339 31.5892 27.2985 31.5273 27.2468 31.4754C27.1951 31.4235 27.1334 31.3827 27.0655 31.3556C26.9976 31.3285 26.9249 31.3155 26.8519 31.3176H5.63889C5.56516 31.3156 5.49176 31.3284 5.42306 31.3554C5.35436 31.3824 5.29175 31.4229 5.23891 31.4746C5.18606 31.5262 5.14407 31.588 5.1154 31.6563C5.08673 31.7245 5.07199 31.7978 5.07201 31.8719C5.06996 31.9472 5.08322 32.0222 5.11098 32.0922C5.13874 32.1622 5.18044 32.2258 5.23349 32.2791C5.28655 32.3324 5.34985 32.3742 5.41955 32.4021C5.48926 32.4299 5.56389 32.4433 5.63889 32.4412H26.8071C26.8815 32.4434 26.9555 32.43 27.0244 32.402C27.0934 32.374 27.1558 32.3319 27.2077 32.2783C27.2596 32.2248 27.2998 32.1611 27.3259 32.0911C27.3519 32.0212 27.3633 31.9465 27.3591 31.8719H27.4038ZM33.8781 38.3438C32.961 37.3814 31.7858 36.7067 30.4948 36.4011C29.2037 36.0955 27.8522 36.1723 26.6036 36.622C25.3551 37.0718 24.2631 37.8752 23.4599 38.9353C22.6566 39.9953 22.1764 41.2664 22.0775 42.5948C21.9786 43.9231 22.2652 45.2518 22.9025 46.42C23.5399 47.5882 24.5007 48.5459 25.6687 49.1771C26.8368 49.8083 28.162 50.0861 29.4839 49.9768C30.8058 49.8674 32.0679 49.3757 33.1173 48.561C33.3174 48.4266 33.5025 48.2709 33.6693 48.0966C33.8796 47.8981 34.0788 47.688 34.266 47.4674C35.3101 46.1573 35.8436 44.5103 35.7667 42.834C35.6898 41.1577 35.0079 39.5669 33.8483 38.3588L33.8781 38.3438ZM33.5798 41.1753L27.8215 46.7033C27.7705 46.7536 27.7098 46.7929 27.6431 46.8186C27.5764 46.8444 27.5051 46.8561 27.4337 46.8531C27.3647 46.8541 27.2963 46.8414 27.2323 46.8157C27.1683 46.79 27.11 46.7518 27.0607 46.7033L24.2413 43.8719C24.1566 43.7653 24.114 43.6312 24.1216 43.4951C24.1291 43.359 24.1864 43.2305 24.2824 43.1341C24.3783 43.0377 24.5063 42.9802 24.6418 42.9726C24.7774 42.965 24.9109 43.0078 25.017 43.0929L27.4635 45.5348L32.819 40.3663C32.9248 40.2629 33.0666 40.205 33.2143 40.205C33.3619 40.205 33.5038 40.2629 33.6096 40.3663C33.7092 40.4743 33.7645 40.616 33.7645 40.7632C33.7645 40.9105 33.7092 41.0523 33.6096 41.1603L33.5798 41.1753ZM26.4193 35.4674H5.68365C5.60253 35.4541 5.51951 35.4586 5.44031 35.4807C5.36111 35.5028 5.28762 35.5419 5.22498 35.5954C5.16233 35.6488 5.11203 35.7152 5.07752 35.7902C5.04301 35.8651 5.02512 35.9467 5.02512 36.0292C5.02512 36.1118 5.04301 36.1933 5.07752 36.2682C5.11203 36.3432 5.16233 36.4096 5.22498 36.463C5.28762 36.5165 5.36111 36.5556 5.44031 36.5777C5.51951 36.5998 5.60253 36.6044 5.68365 36.591H24.2562C24.9146 36.1057 25.6444 35.7266 26.4193 35.4674ZM21.7799 39.6022H5.63889C5.49251 39.6022 5.35212 39.6606 5.24861 39.7646C5.14509 39.8685 5.08695 40.0095 5.08695 40.1565C5.08695 40.3035 5.14509 40.4445 5.24861 40.5485C5.35212 40.6524 5.49251 40.7109 5.63889 40.7109H21.3025C21.4024 40.3254 21.5476 39.9532 21.7351 39.6022H21.7799Z" fill="black"/>
</g>
</svg>
