<svg width="35" height="51" viewBox="0 0 35 51" fill="none" xmlns="http://www.w3.org/2000/svg">
<g id="Group 19">
<path id="Vector" fill-rule="evenodd" clip-rule="evenodd" d="M12.0417 36.3257C12.0977 36.2701 12.1642 36.226 12.2373 36.1959C12.3105 36.1658 12.3889 36.1503 12.4681 36.1503C12.5473 36.1503 12.6257 36.1658 12.6988 36.1959C12.772 36.226 12.8385 36.2701 12.8945 36.3257C12.9505 36.3813 12.9949 36.4473 13.0252 36.52C13.0555 36.5926 13.0711 36.6705 13.0711 36.7491C13.0711 36.8277 13.0555 36.9056 13.0252 36.9782C12.9949 37.0509 12.9505 37.1169 12.8945 37.1725L11.7006 38.3581L10.4896 39.5775L9.53449 40.526C9.48052 40.578 9.4163 40.6184 9.34586 40.6446C9.27542 40.6709 9.20024 40.6824 9.12511 40.6784C8.96403 40.6798 8.80742 40.626 8.6817 40.526L7.62419 39.442C7.51632 39.3237 7.45664 39.1697 7.45664 39.0101C7.45664 38.8505 7.51632 38.6966 7.62419 38.5782C7.74057 38.4723 7.89271 38.4136 8.05058 38.4136C8.20846 38.4136 8.3606 38.4723 8.47698 38.5782L9.12511 39.2218L10.4214 37.9177L11.513 36.8507L12.0417 36.3257ZM12.0417 25.5879C12.1581 25.482 12.3102 25.4233 12.4681 25.4233C12.626 25.4233 12.7781 25.482 12.8945 25.5879C12.9544 25.6449 13.002 25.7132 13.0345 25.7889C13.0671 25.8646 13.0838 25.946 13.0838 26.0283C13.0838 26.1106 13.0671 26.192 13.0345 26.2677C13.002 26.3433 12.9544 26.4117 12.8945 26.4686L11.7006 27.6542L10.4896 28.8736L9.53449 29.7882C9.48695 29.8503 9.4247 29.8998 9.3533 29.9323C9.2819 29.9648 9.20351 29.9793 9.12511 29.9745C9.04207 29.9768 8.95954 29.9614 8.88303 29.9292C8.80652 29.8971 8.73786 29.849 8.6817 29.7882L7.62419 28.7381C7.51632 28.6198 7.45664 28.4659 7.45664 28.3063C7.45664 28.1467 7.51632 27.9927 7.62419 27.8744C7.74057 27.7685 7.89271 27.7097 8.05058 27.7097C8.20846 27.7097 8.3606 27.7685 8.47698 27.8744L9.12511 28.518L10.4214 27.2138L11.513 26.1468L12.0417 25.5879ZM12.0417 14.6639C12.0973 14.6075 12.1636 14.5628 12.2368 14.5323C12.3101 14.5017 12.3887 14.486 12.4681 14.486C12.5475 14.486 12.6261 14.5017 12.6994 14.5323C12.7726 14.5628 12.8389 14.6075 12.8945 14.6639C12.9539 14.7193 13.0012 14.7862 13.0335 14.8605C13.0659 14.9348 13.0826 15.0148 13.0826 15.0958C13.0826 15.1767 13.0659 15.2568 13.0335 15.331C13.0012 15.4053 12.9539 15.4722 12.8945 15.5277L11.7006 16.7132L10.4896 17.9327L9.53449 18.8641C9.48342 18.9211 9.4201 18.9659 9.34924 18.9952C9.27838 19.0245 9.20177 19.0376 9.12511 19.0335C8.96072 19.0366 8.80165 18.9758 8.6817 18.8641L7.62419 17.8141C7.51752 17.6985 7.45835 17.5474 7.45835 17.3907C7.45835 17.2339 7.51752 17.0828 7.62419 16.9673C7.67702 16.9064 7.74251 16.8575 7.8161 16.824C7.88968 16.7905 7.96964 16.7732 8.05058 16.7732C8.13153 16.7732 8.21154 16.7905 8.28512 16.824C8.35871 16.8575 8.42414 16.9064 8.47698 16.9673L9.12511 17.5601L10.4214 16.2729L11.513 15.2228L12.0417 14.6639ZM0.614239 4.77295H10.626V5.97543H1.22823V49.6886H33.7709V5.97543H24.3731V4.77295H34.3849C34.4662 4.77061 34.5471 4.7848 34.6227 4.81461C34.6982 4.84443 34.7669 4.88922 34.8244 4.94631C34.8818 5.0034 34.927 5.07156 34.957 5.14659C34.987 5.22163 35.0013 5.30199 34.9989 5.3827V50.2983C35.0039 50.3797 34.9914 50.4612 34.9623 50.5374C34.9332 50.6136 34.8882 50.6828 34.8301 50.7404C34.7721 50.7981 34.7024 50.8428 34.6256 50.8717C34.5489 50.9006 34.4668 50.9129 34.3849 50.908H0.614239C0.532966 50.9103 0.452086 50.8962 0.376524 50.8664C0.300963 50.8366 0.232322 50.7917 0.174829 50.7346C0.117336 50.6776 0.0721748 50.6094 0.0421521 50.5344C0.0121294 50.4593 -0.00210579 50.379 0.000251455 50.2983V5.3827C-0.00210579 5.30199 0.0121294 5.22163 0.0421521 5.14659C0.0721748 5.07156 0.117336 5.0034 0.174829 4.94631C0.232322 4.88922 0.300963 4.84443 0.376524 4.81461C0.452086 4.7848 0.532966 4.77061 0.614239 4.77295Z" fill="black"/>
<path id="Vector_2" fill-rule="evenodd" clip-rule="evenodd" d="M17.3977 41.0424H28.5533C28.7159 41.0424 28.8719 41.1072 28.9868 41.2224C29.1018 41.3377 29.1664 41.4941 29.1664 41.6571C29.1665 41.8217 29.1025 41.9798 28.9879 42.0978C28.8734 42.2158 28.7175 42.2843 28.5533 42.2887H17.3977C17.2335 42.2843 17.0776 42.2158 16.9631 42.0978C16.8486 41.9798 16.7845 41.8217 16.7846 41.6571C16.7846 41.5764 16.8005 41.4964 16.8313 41.4218C16.8621 41.3473 16.9072 41.2795 16.9642 41.2224C17.0211 41.1654 17.0887 41.1201 17.1631 41.0892C17.2375 41.0583 17.3172 41.0424 17.3977 41.0424ZM17.3977 37.6279H28.5533C28.7175 37.6324 28.8734 37.7009 28.9879 37.8189C29.1025 37.9369 29.1665 38.095 29.1664 38.2596C29.1664 38.4226 29.1018 38.579 28.9868 38.6942C28.8719 38.8095 28.7159 38.8742 28.5533 38.8742H17.3977C17.3172 38.8742 17.2375 38.8583 17.1631 38.8275C17.0887 38.7966 17.0211 38.7513 16.9642 38.6942C16.9072 38.6372 16.8621 38.5694 16.8313 38.4948C16.8005 38.4203 16.7846 38.3403 16.7846 38.2596C16.7845 38.095 16.8486 37.9369 16.9631 37.8189C17.0776 37.7009 17.2335 37.6324 17.3977 37.6279ZM6.48055 36.945H10.0401L8.83089 38.1743H7.12775V41.6912H10.534V41.5888L11.7603 40.3595V42.34C11.7603 42.4207 11.7444 42.5006 11.7136 42.5751C11.6828 42.6497 11.6377 42.7175 11.5807 42.7745C11.5238 42.8316 11.4562 42.8769 11.3818 42.9078C11.3074 42.9386 11.2277 42.9545 11.1472 42.9545H6.4465C6.28389 42.9545 6.12796 42.8898 6.01297 42.7745C5.89799 42.6593 5.83334 42.503 5.83334 42.34V37.5938C5.83334 37.4308 5.89799 37.2745 6.01297 37.1592C6.12796 37.044 6.28389 36.9792 6.4465 36.9792L6.48055 36.945ZM17.3977 30.116H28.5533C28.7159 30.116 28.8719 30.1808 28.9868 30.296C29.1018 30.4113 29.1664 30.5677 29.1664 30.7307C29.1665 30.8953 29.1025 31.0534 28.9879 31.1714C28.8734 31.2894 28.7175 31.3579 28.5533 31.3623H17.3977C17.2335 31.3579 17.0776 31.2894 16.9631 31.1714C16.8486 31.0534 16.7845 30.8953 16.7846 30.7307C16.7846 30.65 16.8005 30.57 16.8313 30.4954C16.8621 30.4209 16.9072 30.3531 16.9642 30.296C17.0211 30.239 17.0887 30.1937 17.1631 30.1628C17.2375 30.1319 17.3172 30.116 17.3977 30.116ZM17.3977 26.7015H28.5533C28.7175 26.706 28.8734 26.7745 28.9879 26.8925C29.1025 27.0105 29.1665 27.1686 29.1664 27.3332C29.1664 27.4962 29.1018 27.6526 28.9868 27.7678C28.8719 27.8831 28.7159 27.9478 28.5533 27.9478H17.3977C17.3172 27.9478 17.2375 27.9319 17.1631 27.901C17.0887 27.8702 17.0211 27.8249 16.9642 27.7678C16.9072 27.7108 16.8621 27.643 16.8313 27.5684C16.8005 27.4939 16.7846 27.4139 16.7846 27.3332C16.7845 27.1686 16.8486 27.0105 16.9631 26.8925C17.0776 26.7745 17.2335 26.706 17.3977 26.7015ZM6.48055 26.0186H10.0401L8.83089 27.2479H7.12775V30.7648H10.534V30.6282L11.7603 29.399V31.3794C11.7603 31.4601 11.7444 31.54 11.7136 31.6146C11.6828 31.6892 11.6377 31.7569 11.5807 31.814C11.5238 31.8711 11.4562 31.9163 11.3818 31.9472C11.3074 31.9781 11.2277 31.994 11.1472 31.994H6.4465C6.28389 31.994 6.12796 31.9293 6.01297 31.814C5.89799 31.6987 5.83334 31.5424 5.83334 31.3794V26.7356C5.83334 26.5726 5.89799 26.4163 6.01297 26.3011C6.12796 26.1858 6.28389 26.1211 6.4465 26.1211L6.48055 26.0186ZM17.3977 19.0701H28.5533C28.7159 19.0701 28.8719 19.1349 28.9868 19.2501C29.1018 19.3654 29.1664 19.5217 29.1664 19.6847C29.1688 19.7661 29.1545 19.8471 29.1245 19.9227C29.0946 19.9983 29.0495 20.067 28.9921 20.1246C28.9347 20.1821 28.8661 20.2273 28.7907 20.2573C28.7152 20.2874 28.6345 20.3017 28.5533 20.2993H17.3977C17.3165 20.3017 17.2358 20.2874 17.1603 20.2573C17.0849 20.2273 17.0163 20.1821 16.9589 20.1246C16.9015 20.067 16.8564 19.9983 16.8264 19.9227C16.7965 19.8471 16.7822 19.7661 16.7846 19.6847C16.7846 19.604 16.8005 19.5241 16.8313 19.4495C16.8621 19.3749 16.9072 19.3072 16.9642 19.2501C17.0211 19.193 17.0887 19.1478 17.1631 19.1169C17.2375 19.086 17.3172 19.0701 17.3977 19.0701ZM17.3977 15.6556H28.5533C28.6345 15.6532 28.7152 15.6675 28.7907 15.6976C28.8661 15.7276 28.9347 15.7728 28.9921 15.8303C29.0495 15.8879 29.0946 15.9566 29.1245 16.0322C29.1545 16.1079 29.1688 16.1889 29.1664 16.2702C29.1665 16.4349 29.1025 16.593 28.9879 16.711C28.8734 16.8289 28.7175 16.8975 28.5533 16.9019H17.3977C17.2335 16.8975 17.0776 16.8289 16.9631 16.711C16.8486 16.593 16.7845 16.4349 16.7846 16.2702C16.7822 16.1889 16.7965 16.1079 16.8264 16.0322C16.8564 15.9566 16.9015 15.8879 16.9589 15.8303C17.0163 15.7728 17.0849 15.7276 17.1603 15.6976C17.2358 15.6675 17.3165 15.6532 17.3977 15.6556ZM6.48055 14.9727H10.0401L8.83089 16.1848H7.12775V19.7189H10.534V19.5481L11.7603 18.336V20.3335C11.7603 20.4134 11.7444 20.4925 11.7134 20.5661C11.6823 20.6398 11.6369 20.7064 11.5797 20.7621C11.5226 20.8179 11.4548 20.8615 11.3805 20.8905C11.3062 20.9195 11.2269 20.9333 11.1472 20.931H6.4465C6.2868 20.9311 6.13335 20.8687 6.01885 20.7571C5.90434 20.6455 5.83778 20.4935 5.83334 20.3335V15.5873C5.83334 15.4243 5.89799 15.268 6.01297 15.1527C6.12796 15.0375 6.28389 14.9727 6.4465 14.9727H6.48055ZM17.568 1.2293C17.2818 1.23478 16.999 1.29265 16.7335 1.40003C16.4449 1.50346 16.1801 1.66413 15.9547 1.87238C15.7294 2.08064 15.5482 2.33226 15.422 2.61222H19.731C19.468 2.05862 19.0055 1.62546 18.4366 1.40003C18.1593 1.29256 17.8653 1.23476 17.568 1.2293ZM17.568 0.000127745C18.1139 -0.00452412 18.6534 0.117932 19.144 0.357907C19.6347 0.597881 20.063 0.948813 20.3952 1.383C20.6932 1.73722 20.9137 2.15015 21.0425 2.59513H22.95C22.9858 2.59217 23.0218 2.59735 23.0553 2.61029C23.0888 2.62323 23.119 2.64358 23.1435 2.66985C23.1681 2.69611 23.1864 2.7276 23.1971 2.76196C23.2078 2.79632 23.2107 2.83268 23.2054 2.8683V6.96569C23.2077 7.04417 23.1945 7.12235 23.1667 7.19572C23.1388 7.26909 23.0967 7.33621 23.0429 7.39329C22.9892 7.45037 22.9247 7.49624 22.8532 7.52833C22.7818 7.56042 22.7047 7.57807 22.6264 7.58028H12.5608C12.3982 7.58028 12.2422 7.51553 12.1272 7.40027C12.0123 7.28501 11.9477 7.1287 11.9477 6.96569V2.8683C11.9477 2.83243 11.9547 2.79687 11.9684 2.76373C11.9821 2.73059 12.0022 2.70047 12.0275 2.67511C12.0528 2.64974 12.0828 2.62965 12.1159 2.61592C12.1489 2.60219 12.1843 2.59513 12.2201 2.59513H14.1447C14.2619 2.1524 14.4708 1.7394 14.7578 1.383C15.0919 0.950765 15.5206 0.601224 16.0108 0.36145C16.501 0.121675 17.0396 -0.001915 17.5851 0.000127745H17.568Z" fill="black"/>
</g>
</svg>
