<svg width="39" height="38" viewBox="0 0 39 38" fill="none" xmlns="http://www.w3.org/2000/svg">
<g id="Group 20">
<path id="Vector" fill-rule="evenodd" clip-rule="evenodd" d="M25.3962 29.1199V36.0458H37.8937V29.1199H25.3962ZM25.3962 27.9916H37.8937C38.0374 27.99 38.18 28.0164 38.3133 28.0692C38.4467 28.122 38.5682 28.2003 38.671 28.2995C38.7737 28.3987 38.8556 28.5169 38.9121 28.6474C38.9685 28.7778 38.9984 28.918 39 29.0599V36.0937C39 36.3834 38.8834 36.6613 38.676 36.8661C38.4685 37.071 38.1871 37.186 37.8937 37.186H25.3719C25.0785 37.186 24.7971 37.071 24.5896 36.8661C24.3821 36.6613 24.2656 36.3834 24.2656 36.0937V29.0599C24.272 28.7744 24.3913 28.5026 24.5981 28.303C24.8049 28.1033 25.0827 27.9915 25.3719 27.9916H25.3962ZM13.312 15.1361V22.062H25.615V15.1361H13.312ZM13.312 13.9958H25.688C25.9804 13.9989 26.2599 14.115 26.4667 14.3192C26.6735 14.5233 26.7911 14.7994 26.7943 15.0881V22.11C26.7943 22.3997 26.6777 22.6775 26.4702 22.8824C26.2628 23.0872 25.9814 23.2023 25.688 23.2023H13.2634C12.97 23.2023 12.6886 23.0872 12.4811 22.8824C12.2737 22.6775 12.1571 22.3997 12.1571 22.11V19.4333H4.07264V32.5288H21.0926L19.5243 31.3285C19.4088 31.2344 19.3325 31.1015 19.31 30.9553C19.2876 30.8091 19.3206 30.6599 19.4028 30.5362C19.449 30.4779 19.5065 30.4292 19.5719 30.3928C19.6373 30.3564 19.7093 30.333 19.7838 30.3241C19.8583 30.3152 19.9339 30.3209 20.0062 30.3408C20.0785 30.3607 20.1461 30.3945 20.2051 30.4402L23.1107 32.6368C23.1107 32.6368 23.1107 32.6368 23.1107 32.6968V32.7689V32.9129V32.9849L20.2051 35.1695C20.1074 35.2441 19.9882 35.2861 19.8647 35.2895C19.7763 35.2896 19.689 35.2703 19.6091 35.2329C19.5292 35.1955 19.4587 35.1411 19.4028 35.0735C19.3198 34.948 19.2863 34.7968 19.3087 34.6486C19.3312 34.5004 19.4079 34.3654 19.5243 34.2693L21.0926 33.0689H4.07264C3.92908 33.0722 3.78634 33.0468 3.65292 32.9944C3.51949 32.942 3.39811 32.8637 3.29601 32.764C3.19391 32.6643 3.11319 32.5453 3.05864 32.4142C3.00409 32.2831 2.97684 32.1424 2.9785 32.0006V18.7971C2.9769 18.6542 3.004 18.5125 3.05827 18.38C3.11254 18.2476 3.19288 18.127 3.29464 18.0255C3.3964 17.9239 3.51755 17.8432 3.6511 17.7882C3.78465 17.7331 3.92792 17.7048 4.07264 17.7048H12.1814V14.4999C12.1846 14.2112 12.3022 13.9352 12.509 13.731C12.7157 13.5269 12.9953 13.4108 13.2877 13.4077L13.312 13.9958ZM1.15494 1.15237V8.07822H13.5309V1.15237H1.15494ZM1.15494 0.02406H13.5795C13.7242 0.0224724 13.8678 0.0492381 14.0019 0.102816C14.1361 0.156395 14.2582 0.23572 14.3611 0.336192C14.4639 0.436665 14.5456 0.556287 14.6014 0.688142C14.6571 0.819998 14.6858 0.961462 14.6858 1.10434V3.96112H34.6113C34.755 3.95953 34.8975 3.98591 35.0309 4.03874C35.1643 4.09157 35.2858 4.1698 35.3885 4.269C35.4912 4.3682 35.5732 4.48642 35.6296 4.61688C35.6861 4.74735 35.716 4.88752 35.7176 5.02939V18.341C35.7176 18.4839 35.6889 18.6253 35.6331 18.7572C35.5774 18.8891 35.4957 19.0087 35.3928 19.1091C35.2899 19.2096 35.1679 19.2889 35.0337 19.3425C34.8996 19.3961 34.756 19.4229 34.6113 19.4213H30.0645L31.6206 20.5376C31.7194 20.6084 31.7926 20.7087 31.8294 20.8236C31.8663 20.9385 31.8649 21.062 31.8255 21.1761C31.7861 21.2902 31.7107 21.3888 31.6104 21.4575C31.5101 21.5262 31.3901 21.5614 31.2681 21.5579C31.1475 21.5599 31.029 21.5265 30.9277 21.4618L27.9857 19.3012C27.9146 19.2429 27.858 19.1693 27.8201 19.0861C27.7822 19.0029 27.764 18.9123 27.7668 18.8211C27.7668 18.7338 27.7863 18.6476 27.8242 18.5687C27.862 18.4898 27.9172 18.4202 27.9857 18.365L30.9277 16.1564C31.0548 16.0745 31.2079 16.0415 31.358 16.0636C31.5082 16.0857 31.6449 16.1615 31.7422 16.2764C31.8263 16.3973 31.8606 16.5454 31.838 16.6903C31.8154 16.8353 31.7377 16.9663 31.6206 17.0566L29.9673 18.257H34.587V5.05342H14.6493V8.10225C14.6477 8.24411 14.6179 8.38428 14.5614 8.51475C14.5049 8.64521 14.423 8.76343 14.3203 8.86263C14.2176 8.96183 14.096 9.04006 13.9627 9.09289C13.8293 9.14572 13.6867 9.1721 13.543 9.17051H1.1063C0.962614 9.1721 0.820018 9.14572 0.686656 9.09289C0.553294 9.04006 0.431775 8.96183 0.329045 8.86263C0.226314 8.76343 0.144386 8.64521 0.0879282 8.51475C0.0314707 8.38428 0.00158765 8.24411 2.08435e-09 8.10225V1.08035C-8.9311e-06 0.937468 0.0286965 0.796004 0.0844408 0.664149C0.140185 0.532294 0.221887 0.412672 0.324778 0.312199C0.427669 0.211726 0.54972 0.132402 0.683874 0.0788232C0.818027 0.0252448 0.961596 -0.00152087 1.1063 6.67031e-05L1.15494 0.02406Z" fill="black"/>
<path id="Vector_2" fill-rule="evenodd" clip-rule="evenodd" d="M26.3026 29.8027H35.7508C35.8195 29.8011 35.8877 29.8133 35.9516 29.8386C36.0154 29.8639 36.0736 29.9018 36.1227 29.9501C36.1718 29.9984 36.2108 30.0561 36.2374 30.1198C36.264 30.1835 36.2778 30.2519 36.2777 30.321V34.8291C36.2829 34.9006 36.2729 34.9724 36.2485 35.0398C36.224 35.1071 36.1855 35.1685 36.1357 35.2198C36.0859 35.2711 36.0258 35.3111 35.9595 35.3373C35.8931 35.3634 35.822 35.3751 35.7508 35.3715H26.3026C26.2329 35.3715 26.164 35.3574 26.0999 35.3299C26.0358 35.3023 25.9779 35.2619 25.9298 35.2112C25.8816 35.1605 25.8442 35.1005 25.8198 35.0348C25.7954 34.9691 25.7845 34.8991 25.7877 34.8291V30.2848C25.7877 30.1473 25.842 30.0155 25.9385 29.9183C26.0351 29.8211 26.166 29.7665 26.3026 29.7665V29.8027ZM14.3277 15.7963H23.7759C23.9157 15.7963 24.0497 15.8521 24.1485 15.9516C24.2473 16.0511 24.3028 16.186 24.3028 16.3266V20.7985C24.3045 20.8686 24.292 20.9383 24.2661 21.0034C24.2402 21.0685 24.2014 21.1277 24.1522 21.1772C24.1029 21.2268 24.0441 21.2658 23.9795 21.2919C23.9148 21.318 23.8456 21.3306 23.7759 21.3289H14.3277C14.2575 21.3305 14.1877 21.318 14.1224 21.2921C14.0571 21.2661 13.9976 21.2273 13.9474 21.1779C13.8972 21.1285 13.8573 21.0695 13.8301 21.0043C13.8029 20.9392 13.7888 20.8692 13.7889 20.7985V16.3266C13.792 16.1849 13.8501 16.05 13.9509 15.9508C14.0516 15.8517 14.1868 15.7962 14.3277 15.7963ZM2.3528 1.81396H11.8369C11.9746 1.81711 12.1056 1.87438 12.2018 1.9735C12.298 2.07262 12.3519 2.20573 12.3519 2.34433V6.81624C12.3458 6.95063 12.2893 7.0777 12.1937 7.1717C12.0981 7.26569 11.9706 7.3196 11.8369 7.32252H2.3528C2.21505 7.32581 2.0815 7.27464 1.98078 7.18001C1.88005 7.08538 1.82017 6.95479 1.81395 6.81624V2.34433C1.81708 2.20257 1.87523 2.06767 1.97595 1.96854C2.07667 1.8694 2.21193 1.81393 2.3528 1.81396Z" fill="black"/>
</g>
</svg>
